<?xml version="1.0" encoding="UTF-8"?>
<svg xmlns="http://www.w3.org/2000/svg" xmlns:xlink="http://www.w3.org/1999/xlink" width="504" height="288" viewBox="0 0 504 288">
<defs>
<g>
<g id="glyph-0-0">
<path d="M 0.28125 0 L 0.28125 -6.3125 L 5.296875 -6.3125 L 5.296875 0 Z M 4.5 -0.796875 L 4.5 -5.515625 L 1.078125 -5.515625 L 1.078125 -0.796875 Z M 4.5 -0.796875 "/>
</g>
<g id="glyph-0-1">
<path d="M 1.171875 -1.484375 C 1.191406 -1.054688 1.351562 -0.757812 1.65625 -0.59375 C 1.820312 -0.507812 2 -0.46875 2.1875 -0.46875 C 2.5625 -0.46875 2.878906 -0.617188 3.140625 -0.921875 C 3.398438 -1.234375 3.582031 -1.863281 3.6875 -2.8125 C 3.519531 -2.539062 3.304688 -2.347656 3.046875 -2.234375 C 2.796875 -2.128906 2.523438 -2.078125 2.234375 -2.078125 C 1.640625 -2.078125 1.171875 -2.257812 0.828125 -2.625 C 0.484375 -2.988281 0.3125 -3.460938 0.3125 -4.046875 C 0.3125 -4.609375 0.476562 -5.097656 0.8125 -5.515625 C 1.15625 -5.941406 1.660156 -6.15625 2.328125 -6.15625 C 3.222656 -6.15625 3.84375 -5.753906 4.1875 -4.953125 C 4.375 -4.503906 4.46875 -3.945312 4.46875 -3.28125 C 4.46875 -2.53125 4.351562 -1.863281 4.125 -1.28125 C 3.75 -0.3125 3.113281 0.171875 2.21875 0.171875 C 1.625 0.171875 1.171875 0.0117188 0.859375 -0.296875 C 0.546875 -0.609375 0.390625 -1.003906 0.390625 -1.484375 Z M 2.34375 -2.75 C 2.644531 -2.75 2.921875 -2.847656 3.171875 -3.046875 C 3.429688 -3.253906 3.5625 -3.609375 3.5625 -4.109375 C 3.5625 -4.566406 3.445312 -4.90625 3.21875 -5.125 C 2.988281 -5.34375 2.695312 -5.453125 2.34375 -5.453125 C 1.96875 -5.453125 1.664062 -5.320312 1.4375 -5.0625 C 1.21875 -4.8125 1.109375 -4.476562 1.109375 -4.0625 C 1.109375 -3.65625 1.207031 -3.332031 1.40625 -3.09375 C 1.601562 -2.863281 1.914062 -2.75 2.34375 -2.75 Z M 2.34375 -2.75 "/>
</g>
<g id="glyph-0-2">
<path d="M 0.28125 0 C 0.300781 -0.53125 0.40625 -0.988281 0.59375 -1.375 C 0.789062 -1.769531 1.164062 -2.128906 1.71875 -2.453125 L 2.546875 -2.921875 C 2.910156 -3.140625 3.164062 -3.328125 3.3125 -3.484375 C 3.550781 -3.710938 3.671875 -3.984375 3.671875 -4.296875 C 3.671875 -4.648438 3.5625 -4.929688 3.34375 -5.140625 C 3.132812 -5.359375 2.847656 -5.46875 2.484375 -5.46875 C 1.960938 -5.46875 1.597656 -5.265625 1.390625 -4.859375 C 1.285156 -4.648438 1.226562 -4.351562 1.21875 -3.96875 L 0.421875 -3.96875 C 0.429688 -4.5 0.53125 -4.9375 0.71875 -5.28125 C 1.050781 -5.875 1.644531 -6.171875 2.5 -6.171875 C 3.195312 -6.171875 3.707031 -5.976562 4.03125 -5.59375 C 4.363281 -5.21875 4.53125 -4.796875 4.53125 -4.328125 C 4.53125 -3.835938 4.351562 -3.414062 4 -3.0625 C 3.800781 -2.863281 3.441406 -2.617188 2.921875 -2.328125 L 2.34375 -2 C 2.0625 -1.84375 1.835938 -1.695312 1.671875 -1.5625 C 1.390625 -1.3125 1.210938 -1.035156 1.140625 -0.734375 L 4.5 -0.734375 L 4.5 0 Z M 0.28125 0 "/>
</g>
<g id="glyph-0-3">
<path d="M 0.75 -0.9375 L 1.65625 -0.9375 L 1.65625 0 L 0.75 0 Z M 0.75 -0.9375 "/>
</g>
<g id="glyph-0-4">
<path d="M 1.09375 -1.5625 C 1.132812 -1.125 1.335938 -0.820312 1.703125 -0.65625 C 1.878906 -0.570312 2.09375 -0.53125 2.34375 -0.53125 C 2.800781 -0.53125 3.140625 -0.675781 3.359375 -0.96875 C 3.578125 -1.257812 3.6875 -1.582031 3.6875 -1.9375 C 3.6875 -2.363281 3.554688 -2.691406 3.296875 -2.921875 C 3.035156 -3.160156 2.71875 -3.28125 2.34375 -3.28125 C 2.082031 -3.28125 1.851562 -3.226562 1.65625 -3.125 C 1.46875 -3.019531 1.304688 -2.878906 1.171875 -2.703125 L 0.5 -2.734375 L 0.96875 -6.046875 L 4.171875 -6.046875 L 4.171875 -5.296875 L 1.5625 -5.296875 L 1.296875 -3.59375 C 1.429688 -3.695312 1.566406 -3.773438 1.703125 -3.828125 C 1.929688 -3.929688 2.195312 -3.984375 2.5 -3.984375 C 3.0625 -3.984375 3.535156 -3.800781 3.921875 -3.4375 C 4.316406 -3.070312 4.515625 -2.609375 4.515625 -2.046875 C 4.515625 -1.460938 4.332031 -0.945312 3.96875 -0.5 C 3.613281 -0.0625 3.046875 0.15625 2.265625 0.15625 C 1.753906 0.15625 1.304688 0.0117188 0.921875 -0.265625 C 0.546875 -0.546875 0.332031 -0.976562 0.28125 -1.5625 Z M 1.09375 -1.5625 "/>
</g>
<g id="glyph-0-5">
<path d="M 2.375 -6.15625 C 3.175781 -6.15625 3.753906 -5.828125 4.109375 -5.171875 C 4.378906 -4.660156 4.515625 -3.960938 4.515625 -3.078125 C 4.515625 -2.242188 4.390625 -1.554688 4.140625 -1.015625 C 3.785156 -0.222656 3.195312 0.171875 2.375 0.171875 C 1.632812 0.171875 1.082031 -0.148438 0.71875 -0.796875 C 0.425781 -1.328125 0.28125 -2.046875 0.28125 -2.953125 C 0.28125 -3.648438 0.367188 -4.25 0.546875 -4.75 C 0.878906 -5.6875 1.488281 -6.15625 2.375 -6.15625 Z M 2.375 -0.53125 C 2.769531 -0.53125 3.085938 -0.707031 3.328125 -1.0625 C 3.566406 -1.425781 3.6875 -2.085938 3.6875 -3.046875 C 3.6875 -3.753906 3.597656 -4.332031 3.421875 -4.78125 C 3.253906 -5.226562 2.921875 -5.453125 2.421875 -5.453125 C 1.972656 -5.453125 1.640625 -5.238281 1.421875 -4.8125 C 1.210938 -4.382812 1.109375 -3.753906 1.109375 -2.921875 C 1.109375 -2.296875 1.175781 -1.789062 1.3125 -1.40625 C 1.519531 -0.820312 1.875 -0.53125 2.375 -0.53125 Z M 2.375 -0.53125 "/>
</g>
<g id="glyph-0-6">
<path d="M 4.59375 -6.046875 L 4.59375 -5.375 C 4.394531 -5.175781 4.128906 -4.835938 3.796875 -4.359375 C 3.472656 -3.890625 3.1875 -3.378906 2.9375 -2.828125 C 2.6875 -2.296875 2.5 -1.8125 2.375 -1.375 C 2.289062 -1.082031 2.179688 -0.625 2.046875 0 L 1.203125 0 C 1.390625 -1.175781 1.816406 -2.34375 2.484375 -3.5 C 2.878906 -4.1875 3.289062 -4.773438 3.71875 -5.265625 L 0.328125 -5.265625 L 0.328125 -6.046875 Z M 4.59375 -6.046875 "/>
</g>
<g id="glyph-0-7">
<path d="M 0.84375 -4.359375 L 0.84375 -4.953125 C 1.394531 -5.003906 1.78125 -5.09375 2 -5.21875 C 2.226562 -5.34375 2.394531 -5.644531 2.5 -6.125 L 3.109375 -6.125 L 3.109375 0 L 2.296875 0 L 2.296875 -4.359375 Z M 0.84375 -4.359375 "/>
</g>
<g id="glyph-0-8">
<path d="M 2.28125 0.171875 C 1.550781 0.171875 1.019531 -0.0234375 0.6875 -0.421875 C 0.363281 -0.828125 0.203125 -1.316406 0.203125 -1.890625 L 1.015625 -1.890625 C 1.046875 -1.492188 1.117188 -1.203125 1.234375 -1.015625 C 1.441406 -0.691406 1.804688 -0.53125 2.328125 -0.53125 C 2.734375 -0.53125 3.054688 -0.640625 3.296875 -0.859375 C 3.546875 -1.078125 3.671875 -1.359375 3.671875 -1.703125 C 3.671875 -2.128906 3.539062 -2.425781 3.28125 -2.59375 C 3.03125 -2.757812 2.671875 -2.84375 2.203125 -2.84375 C 2.148438 -2.84375 2.097656 -2.84375 2.046875 -2.84375 C 1.992188 -2.84375 1.941406 -2.84375 1.890625 -2.84375 L 1.890625 -3.515625 C 1.972656 -3.515625 2.039062 -3.507812 2.09375 -3.5 C 2.144531 -3.5 2.203125 -3.5 2.265625 -3.5 C 2.554688 -3.5 2.796875 -3.546875 2.984375 -3.640625 C 3.304688 -3.796875 3.46875 -4.082031 3.46875 -4.5 C 3.46875 -4.800781 3.359375 -5.035156 3.140625 -5.203125 C 2.921875 -5.367188 2.671875 -5.453125 2.390625 -5.453125 C 1.867188 -5.453125 1.507812 -5.28125 1.3125 -4.9375 C 1.207031 -4.75 1.144531 -4.476562 1.125 -4.125 L 0.359375 -4.125 C 0.359375 -4.582031 0.453125 -4.972656 0.640625 -5.296875 C 0.953125 -5.867188 1.503906 -6.15625 2.296875 -6.15625 C 2.929688 -6.15625 3.421875 -6.015625 3.765625 -5.734375 C 4.109375 -5.460938 4.28125 -5.0625 4.28125 -4.53125 C 4.28125 -4.144531 4.175781 -3.835938 3.96875 -3.609375 C 3.84375 -3.460938 3.679688 -3.347656 3.484375 -3.265625 C 3.804688 -3.171875 4.054688 -3 4.234375 -2.75 C 4.421875 -2.5 4.515625 -2.191406 4.515625 -1.828125 C 4.515625 -1.234375 4.316406 -0.75 3.921875 -0.375 C 3.535156 -0.0078125 2.988281 0.171875 2.28125 0.171875 Z M 2.28125 0.171875 "/>
</g>
<g id="glyph-1-0">
<path d="M 0.359375 0 L 0.359375 -7.890625 L 6.625 -7.890625 L 6.625 0 Z M 5.625 -0.984375 L 5.625 -6.90625 L 1.34375 -6.90625 L 1.34375 -0.984375 Z M 5.625 -0.984375 "/>
</g>
<g id="glyph-1-1">
<path d="M 4.890625 -3.234375 L 3.6875 -6.71875 L 2.421875 -3.234375 Z M 3.125 -7.890625 L 4.34375 -7.890625 L 7.203125 0 L 6.03125 0 L 5.234375 -2.359375 L 2.109375 -2.359375 L 1.25 0 L 0.15625 0 Z M 4.28125 -10.0625 L 5.375 -8.515625 L 4.484375 -8.515625 L 3.765625 -9.546875 L 3.03125 -8.515625 L 2.15625 -8.515625 L 3.25 -10.0625 Z M 4.28125 -10.0625 "/>
</g>
<g id="glyph-1-2">
<path d="M 2.734375 -5.859375 C 3.191406 -5.859375 3.585938 -5.742188 3.921875 -5.515625 C 4.097656 -5.390625 4.285156 -5.207031 4.484375 -4.96875 L 4.484375 -5.703125 L 5.375 -5.703125 L 5.375 -0.46875 C 5.375 0.257812 5.265625 0.835938 5.046875 1.265625 C 4.648438 2.046875 3.894531 2.4375 2.78125 2.4375 C 2.15625 2.4375 1.628906 2.296875 1.203125 2.015625 C 0.785156 1.734375 0.550781 1.300781 0.5 0.71875 L 1.484375 0.71875 C 1.535156 0.96875 1.628906 1.164062 1.765625 1.3125 C 1.984375 1.53125 2.328125 1.640625 2.796875 1.640625 C 3.535156 1.640625 4.019531 1.375 4.25 0.84375 C 4.382812 0.539062 4.445312 -0.00390625 4.4375 -0.796875 C 4.25 -0.503906 4.015625 -0.285156 3.734375 -0.140625 C 3.460938 -0.00390625 3.109375 0.0625 2.671875 0.0625 C 2.046875 0.0625 1.5 -0.15625 1.03125 -0.59375 C 0.5625 -1.03125 0.328125 -1.757812 0.328125 -2.78125 C 0.328125 -3.75 0.5625 -4.503906 1.03125 -5.046875 C 1.5 -5.585938 2.066406 -5.859375 2.734375 -5.859375 Z M 4.484375 -2.90625 C 4.484375 -3.613281 4.332031 -4.140625 4.03125 -4.484375 C 3.738281 -4.828125 3.367188 -5 2.921875 -5 C 2.234375 -5 1.765625 -4.679688 1.515625 -4.046875 C 1.390625 -3.703125 1.328125 -3.253906 1.328125 -2.703125 C 1.328125 -2.054688 1.457031 -1.5625 1.71875 -1.21875 C 1.976562 -0.882812 2.332031 -0.71875 2.78125 -0.71875 C 3.46875 -0.71875 3.957031 -1.03125 4.25 -1.65625 C 4.40625 -2.007812 4.484375 -2.425781 4.484375 -2.90625 Z M 2.859375 -5.890625 Z M 2.859375 -5.890625 "/>
</g>
<g id="glyph-1-3">
<path d="M 3.109375 -5.875 C 3.515625 -5.875 3.90625 -5.78125 4.28125 -5.59375 C 4.664062 -5.40625 4.960938 -5.15625 5.171875 -4.84375 C 5.359375 -4.5625 5.484375 -4.222656 5.546875 -3.828125 C 5.609375 -3.566406 5.640625 -3.144531 5.640625 -2.5625 L 1.421875 -2.5625 C 1.441406 -1.976562 1.578125 -1.507812 1.828125 -1.15625 C 2.085938 -0.8125 2.488281 -0.640625 3.03125 -0.640625 C 3.539062 -0.640625 3.945312 -0.804688 4.25 -1.140625 C 4.414062 -1.328125 4.535156 -1.550781 4.609375 -1.8125 L 5.5625 -1.8125 C 5.53125 -1.59375 5.441406 -1.351562 5.296875 -1.09375 C 5.160156 -0.832031 5.003906 -0.625 4.828125 -0.46875 C 4.535156 -0.175781 4.175781 0.0195312 3.75 0.125 C 3.507812 0.175781 3.242188 0.203125 2.953125 0.203125 C 2.234375 0.203125 1.625 -0.0546875 1.125 -0.578125 C 0.632812 -1.097656 0.390625 -1.828125 0.390625 -2.765625 C 0.390625 -3.691406 0.640625 -4.441406 1.140625 -5.015625 C 1.640625 -5.585938 2.296875 -5.875 3.109375 -5.875 Z M 4.640625 -3.328125 C 4.609375 -3.753906 4.519531 -4.09375 4.375 -4.34375 C 4.101562 -4.800781 3.660156 -5.03125 3.046875 -5.03125 C 2.597656 -5.03125 2.222656 -4.867188 1.921875 -4.546875 C 1.628906 -4.234375 1.472656 -3.828125 1.453125 -3.328125 Z M 3.015625 -5.890625 Z M 3.015625 -5.890625 "/>
</g>
<g id="glyph-2-0">
<path d="M 0 -0.359375 L -7.890625 -0.359375 L -7.890625 -6.625 L 0 -6.625 Z M -0.984375 -5.625 L -6.90625 -5.625 L -6.90625 -1.34375 L -0.984375 -1.34375 Z M -0.984375 -5.625 "/>
</g>
<g id="glyph-2-1">
<path d="M -7.890625 -6.578125 L -6.953125 -6.578125 L -6.953125 -3.921875 L 0 -3.921875 L 0 -2.84375 L -6.953125 -2.84375 L -6.953125 -0.171875 L -7.890625 -0.171875 Z M -7.890625 -6.578125 "/>
</g>
<g id="glyph-2-2">
<path d="M -1.53125 -1.453125 C -1.25 -1.453125 -1.023438 -1.550781 -0.859375 -1.75 C -0.703125 -1.957031 -0.625 -2.203125 -0.625 -2.484375 C -0.625 -2.816406 -0.703125 -3.144531 -0.859375 -3.46875 C -1.117188 -4.007812 -1.550781 -4.28125 -2.15625 -4.28125 L -2.921875 -4.28125 C -2.847656 -4.15625 -2.785156 -4 -2.734375 -3.8125 C -2.691406 -3.632812 -2.65625 -3.453125 -2.625 -3.265625 L -2.5625 -2.6875 C -2.507812 -2.332031 -2.4375 -2.066406 -2.34375 -1.890625 C -2.164062 -1.597656 -1.894531 -1.453125 -1.53125 -1.453125 Z M -3.484375 -3.796875 C -3.515625 -4.015625 -3.609375 -4.160156 -3.765625 -4.234375 C -3.847656 -4.273438 -3.972656 -4.296875 -4.140625 -4.296875 C -4.460938 -4.296875 -4.695312 -4.175781 -4.84375 -3.9375 C -5 -3.707031 -5.078125 -3.375 -5.078125 -2.9375 C -5.078125 -2.4375 -4.941406 -2.082031 -4.671875 -1.875 C -4.515625 -1.75 -4.289062 -1.671875 -4 -1.640625 L -4 -0.734375 C -4.707031 -0.753906 -5.195312 -0.984375 -5.46875 -1.421875 C -5.75 -1.867188 -5.890625 -2.382812 -5.890625 -2.96875 C -5.890625 -3.644531 -5.757812 -4.191406 -5.5 -4.609375 C -5.25 -5.035156 -4.847656 -5.25 -4.296875 -5.25 L -0.984375 -5.25 C -0.890625 -5.25 -0.8125 -5.265625 -0.75 -5.296875 C -0.6875 -5.335938 -0.65625 -5.425781 -0.65625 -5.5625 C -0.65625 -5.601562 -0.65625 -5.648438 -0.65625 -5.703125 C -0.664062 -5.765625 -0.675781 -5.820312 -0.6875 -5.875 L 0.03125 -5.875 C 0.0703125 -5.726562 0.0976562 -5.613281 0.109375 -5.53125 C 0.117188 -5.457031 0.125 -5.351562 0.125 -5.21875 C 0.125 -4.882812 0.00390625 -4.640625 -0.234375 -4.484375 C -0.359375 -4.410156 -0.535156 -4.359375 -0.765625 -4.328125 C -0.503906 -4.128906 -0.28125 -3.84375 -0.09375 -3.46875 C 0.0898438 -3.101562 0.1875 -2.695312 0.1875 -2.25 C 0.1875 -1.71875 0.0234375 -1.28125 -0.296875 -0.9375 C -0.617188 -0.601562 -1.023438 -0.4375 -1.515625 -0.4375 C -2.046875 -0.4375 -2.457031 -0.601562 -2.75 -0.9375 C -3.039062 -1.269531 -3.222656 -1.707031 -3.296875 -2.25 Z M -5.890625 -2.984375 Z M -5.890625 -2.984375 "/>
</g>
<g id="glyph-2-3">
<path d="M -5.75 -1.671875 L -1.9375 -1.671875 C -1.644531 -1.671875 -1.40625 -1.71875 -1.21875 -1.8125 C -0.875 -1.988281 -0.703125 -2.3125 -0.703125 -2.78125 C -0.703125 -3.445312 -1 -3.90625 -1.59375 -4.15625 C -1.914062 -4.28125 -2.359375 -4.34375 -2.921875 -4.34375 L -5.75 -4.34375 L -5.75 -5.3125 L 0 -5.3125 L 0 -4.40625 L -0.84375 -4.421875 C -0.625 -4.296875 -0.441406 -4.140625 -0.296875 -3.953125 C 0.00390625 -3.578125 0.15625 -3.128906 0.15625 -2.609375 C 0.15625 -1.785156 -0.117188 -1.222656 -0.671875 -0.921875 C -0.960938 -0.765625 -1.351562 -0.6875 -1.84375 -0.6875 L -5.75 -0.6875 Z M -5.890625 -3 Z M -5.890625 -3 "/>
</g>
<g id="glyph-2-4">
<path d="M -5.75 -0.15625 L -5.75 -1.40625 L -3.734375 -2.734375 L -5.75 -4.078125 L -5.71875 -5.25 L -2.953125 -3.3125 L 0 -5.328125 L 0 -4.09375 L -2.15625 -2.671875 L 0 -1.28125 L 0 -0.0625 L -2.953125 -2.078125 Z M -5.75 -0.15625 "/>
</g>
<g id="glyph-2-5">
</g>
<g id="glyph-2-6">
<path d="M -2.8125 -1.328125 C -2.195312 -1.328125 -1.679688 -1.457031 -1.265625 -1.71875 C -0.847656 -1.976562 -0.640625 -2.394531 -0.640625 -2.96875 C -0.640625 -3.414062 -0.832031 -3.78125 -1.21875 -4.0625 C -1.601562 -4.351562 -2.15625 -4.5 -2.875 -4.5 C -3.601562 -4.5 -4.140625 -4.347656 -4.484375 -4.046875 C -4.835938 -3.753906 -5.015625 -3.390625 -5.015625 -2.953125 C -5.015625 -2.472656 -4.828125 -2.082031 -4.453125 -1.78125 C -4.078125 -1.476562 -3.53125 -1.328125 -2.8125 -1.328125 Z M -5.859375 -2.78125 C -5.859375 -3.21875 -5.765625 -3.585938 -5.578125 -3.890625 C -5.472656 -4.054688 -5.285156 -4.25 -5.015625 -4.46875 L -7.921875 -4.46875 L -7.921875 -5.390625 L 0 -5.390625 L 0 -4.53125 L -0.796875 -4.53125 C -0.441406 -4.300781 -0.1875 -4.03125 -0.03125 -3.71875 C 0.121094 -3.414062 0.203125 -3.066406 0.203125 -2.671875 C 0.203125 -2.023438 -0.0625 -1.46875 -0.59375 -1 C -1.132812 -0.53125 -1.851562 -0.296875 -2.75 -0.296875 C -3.59375 -0.296875 -4.320312 -0.507812 -4.9375 -0.9375 C -5.550781 -1.363281 -5.859375 -1.976562 -5.859375 -2.78125 Z M -5.859375 -2.78125 "/>
</g>
<g id="glyph-2-7">
<path d="M -5.875 -3.109375 C -5.875 -3.515625 -5.78125 -3.90625 -5.59375 -4.28125 C -5.40625 -4.664062 -5.15625 -4.960938 -4.84375 -5.171875 C -4.5625 -5.359375 -4.222656 -5.484375 -3.828125 -5.546875 C -3.566406 -5.609375 -3.144531 -5.640625 -2.5625 -5.640625 L -2.5625 -1.421875 C -1.976562 -1.441406 -1.507812 -1.578125 -1.15625 -1.828125 C -0.8125 -2.085938 -0.640625 -2.488281 -0.640625 -3.03125 C -0.640625 -3.539062 -0.804688 -3.945312 -1.140625 -4.25 C -1.328125 -4.414062 -1.550781 -4.535156 -1.8125 -4.609375 L -1.8125 -5.5625 C -1.59375 -5.53125 -1.351562 -5.441406 -1.09375 -5.296875 C -0.832031 -5.160156 -0.625 -5.003906 -0.46875 -4.828125 C -0.175781 -4.535156 0.0195312 -4.175781 0.125 -3.75 C 0.175781 -3.507812 0.203125 -3.242188 0.203125 -2.953125 C 0.203125 -2.234375 -0.0546875 -1.625 -0.578125 -1.125 C -1.097656 -0.632812 -1.828125 -0.390625 -2.765625 -0.390625 C -3.691406 -0.390625 -4.441406 -0.640625 -5.015625 -1.140625 C -5.585938 -1.640625 -5.875 -2.296875 -5.875 -3.109375 Z M -3.328125 -4.640625 C -3.753906 -4.609375 -4.09375 -4.519531 -4.34375 -4.375 C -4.800781 -4.101562 -5.03125 -3.660156 -5.03125 -3.046875 C -5.03125 -2.597656 -4.867188 -2.222656 -4.546875 -1.921875 C -4.234375 -1.628906 -3.828125 -1.472656 -3.328125 -1.453125 Z M -5.890625 -3.015625 Z M -5.890625 -3.015625 "/>
</g>
<g id="glyph-2-8">
<path d="M -5.75 -0.703125 L -5.75 -1.671875 L -4.9375 -1.671875 C -5.21875 -1.898438 -5.421875 -2.101562 -5.546875 -2.28125 C -5.765625 -2.601562 -5.875 -2.96875 -5.875 -3.375 C -5.875 -3.832031 -5.765625 -4.203125 -5.546875 -4.484375 C -5.410156 -4.640625 -5.21875 -4.78125 -4.96875 -4.90625 C -5.28125 -5.125 -5.507812 -5.378906 -5.65625 -5.671875 C -5.800781 -5.960938 -5.875 -6.285156 -5.875 -6.640625 C -5.875 -7.410156 -5.597656 -7.9375 -5.046875 -8.21875 C -4.742188 -8.375 -4.335938 -8.453125 -3.828125 -8.453125 L 0 -8.453125 L 0 -7.4375 L -4 -7.4375 C -4.382812 -7.4375 -4.644531 -7.34375 -4.78125 -7.15625 C -4.925781 -6.96875 -5 -6.734375 -5 -6.453125 C -5 -6.078125 -4.867188 -5.75 -4.609375 -5.46875 C -4.359375 -5.195312 -3.9375 -5.0625 -3.34375 -5.0625 L 0 -5.0625 L 0 -4.078125 L -3.75 -4.078125 C -4.144531 -4.078125 -4.429688 -4.03125 -4.609375 -3.9375 C -4.878906 -3.789062 -5.015625 -3.519531 -5.015625 -3.125 C -5.015625 -2.757812 -4.867188 -2.425781 -4.578125 -2.125 C -4.296875 -1.820312 -3.785156 -1.671875 -3.046875 -1.671875 L 0 -1.671875 L 0 -0.703125 Z M -5.75 -0.703125 "/>
</g>
<g id="glyph-2-9">
<path d="M -0.625 -2.984375 C -0.625 -3.628906 -0.863281 -4.070312 -1.34375 -4.3125 C -1.832031 -4.550781 -2.375 -4.671875 -2.96875 -4.671875 C -3.507812 -4.671875 -3.945312 -4.582031 -4.28125 -4.40625 C -4.8125 -4.132812 -5.078125 -3.664062 -5.078125 -3 C -5.078125 -2.40625 -4.847656 -1.972656 -4.390625 -1.703125 C -3.941406 -1.441406 -3.398438 -1.3125 -2.765625 -1.3125 C -2.148438 -1.3125 -1.640625 -1.441406 -1.234375 -1.703125 C -0.828125 -1.972656 -0.625 -2.398438 -0.625 -2.984375 Z M -5.921875 -3.03125 C -5.921875 -3.769531 -5.671875 -4.394531 -5.171875 -4.90625 C -4.679688 -5.414062 -3.957031 -5.671875 -3 -5.671875 C -2.070312 -5.671875 -1.304688 -5.445312 -0.703125 -5 C -0.0976562 -4.550781 0.203125 -3.851562 0.203125 -2.90625 C 0.203125 -2.113281 -0.0625 -1.484375 -0.59375 -1.015625 C -1.125 -0.546875 -1.84375 -0.3125 -2.75 -0.3125 C -3.71875 -0.3125 -4.488281 -0.554688 -5.0625 -1.046875 C -5.632812 -1.535156 -5.921875 -2.195312 -5.921875 -3.03125 Z M -5.890625 -3 Z M -5.890625 -3 "/>
</g>
<g id="glyph-2-10">
<path d="M -5.75 -0.734375 L -5.75 -1.65625 L -4.765625 -1.65625 C -4.953125 -1.726562 -5.179688 -1.910156 -5.453125 -2.203125 C -5.734375 -2.492188 -5.875 -2.832031 -5.875 -3.21875 C -5.875 -3.238281 -5.875 -3.269531 -5.875 -3.3125 C -5.875 -3.351562 -5.867188 -3.425781 -5.859375 -3.53125 L -4.828125 -3.53125 C -4.835938 -3.476562 -4.84375 -3.425781 -4.84375 -3.375 C -4.851562 -3.320312 -4.859375 -3.269531 -4.859375 -3.21875 C -4.859375 -2.726562 -4.703125 -2.351562 -4.390625 -2.09375 C -4.078125 -1.832031 -3.71875 -1.703125 -3.3125 -1.703125 L 0 -1.703125 L 0 -0.734375 Z M -5.75 -0.734375 "/>
</g>
<g id="glyph-2-11">
<path d="M -7.359375 -0.90625 L -7.359375 -1.875 L -5.75 -1.875 L -5.75 -2.796875 L -4.96875 -2.796875 L -4.96875 -1.875 L -1.203125 -1.875 C -1.003906 -1.875 -0.875 -1.941406 -0.8125 -2.078125 C -0.769531 -2.160156 -0.75 -2.285156 -0.75 -2.453125 C -0.75 -2.503906 -0.75 -2.554688 -0.75 -2.609375 C -0.75 -2.660156 -0.753906 -2.722656 -0.765625 -2.796875 L 0 -2.796875 C 0.03125 -2.679688 0.0507812 -2.5625 0.0625 -2.4375 C 0.0820312 -2.320312 0.09375 -2.195312 0.09375 -2.0625 C 0.09375 -1.613281 -0.0195312 -1.304688 -0.25 -1.140625 C -0.488281 -0.984375 -0.789062 -0.90625 -1.15625 -0.90625 L -4.96875 -0.90625 L -4.96875 -0.125 L -5.75 -0.125 L -5.75 -0.90625 Z M -7.359375 -0.90625 "/>
</g>
<g id="glyph-2-12">
<path d="M -7.890625 -0.734375 L -7.890625 -1.703125 L 0 -1.703125 L 0 -0.734375 Z M -7.890625 -0.734375 "/>
</g>
<g id="glyph-2-13">
<path d="M -5.71875 -0.703125 L -5.71875 -1.6875 L 0 -1.6875 L 0 -0.703125 Z M -7.890625 -0.703125 L -7.890625 -1.6875 L -6.796875 -1.6875 L -6.796875 -0.703125 Z M -7.890625 -0.703125 "/>
</g>
<g id="glyph-2-14">
<path d="M -5.875 -3.109375 C -5.875 -3.515625 -5.78125 -3.90625 -5.59375 -4.28125 C -5.40625 -4.664062 -5.15625 -4.960938 -4.84375 -5.171875 C -4.5625 -5.359375 -4.222656 -5.484375 -3.828125 -5.546875 C -3.566406 -5.609375 -3.144531 -5.640625 -2.5625 -5.640625 L -2.5625 -1.421875 C -1.976562 -1.441406 -1.507812 -1.578125 -1.15625 -1.828125 C -0.8125 -2.085938 -0.640625 -2.488281 -0.640625 -3.03125 C -0.640625 -3.539062 -0.804688 -3.945312 -1.140625 -4.25 C -1.328125 -4.414062 -1.550781 -4.535156 -1.8125 -4.609375 L -1.8125 -5.5625 C -1.59375 -5.53125 -1.351562 -5.441406 -1.09375 -5.296875 C -0.832031 -5.160156 -0.625 -5.003906 -0.46875 -4.828125 C -0.175781 -4.535156 0.0195312 -4.175781 0.125 -3.75 C 0.175781 -3.507812 0.203125 -3.242188 0.203125 -2.953125 C 0.203125 -2.234375 -0.0546875 -1.625 -0.578125 -1.125 C -1.097656 -0.632812 -1.828125 -0.390625 -2.765625 -0.390625 C -3.691406 -0.390625 -4.441406 -0.640625 -5.015625 -1.140625 C -5.585938 -1.640625 -5.875 -2.296875 -5.875 -3.109375 Z M -3.328125 -4.640625 C -3.753906 -4.609375 -4.09375 -4.519531 -4.34375 -4.375 C -4.800781 -4.101562 -5.03125 -3.660156 -5.03125 -3.046875 C -5.03125 -2.597656 -4.867188 -2.222656 -4.546875 -1.921875 C -4.234375 -1.628906 -3.828125 -1.472656 -3.328125 -1.453125 Z M -5.890625 -3.015625 Z M -8.0625 -4.234375 L -6.515625 -2.796875 L -6.515625 -2.046875 L -8.0625 -3.03125 Z M -8.0625 -4.234375 "/>
</g>
<g id="glyph-2-15">
<path d="M -8.015625 -3.25 C -6.921875 -2.6875 -6.117188 -2.320312 -5.609375 -2.15625 C -4.828125 -1.90625 -3.921875 -1.78125 -2.890625 -1.78125 C -1.847656 -1.78125 -0.898438 -1.925781 -0.046875 -2.21875 C 0.480469 -2.394531 1.25 -2.742188 2.25 -3.265625 L 2.25 -2.625 C 1.425781 -2.101562 0.898438 -1.78125 0.671875 -1.65625 C 0.453125 -1.53125 0.148438 -1.390625 -0.234375 -1.234375 C -0.765625 -1.035156 -1.332031 -0.898438 -1.9375 -0.828125 C -2.25 -0.785156 -2.546875 -0.765625 -2.828125 -0.765625 C -3.890625 -0.765625 -4.832031 -0.929688 -5.65625 -1.265625 C -6.1875 -1.472656 -6.972656 -1.910156 -8.015625 -2.578125 Z M -8.015625 -3.25 "/>
</g>
<g id="glyph-2-16">
<path d="M -0.65625 -3.140625 C -0.65625 -3.585938 -0.84375 -3.957031 -1.21875 -4.25 C -1.59375 -4.550781 -2.15625 -4.703125 -2.90625 -4.703125 C -3.363281 -4.703125 -3.757812 -4.640625 -4.09375 -4.515625 C -4.726562 -4.265625 -5.046875 -3.804688 -5.046875 -3.140625 C -5.046875 -2.460938 -4.710938 -2.003906 -4.046875 -1.765625 C -3.679688 -1.628906 -3.222656 -1.5625 -2.671875 -1.5625 C -2.234375 -1.5625 -1.859375 -1.628906 -1.546875 -1.765625 C -0.953125 -2.015625 -0.65625 -2.472656 -0.65625 -3.140625 Z M -5.71875 -0.640625 L -5.71875 -1.578125 L -4.96875 -1.578125 C -5.226562 -1.765625 -5.425781 -1.972656 -5.5625 -2.203125 C -5.78125 -2.535156 -5.890625 -2.921875 -5.890625 -3.359375 C -5.890625 -4.003906 -5.640625 -4.554688 -5.140625 -5.015625 C -4.640625 -5.472656 -3.925781 -5.703125 -3 -5.703125 C -1.75 -5.703125 -0.851562 -5.375 -0.3125 -4.71875 C 0.0195312 -4.300781 0.1875 -3.816406 0.1875 -3.265625 C 0.1875 -2.828125 0.0898438 -2.460938 -0.09375 -2.171875 C -0.195312 -2.003906 -0.378906 -1.8125 -0.640625 -1.59375 L 2.296875 -1.59375 L 2.296875 -0.640625 Z M -5.71875 -0.640625 "/>
</g>
<g id="glyph-2-17">
<path d="M -5.453125 -1.046875 L -6.1875 -1.046875 C -6.257812 -1.742188 -6.375 -2.226562 -6.53125 -2.5 C -6.6875 -2.78125 -7.0625 -2.988281 -7.65625 -3.125 L -7.65625 -3.890625 L 0 -3.890625 L 0 -2.859375 L -5.453125 -2.859375 Z M -5.453125 -1.046875 "/>
</g>
<g id="glyph-2-18">
<path d="M -7.6875 -2.96875 C -7.6875 -3.96875 -7.28125 -4.691406 -6.46875 -5.140625 C -5.832031 -5.484375 -4.960938 -5.65625 -3.859375 -5.65625 C -2.804688 -5.65625 -1.941406 -5.5 -1.265625 -5.1875 C -0.285156 -4.726562 0.203125 -3.988281 0.203125 -2.96875 C 0.203125 -2.039062 -0.195312 -1.351562 -1 -0.90625 C -1.664062 -0.53125 -2.5625 -0.34375 -3.6875 -0.34375 C -4.5625 -0.34375 -5.3125 -0.457031 -5.9375 -0.6875 C -7.101562 -1.101562 -7.6875 -1.863281 -7.6875 -2.96875 Z M -0.671875 -2.96875 C -0.671875 -3.46875 -0.890625 -3.863281 -1.328125 -4.15625 C -1.773438 -4.457031 -2.601562 -4.609375 -3.8125 -4.609375 C -4.6875 -4.609375 -5.40625 -4.5 -5.96875 -4.28125 C -6.539062 -4.070312 -6.828125 -3.65625 -6.828125 -3.03125 C -6.828125 -2.46875 -6.554688 -2.050781 -6.015625 -1.78125 C -5.484375 -1.519531 -4.695312 -1.390625 -3.65625 -1.390625 C -2.863281 -1.390625 -2.234375 -1.472656 -1.765625 -1.640625 C -1.035156 -1.898438 -0.671875 -2.34375 -0.671875 -2.96875 Z M -0.671875 -2.96875 "/>
</g>
<g id="glyph-2-19">
<path d="M 2.25 -0.375 C 1.132812 -0.945312 0.320312 -1.316406 -0.1875 -1.484375 C -0.957031 -1.734375 -1.859375 -1.859375 -2.890625 -1.859375 C -3.921875 -1.859375 -4.867188 -1.710938 -5.734375 -1.421875 C -6.265625 -1.242188 -7.023438 -0.890625 -8.015625 -0.359375 L -8.015625 -1.015625 C -7.140625 -1.566406 -6.597656 -1.898438 -6.390625 -2.015625 C -6.179688 -2.128906 -5.894531 -2.253906 -5.53125 -2.390625 C -5.082031 -2.566406 -4.640625 -2.691406 -4.203125 -2.765625 C -3.773438 -2.835938 -3.359375 -2.875 -2.953125 -2.875 C -1.890625 -2.875 -0.941406 -2.707031 -0.109375 -2.375 C 0.417969 -2.15625 1.207031 -1.710938 2.25 -1.046875 Z M 2.25 -0.375 "/>
</g>
<g id="glyph-3-0">
<path d="M 0.421875 0 L 0.421875 -9.46875 L 7.9375 -9.46875 L 7.9375 0 Z M 6.75 -1.1875 L 6.75 -8.28125 L 1.609375 -8.28125 L 1.609375 -1.1875 Z M 6.75 -1.1875 "/>
</g>
<g id="glyph-3-1">
<path d="M 9.671875 -0.03125 L 9.03125 0.75 L 7.5625 -0.359375 C 7.207031 -0.171875 6.820312 -0.0195312 6.40625 0.09375 C 6 0.21875 5.554688 0.28125 5.078125 0.28125 C 3.609375 0.28125 2.457031 -0.203125 1.625 -1.171875 C 0.882812 -2.109375 0.515625 -3.28125 0.515625 -4.6875 C 0.515625 -5.96875 0.832031 -7.0625 1.46875 -7.96875 C 2.28125 -9.144531 3.488281 -9.734375 5.09375 -9.734375 C 6.757812 -9.734375 8 -9.191406 8.8125 -8.109375 C 9.4375 -7.273438 9.75 -6.207031 9.75 -4.90625 C 9.75 -4.289062 9.671875 -3.703125 9.515625 -3.140625 C 9.296875 -2.273438 8.914062 -1.570312 8.375 -1.03125 Z M 5.234375 -0.875 C 5.492188 -0.875 5.738281 -0.890625 5.96875 -0.921875 C 6.207031 -0.960938 6.410156 -1.035156 6.578125 -1.140625 L 5.546875 -1.953125 L 6.1875 -2.75 L 7.421875 -1.78125 C 7.816406 -2.226562 8.082031 -2.726562 8.21875 -3.28125 C 8.363281 -3.84375 8.4375 -4.375 8.4375 -4.875 C 8.4375 -5.988281 8.144531 -6.882812 7.5625 -7.5625 C 6.976562 -8.25 6.179688 -8.59375 5.171875 -8.59375 C 4.148438 -8.59375 3.335938 -8.265625 2.734375 -7.609375 C 2.140625 -6.960938 1.84375 -5.960938 1.84375 -4.609375 C 1.84375 -3.460938 2.128906 -2.550781 2.703125 -1.875 C 3.273438 -1.207031 4.117188 -0.875 5.234375 -0.875 Z M 5.234375 -0.875 "/>
</g>
<g id="glyph-3-2">
<path d="M 2.015625 -6.90625 L 2.015625 -2.328125 C 2.015625 -1.972656 2.066406 -1.679688 2.171875 -1.453125 C 2.378906 -1.046875 2.765625 -0.84375 3.328125 -0.84375 C 4.140625 -0.84375 4.691406 -1.203125 4.984375 -1.921875 C 5.140625 -2.304688 5.21875 -2.835938 5.21875 -3.515625 L 5.21875 -6.90625 L 6.375 -6.90625 L 6.375 0 L 5.28125 0 L 5.296875 -1.015625 C 5.148438 -0.753906 4.960938 -0.535156 4.734375 -0.359375 C 4.296875 0.00390625 3.757812 0.1875 3.125 0.1875 C 2.144531 0.1875 1.472656 -0.140625 1.109375 -0.796875 C 0.921875 -1.148438 0.828125 -1.625 0.828125 -2.21875 L 0.828125 -6.90625 Z M 3.609375 -7.078125 Z M 3.609375 -7.078125 "/>
</g>
<g id="glyph-3-3">
<path d="M 1.734375 -1.84375 C 1.734375 -1.5 1.851562 -1.226562 2.09375 -1.03125 C 2.34375 -0.84375 2.640625 -0.75 2.984375 -0.75 C 3.390625 -0.75 3.785156 -0.84375 4.171875 -1.03125 C 4.804688 -1.351562 5.125 -1.867188 5.125 -2.578125 L 5.125 -3.515625 C 4.988281 -3.421875 4.804688 -3.34375 4.578125 -3.28125 C 4.359375 -3.226562 4.140625 -3.1875 3.921875 -3.15625 L 3.21875 -3.0625 C 2.800781 -3.007812 2.488281 -2.921875 2.28125 -2.796875 C 1.914062 -2.597656 1.734375 -2.28125 1.734375 -1.84375 Z M 4.546875 -4.1875 C 4.816406 -4.21875 5 -4.328125 5.09375 -4.515625 C 5.132812 -4.617188 5.15625 -4.769531 5.15625 -4.96875 C 5.15625 -5.363281 5.015625 -5.648438 4.734375 -5.828125 C 4.453125 -6.003906 4.050781 -6.09375 3.53125 -6.09375 C 2.925781 -6.09375 2.5 -5.929688 2.25 -5.609375 C 2.101562 -5.421875 2.007812 -5.148438 1.96875 -4.796875 L 0.890625 -4.796875 C 0.910156 -5.648438 1.1875 -6.242188 1.71875 -6.578125 C 2.25 -6.910156 2.863281 -7.078125 3.5625 -7.078125 C 4.375 -7.078125 5.03125 -6.921875 5.53125 -6.609375 C 6.039062 -6.296875 6.296875 -5.8125 6.296875 -5.15625 L 6.296875 -1.1875 C 6.296875 -1.0625 6.316406 -0.960938 6.359375 -0.890625 C 6.410156 -0.816406 6.515625 -0.78125 6.671875 -0.78125 C 6.722656 -0.78125 6.78125 -0.785156 6.84375 -0.796875 C 6.914062 -0.804688 6.988281 -0.816406 7.0625 -0.828125 L 7.0625 0.03125 C 6.875 0.0820312 6.734375 0.113281 6.640625 0.125 C 6.546875 0.132812 6.421875 0.140625 6.265625 0.140625 C 5.859375 0.140625 5.566406 0 5.390625 -0.28125 C 5.296875 -0.425781 5.226562 -0.640625 5.1875 -0.921875 C 4.945312 -0.609375 4.601562 -0.335938 4.15625 -0.109375 C 3.71875 0.117188 3.234375 0.234375 2.703125 0.234375 C 2.066406 0.234375 1.546875 0.0390625 1.140625 -0.34375 C 0.734375 -0.738281 0.53125 -1.226562 0.53125 -1.8125 C 0.53125 -2.445312 0.726562 -2.941406 1.125 -3.296875 C 1.53125 -3.648438 2.054688 -3.867188 2.703125 -3.953125 Z M 3.59375 -7.078125 Z M 3.59375 -7.078125 "/>
</g>
<g id="glyph-3-4">
<path d="M 1.578125 -3.375 C 1.578125 -2.632812 1.734375 -2.015625 2.046875 -1.515625 C 2.367188 -1.015625 2.875 -0.765625 3.5625 -0.765625 C 4.101562 -0.765625 4.546875 -0.992188 4.890625 -1.453125 C 5.234375 -1.921875 5.40625 -2.585938 5.40625 -3.453125 C 5.40625 -4.316406 5.226562 -4.957031 4.875 -5.375 C 4.519531 -5.800781 4.078125 -6.015625 3.546875 -6.015625 C 2.960938 -6.015625 2.488281 -5.789062 2.125 -5.34375 C 1.757812 -4.894531 1.578125 -4.238281 1.578125 -3.375 Z M 3.328125 -7.03125 C 3.859375 -7.03125 4.300781 -6.914062 4.65625 -6.6875 C 4.863281 -6.5625 5.097656 -6.335938 5.359375 -6.015625 L 5.359375 -9.5 L 6.484375 -9.5 L 6.484375 0 L 5.4375 0 L 5.4375 -0.953125 C 5.164062 -0.535156 4.84375 -0.226562 4.46875 -0.03125 C 4.101562 0.15625 3.679688 0.25 3.203125 0.25 C 2.429688 0.25 1.765625 -0.0703125 1.203125 -0.71875 C 0.640625 -1.375 0.359375 -2.238281 0.359375 -3.3125 C 0.359375 -4.3125 0.613281 -5.179688 1.125 -5.921875 C 1.644531 -6.660156 2.378906 -7.03125 3.328125 -7.03125 Z M 3.328125 -7.03125 "/>
</g>
<g id="glyph-3-5">
<path d="M 0.890625 -6.90625 L 1.984375 -6.90625 L 1.984375 -5.71875 C 2.078125 -5.945312 2.296875 -6.226562 2.640625 -6.5625 C 2.992188 -6.894531 3.40625 -7.0625 3.875 -7.0625 C 3.894531 -7.0625 3.929688 -7.054688 3.984375 -7.046875 C 4.035156 -7.046875 4.117188 -7.039062 4.234375 -7.03125 L 4.234375 -5.796875 C 4.171875 -5.816406 4.109375 -5.828125 4.046875 -5.828125 C 3.992188 -5.828125 3.929688 -5.828125 3.859375 -5.828125 C 3.273438 -5.828125 2.828125 -5.640625 2.515625 -5.265625 C 2.203125 -4.890625 2.046875 -4.457031 2.046875 -3.96875 L 2.046875 0 L 0.890625 0 Z M 0.890625 -6.90625 "/>
</g>
<g id="glyph-3-6">
<path d="M 1.078125 -8.828125 L 2.25 -8.828125 L 2.25 -6.90625 L 3.359375 -6.90625 L 3.359375 -5.953125 L 2.25 -5.953125 L 2.25 -1.453125 C 2.25 -1.210938 2.332031 -1.050781 2.5 -0.96875 C 2.59375 -0.914062 2.742188 -0.890625 2.953125 -0.890625 C 3.003906 -0.890625 3.0625 -0.890625 3.125 -0.890625 C 3.195312 -0.898438 3.273438 -0.910156 3.359375 -0.921875 L 3.359375 0 C 3.222656 0.0390625 3.082031 0.0664062 2.9375 0.078125 C 2.800781 0.0976562 2.644531 0.109375 2.46875 0.109375 C 1.925781 0.109375 1.554688 -0.0234375 1.359375 -0.296875 C 1.171875 -0.578125 1.078125 -0.941406 1.078125 -1.390625 L 1.078125 -5.953125 L 0.140625 -5.953125 L 0.140625 -6.90625 L 1.078125 -6.90625 Z M 1.078125 -8.828125 "/>
</g>
<g id="glyph-3-7">
<path d="M 0.84375 -6.875 L 2.03125 -6.875 L 2.03125 0 L 0.84375 0 Z M 0.84375 -9.46875 L 2.03125 -9.46875 L 2.03125 -8.15625 L 0.84375 -8.15625 Z M 0.84375 -9.46875 "/>
</g>
<g id="glyph-3-8">
<path d="M 1.59375 -3.359375 C 1.59375 -2.765625 1.675781 -2.265625 1.84375 -1.859375 C 2.144531 -1.140625 2.675781 -0.78125 3.4375 -0.78125 C 4.25 -0.78125 4.804688 -1.160156 5.109375 -1.921875 C 5.273438 -2.335938 5.359375 -2.867188 5.359375 -3.515625 C 5.359375 -4.109375 5.269531 -4.609375 5.09375 -5.015625 C 4.769531 -5.691406 4.21875 -6.03125 3.4375 -6.03125 C 2.925781 -6.03125 2.488281 -5.8125 2.125 -5.375 C 1.769531 -4.9375 1.59375 -4.265625 1.59375 -3.359375 Z M 3.3125 -7.0625 C 3.882812 -7.0625 4.363281 -6.914062 4.75 -6.625 C 4.96875 -6.46875 5.175781 -6.238281 5.375 -5.9375 L 5.375 -6.90625 L 6.484375 -6.90625 L 6.484375 2.75 L 5.3125 2.75 L 5.3125 -0.796875 C 5.113281 -0.484375 4.84375 -0.234375 4.5 -0.046875 C 4.164062 0.128906 3.742188 0.21875 3.234375 0.21875 C 2.492188 0.21875 1.832031 -0.0664062 1.25 -0.640625 C 0.675781 -1.222656 0.390625 -2.101562 0.390625 -3.28125 C 0.390625 -4.382812 0.660156 -5.289062 1.203125 -6 C 1.742188 -6.707031 2.445312 -7.0625 3.3125 -7.0625 Z M 3.3125 -7.0625 "/>
</g>
<g id="glyph-3-9">
<path d="M 3.71875 -7.0625 C 4.21875 -7.0625 4.695312 -6.945312 5.15625 -6.71875 C 5.613281 -6.488281 5.960938 -6.191406 6.203125 -5.828125 C 6.429688 -5.472656 6.585938 -5.066406 6.671875 -4.609375 C 6.734375 -4.285156 6.765625 -3.773438 6.765625 -3.078125 L 1.703125 -3.078125 C 1.722656 -2.378906 1.890625 -1.816406 2.203125 -1.390625 C 2.515625 -0.972656 2.992188 -0.765625 3.640625 -0.765625 C 4.242188 -0.765625 4.726562 -0.960938 5.09375 -1.359375 C 5.300781 -1.585938 5.445312 -1.859375 5.53125 -2.171875 L 6.671875 -2.171875 C 6.640625 -1.910156 6.539062 -1.625 6.375 -1.3125 C 6.207031 -1 6.015625 -0.742188 5.796875 -0.546875 C 5.453125 -0.203125 5.019531 0.0234375 4.5 0.140625 C 4.21875 0.210938 3.898438 0.25 3.546875 0.25 C 2.679688 0.25 1.953125 -0.0625 1.359375 -0.6875 C 0.765625 -1.3125 0.46875 -2.1875 0.46875 -3.3125 C 0.46875 -4.425781 0.765625 -5.328125 1.359375 -6.015625 C 1.960938 -6.710938 2.75 -7.0625 3.71875 -7.0625 Z M 5.578125 -4 C 5.523438 -4.5 5.414062 -4.898438 5.25 -5.203125 C 4.925781 -5.765625 4.394531 -6.046875 3.65625 -6.046875 C 3.125 -6.046875 2.675781 -5.851562 2.3125 -5.46875 C 1.945312 -5.082031 1.753906 -4.59375 1.734375 -4 Z M 3.609375 -7.078125 Z M 3.609375 -7.078125 "/>
</g>
</g>
<clipPath id="clip-0">
<path clip-rule="nonzero" d="M 46.152344 23.957031 L 498.523438 23.957031 L 498.523438 254.847656 L 46.152344 254.847656 Z M 46.152344 23.957031 "/>
</clipPath>
<clipPath id="clip-1">
<path clip-rule="nonzero" d="M 46.152344 243 L 498.523438 243 L 498.523438 245 L 46.152344 245 Z M 46.152344 243 "/>
</clipPath>
<clipPath id="clip-2">
<path clip-rule="nonzero" d="M 46.152344 197 L 498.523438 197 L 498.523438 199 L 46.152344 199 Z M 46.152344 197 "/>
</clipPath>
<clipPath id="clip-3">
<path clip-rule="nonzero" d="M 46.152344 151 L 498.523438 151 L 498.523438 153 L 46.152344 153 Z M 46.152344 151 "/>
</clipPath>
<clipPath id="clip-4">
<path clip-rule="nonzero" d="M 46.152344 105 L 498.523438 105 L 498.523438 107 L 46.152344 107 Z M 46.152344 105 "/>
</clipPath>
<clipPath id="clip-5">
<path clip-rule="nonzero" d="M 46.152344 59 L 498.523438 59 L 498.523438 60 L 46.152344 60 Z M 46.152344 59 "/>
</clipPath>
<clipPath id="clip-6">
<path clip-rule="nonzero" d="M 112 23.957031 L 113 23.957031 L 113 254.847656 L 112 254.847656 Z M 112 23.957031 "/>
</clipPath>
<clipPath id="clip-7">
<path clip-rule="nonzero" d="M 218 23.957031 L 220 23.957031 L 220 254.847656 L 218 254.847656 Z M 218 23.957031 "/>
</clipPath>
<clipPath id="clip-8">
<path clip-rule="nonzero" d="M 325 23.957031 L 326 23.957031 L 326 254.847656 L 325 254.847656 Z M 325 23.957031 "/>
</clipPath>
<clipPath id="clip-9">
<path clip-rule="nonzero" d="M 431 23.957031 L 433 23.957031 L 433 254.847656 L 431 254.847656 Z M 431 23.957031 "/>
</clipPath>
<clipPath id="clip-10">
<path clip-rule="nonzero" d="M 46.152344 220 L 498.523438 220 L 498.523438 222 L 46.152344 222 Z M 46.152344 220 "/>
</clipPath>
<clipPath id="clip-11">
<path clip-rule="nonzero" d="M 46.152344 174 L 498.523438 174 L 498.523438 176 L 46.152344 176 Z M 46.152344 174 "/>
</clipPath>
<clipPath id="clip-12">
<path clip-rule="nonzero" d="M 46.152344 128 L 498.523438 128 L 498.523438 130 L 46.152344 130 Z M 46.152344 128 "/>
</clipPath>
<clipPath id="clip-13">
<path clip-rule="nonzero" d="M 46.152344 82 L 498.523438 82 L 498.523438 84 L 46.152344 84 Z M 46.152344 82 "/>
</clipPath>
<clipPath id="clip-14">
<path clip-rule="nonzero" d="M 46.152344 36 L 498.523438 36 L 498.523438 38 L 46.152344 38 Z M 46.152344 36 "/>
</clipPath>
<clipPath id="clip-15">
<path clip-rule="nonzero" d="M 58 23.957031 L 60 23.957031 L 60 254.847656 L 58 254.847656 Z M 58 23.957031 "/>
</clipPath>
<clipPath id="clip-16">
<path clip-rule="nonzero" d="M 165 23.957031 L 167 23.957031 L 167 254.847656 L 165 254.847656 Z M 165 23.957031 "/>
</clipPath>
<clipPath id="clip-17">
<path clip-rule="nonzero" d="M 271 23.957031 L 273 23.957031 L 273 254.847656 L 271 254.847656 Z M 271 23.957031 "/>
</clipPath>
<clipPath id="clip-18">
<path clip-rule="nonzero" d="M 378 23.957031 L 380 23.957031 L 380 254.847656 L 378 254.847656 Z M 378 23.957031 "/>
</clipPath>
<clipPath id="clip-19">
<path clip-rule="nonzero" d="M 484 23.957031 L 486 23.957031 L 486 254.847656 L 484 254.847656 Z M 484 23.957031 "/>
</clipPath>
<clipPath id="clip-20">
<path clip-rule="nonzero" d="M 271 23.957031 L 273 23.957031 L 273 254.847656 L 271 254.847656 Z M 271 23.957031 "/>
</clipPath>
<clipPath id="clip-21">
<path clip-rule="nonzero" d="M 46.152344 23.957031 L 498.523438 23.957031 L 498.523438 254.847656 L 46.152344 254.847656 Z M 46.152344 23.957031 "/>
</clipPath>
</defs>
<rect x="-50.4" y="-28.8" width="604.8" height="345.6" fill="rgb(100%, 100%, 100%)" fill-opacity="1"/>
<rect x="-50.4" y="-28.8" width="604.8" height="345.6" fill="rgb(100%, 100%, 100%)" fill-opacity="1"/>
<path fill="none" stroke-width="1.066978" stroke-linecap="round" stroke-linejoin="round" stroke="rgb(100%, 100%, 100%)" stroke-opacity="1" stroke-miterlimit="10" d="M 0 288 L 504 288 L 504 0 L 0 0 Z M 0 288 "/>
<g clip-path="url(#clip-0)">
<path fill-rule="nonzero" fill="rgb(100%, 100%, 100%)" fill-opacity="1" d="M 46.152344 254.847656 L 498.523438 254.847656 L 498.523438 23.957031 L 46.152344 23.957031 Z M 46.152344 254.847656 "/>
</g>
<g clip-path="url(#clip-1)">
<path fill="none" stroke-width="0.533489" stroke-linecap="butt" stroke-linejoin="round" stroke="rgb(92.156863%, 92.156863%, 92.156863%)" stroke-opacity="1" stroke-miterlimit="10" d="M 46.152344 244.03125 L 498.519531 244.03125 "/>
</g>
<g clip-path="url(#clip-2)">
<path fill="none" stroke-width="0.533489" stroke-linecap="butt" stroke-linejoin="round" stroke="rgb(92.156863%, 92.156863%, 92.156863%)" stroke-opacity="1" stroke-miterlimit="10" d="M 46.152344 197.953125 L 498.519531 197.953125 "/>
</g>
<g clip-path="url(#clip-3)">
<path fill="none" stroke-width="0.533489" stroke-linecap="butt" stroke-linejoin="round" stroke="rgb(92.156863%, 92.156863%, 92.156863%)" stroke-opacity="1" stroke-miterlimit="10" d="M 46.152344 151.875 L 498.519531 151.875 "/>
</g>
<g clip-path="url(#clip-4)">
<path fill="none" stroke-width="0.533489" stroke-linecap="butt" stroke-linejoin="round" stroke="rgb(92.156863%, 92.156863%, 92.156863%)" stroke-opacity="1" stroke-miterlimit="10" d="M 46.152344 105.796875 L 498.519531 105.796875 "/>
</g>
<g clip-path="url(#clip-5)">
<path fill="none" stroke-width="0.533489" stroke-linecap="butt" stroke-linejoin="round" stroke="rgb(92.156863%, 92.156863%, 92.156863%)" stroke-opacity="1" stroke-miterlimit="10" d="M 46.152344 59.71875 L 498.519531 59.71875 "/>
</g>
<g clip-path="url(#clip-6)">
<path fill="none" stroke-width="0.533489" stroke-linecap="butt" stroke-linejoin="round" stroke="rgb(92.156863%, 92.156863%, 92.156863%)" stroke-opacity="1" stroke-miterlimit="10" d="M 112.648438 254.847656 L 112.648438 23.957031 "/>
</g>
<g clip-path="url(#clip-7)">
<path fill="none" stroke-width="0.533489" stroke-linecap="butt" stroke-linejoin="round" stroke="rgb(92.156863%, 92.156863%, 92.156863%)" stroke-opacity="1" stroke-miterlimit="10" d="M 219.105469 254.847656 L 219.105469 23.957031 "/>
</g>
<g clip-path="url(#clip-8)">
<path fill="none" stroke-width="0.533489" stroke-linecap="butt" stroke-linejoin="round" stroke="rgb(92.156863%, 92.156863%, 92.156863%)" stroke-opacity="1" stroke-miterlimit="10" d="M 325.5625 254.847656 L 325.5625 23.957031 "/>
</g>
<g clip-path="url(#clip-9)">
<path fill="none" stroke-width="0.533489" stroke-linecap="butt" stroke-linejoin="round" stroke="rgb(92.156863%, 92.156863%, 92.156863%)" stroke-opacity="1" stroke-miterlimit="10" d="M 432.019531 254.847656 L 432.019531 23.957031 "/>
</g>
<g clip-path="url(#clip-10)">
<path fill="none" stroke-width="1.066978" stroke-linecap="butt" stroke-linejoin="round" stroke="rgb(92.156863%, 92.156863%, 92.156863%)" stroke-opacity="1" stroke-miterlimit="10" d="M 46.152344 220.992188 L 498.519531 220.992188 "/>
</g>
<g clip-path="url(#clip-11)">
<path fill="none" stroke-width="1.066978" stroke-linecap="butt" stroke-linejoin="round" stroke="rgb(92.156863%, 92.156863%, 92.156863%)" stroke-opacity="1" stroke-miterlimit="10" d="M 46.152344 174.914062 L 498.519531 174.914062 "/>
</g>
<g clip-path="url(#clip-12)">
<path fill="none" stroke-width="1.066978" stroke-linecap="butt" stroke-linejoin="round" stroke="rgb(92.156863%, 92.156863%, 92.156863%)" stroke-opacity="1" stroke-miterlimit="10" d="M 46.152344 128.835938 L 498.519531 128.835938 "/>
</g>
<g clip-path="url(#clip-13)">
<path fill="none" stroke-width="1.066978" stroke-linecap="butt" stroke-linejoin="round" stroke="rgb(92.156863%, 92.156863%, 92.156863%)" stroke-opacity="1" stroke-miterlimit="10" d="M 46.152344 82.757812 L 498.519531 82.757812 "/>
</g>
<g clip-path="url(#clip-14)">
<path fill="none" stroke-width="1.066978" stroke-linecap="butt" stroke-linejoin="round" stroke="rgb(92.156863%, 92.156863%, 92.156863%)" stroke-opacity="1" stroke-miterlimit="10" d="M 46.152344 36.679688 L 498.519531 36.679688 "/>
</g>
<g clip-path="url(#clip-15)">
<path fill="none" stroke-width="1.066978" stroke-linecap="butt" stroke-linejoin="round" stroke="rgb(92.156863%, 92.156863%, 92.156863%)" stroke-opacity="1" stroke-miterlimit="10" d="M 59.421875 254.847656 L 59.421875 23.957031 "/>
</g>
<g clip-path="url(#clip-16)">
<path fill="none" stroke-width="1.066978" stroke-linecap="butt" stroke-linejoin="round" stroke="rgb(92.156863%, 92.156863%, 92.156863%)" stroke-opacity="1" stroke-miterlimit="10" d="M 165.878906 254.847656 L 165.878906 23.957031 "/>
</g>
<g clip-path="url(#clip-17)">
<path fill="none" stroke-width="1.066978" stroke-linecap="butt" stroke-linejoin="round" stroke="rgb(92.156863%, 92.156863%, 92.156863%)" stroke-opacity="1" stroke-miterlimit="10" d="M 272.335938 254.847656 L 272.335938 23.957031 "/>
</g>
<g clip-path="url(#clip-18)">
<path fill="none" stroke-width="1.066978" stroke-linecap="butt" stroke-linejoin="round" stroke="rgb(92.156863%, 92.156863%, 92.156863%)" stroke-opacity="1" stroke-miterlimit="10" d="M 378.792969 254.847656 L 378.792969 23.957031 "/>
</g>
<g clip-path="url(#clip-19)">
<path fill="none" stroke-width="1.066978" stroke-linecap="butt" stroke-linejoin="round" stroke="rgb(92.156863%, 92.156863%, 92.156863%)" stroke-opacity="1" stroke-miterlimit="10" d="M 485.25 254.847656 L 485.25 23.957031 "/>
</g>
<path fill-rule="nonzero" fill="rgb(0%, 0%, 54.509804%)" fill-opacity="1" stroke-width="0.708661" stroke-linecap="round" stroke-linejoin="round" stroke="rgb(0%, 0%, 54.509804%)" stroke-opacity="1" stroke-miterlimit="10" d="M 94.371094 244.355469 C 94.371094 246.960938 90.460938 246.960938 90.460938 244.355469 C 90.460938 241.746094 94.371094 241.746094 94.371094 244.355469 "/>
<path fill-rule="nonzero" fill="rgb(0%, 0%, 54.509804%)" fill-opacity="1" stroke-width="0.708661" stroke-linecap="round" stroke-linejoin="round" stroke="rgb(0%, 0%, 54.509804%)" stroke-opacity="1" stroke-miterlimit="10" d="M 145.777344 205.5 C 145.777344 208.105469 141.867188 208.105469 141.867188 205.5 C 141.867188 202.890625 145.777344 202.890625 145.777344 205.5 "/>
<path fill-rule="nonzero" fill="rgb(0%, 0%, 54.509804%)" fill-opacity="1" stroke-width="0.708661" stroke-linecap="round" stroke-linejoin="round" stroke="rgb(0%, 0%, 54.509804%)" stroke-opacity="1" stroke-miterlimit="10" d="M 197.183594 200.769531 C 197.183594 203.375 193.273438 203.375 193.273438 200.769531 C 193.273438 198.164062 197.183594 198.164062 197.183594 200.769531 "/>
<path fill-rule="nonzero" fill="rgb(0%, 0%, 54.509804%)" fill-opacity="1" stroke-width="0.708661" stroke-linecap="round" stroke-linejoin="round" stroke="rgb(0%, 0%, 54.509804%)" stroke-opacity="1" stroke-miterlimit="10" d="M 248.585938 211.03125 C 248.585938 213.636719 244.679688 213.636719 244.679688 211.03125 C 244.679688 208.421875 248.585938 208.421875 248.585938 211.03125 "/>
<path fill-rule="nonzero" fill="rgb(0%, 0%, 54.509804%)" fill-opacity="1" stroke-width="0.708661" stroke-linecap="round" stroke-linejoin="round" stroke="rgb(0%, 0%, 54.509804%)" stroke-opacity="1" stroke-miterlimit="10" d="M 294.851562 56.554688 C 294.851562 59.164062 290.941406 59.164062 290.941406 56.554688 C 290.941406 53.949219 294.851562 53.949219 294.851562 56.554688 "/>
<path fill-rule="nonzero" fill="rgb(0%, 0%, 54.509804%)" fill-opacity="1" stroke-width="0.708661" stroke-linecap="round" stroke-linejoin="round" stroke="rgb(0%, 0%, 54.509804%)" stroke-opacity="1" stroke-miterlimit="10" d="M 335.976562 114.117188 C 335.976562 116.722656 332.066406 116.722656 332.066406 114.117188 C 332.066406 111.511719 335.976562 111.511719 335.976562 114.117188 "/>
<path fill-rule="nonzero" fill="rgb(0%, 0%, 54.509804%)" fill-opacity="1" stroke-width="0.708661" stroke-linecap="round" stroke-linejoin="round" stroke="rgb(0%, 0%, 54.509804%)" stroke-opacity="1" stroke-miterlimit="10" d="M 377.101562 106.355469 C 377.101562 108.960938 373.191406 108.960938 373.191406 106.355469 C 373.191406 103.75 377.101562 103.75 377.101562 106.355469 "/>
<path fill-rule="nonzero" fill="rgb(0%, 0%, 54.509804%)" fill-opacity="1" stroke-width="0.708661" stroke-linecap="round" stroke-linejoin="round" stroke="rgb(0%, 0%, 54.509804%)" stroke-opacity="1" stroke-miterlimit="10" d="M 418.226562 129.011719 C 418.226562 131.617188 414.316406 131.617188 414.316406 129.011719 C 414.316406 126.402344 418.226562 126.402344 418.226562 129.011719 "/>
<path fill-rule="nonzero" fill="rgb(0%, 0%, 54.509804%)" fill-opacity="1" stroke-width="0.708661" stroke-linecap="round" stroke-linejoin="round" stroke="rgb(0%, 0%, 54.509804%)" stroke-opacity="1" stroke-miterlimit="10" d="M 459.351562 142.941406 C 459.351562 145.550781 455.441406 145.550781 455.441406 142.941406 C 455.441406 140.335938 459.351562 140.335938 459.351562 142.941406 "/>
<path fill="none" stroke-width="1.066978" stroke-linecap="butt" stroke-linejoin="round" stroke="rgb(100%, 0%, 0%)" stroke-opacity="1" stroke-miterlimit="10" d="M 66.714844 238.644531 L 67.535156 238.300781 L 67.949219 238.128906 L 68.359375 237.957031 L 68.773438 237.789062 L 69.183594 237.617188 L 69.597656 237.449219 L 70.007812 237.28125 L 70.421875 237.113281 L 70.832031 236.945312 L 71.246094 236.777344 L 71.65625 236.609375 L 72.070312 236.441406 L 72.480469 236.277344 L 72.894531 236.113281 L 73.304688 235.945312 L 73.71875 235.78125 L 74.128906 235.617188 L 74.542969 235.453125 L 74.953125 235.289062 L 75.367188 235.128906 L 75.777344 234.964844 L 76.191406 234.804688 L 76.601562 234.640625 L 77.015625 234.480469 L 77.425781 234.320312 L 77.839844 234.160156 L 78.25 234 L 78.664062 233.839844 L 79.074219 233.683594 L 79.488281 233.523438 L 79.898438 233.367188 L 80.3125 233.210938 L 80.722656 233.054688 L 81.136719 232.898438 L 81.546875 232.742188 L 81.960938 232.585938 L 82.371094 232.429688 L 82.785156 232.277344 L 83.195312 232.121094 L 83.609375 231.96875 L 84.019531 231.816406 L 84.433594 231.664062 L 84.84375 231.511719 L 85.257812 231.359375 L 85.667969 231.207031 L 86.082031 231.058594 L 86.492188 230.90625 L 86.90625 230.757812 L 87.316406 230.609375 L 87.726562 230.457031 L 88.140625 230.308594 L 88.550781 230.164062 L 88.964844 230.015625 L 89.375 229.867188 L 89.789062 229.722656 L 90.199219 229.574219 L 90.613281 229.429688 L 91.023438 229.285156 L 91.4375 229.140625 L 91.847656 228.996094 L 92.261719 228.851562 L 92.671875 228.707031 L 93.085938 228.566406 L 93.496094 228.421875 L 93.910156 228.28125 L 94.320312 228.140625 L 94.734375 228 L 95.144531 227.859375 L 95.558594 227.71875 L 95.96875 227.578125 L 96.382812 227.4375 L 96.792969 227.300781 L 97.207031 227.164062 L 97.617188 227.023438 L 98.03125 226.886719 L 98.441406 226.75 L 98.855469 226.613281 L 99.265625 226.476562 L 99.679688 226.34375 L 100.089844 226.207031 L 100.503906 226.074219 L 100.914062 225.9375 L 101.328125 225.804688 L 101.738281 225.671875 L 102.152344 225.539062 L 102.5625 225.40625 L 102.976562 225.277344 L 103.386719 225.144531 L 103.800781 225.015625 L 104.210938 224.882812 L 104.625 224.753906 L 105.035156 224.625 L 105.449219 224.496094 L 105.859375 224.367188 L 106.273438 224.238281 L 106.683594 224.113281 L 107.097656 223.984375 L 107.507812 223.859375 L 107.917969 223.730469 L 108.332031 223.605469 L 108.742188 223.480469 L 109.15625 223.355469 L 109.566406 223.230469 L 109.980469 223.109375 L 110.390625 222.984375 L 110.804688 222.863281 L 111.214844 222.738281 L 111.628906 222.617188 L 112.039062 222.496094 L 112.453125 222.375 L 112.863281 222.253906 L 113.277344 222.132812 L 113.6875 222.015625 L 114.101562 221.894531 L 114.511719 221.777344 L 114.925781 221.65625 L 115.335938 221.539062 L 115.75 221.421875 L 116.160156 221.304688 L 116.574219 221.191406 L 116.984375 221.074219 L 117.398438 220.957031 L 117.808594 220.84375 L 118.222656 220.730469 L 118.632812 220.613281 L 119.046875 220.5 L 119.457031 220.386719 L 119.871094 220.273438 L 120.28125 220.164062 L 120.695312 220.050781 L 121.105469 219.941406 L 121.519531 219.828125 L 121.929688 219.71875 L 122.34375 219.609375 L 122.753906 219.5 L 123.167969 219.390625 L 123.578125 219.28125 L 123.992188 219.171875 L 124.402344 219.066406 L 124.816406 218.960938 L 125.226562 218.851562 L 125.640625 218.746094 L 126.050781 218.640625 L 126.464844 218.535156 L 126.875 218.429688 L 127.289062 218.324219 L 127.699219 218.222656 L 128.109375 218.117188 L 128.523438 218.015625 L 128.933594 217.914062 L 129.347656 217.8125 L 129.757812 217.710938 L 130.171875 217.609375 L 130.582031 217.507812 L 130.996094 217.40625 L 131.40625 217.308594 L 131.820312 217.207031 L 132.230469 217.109375 L 132.644531 217.011719 L 133.054688 216.914062 L 133.46875 216.816406 L 133.878906 216.71875 L 134.292969 216.625 L 134.703125 216.527344 L 135.117188 216.433594 L 135.527344 216.335938 L 135.941406 216.242188 L 136.351562 216.148438 L 136.765625 216.054688 L 137.175781 215.960938 L 137.589844 215.867188 L 138 215.777344 L 138.414062 215.683594 L 138.824219 215.59375 L 139.238281 215.503906 L 139.648438 215.410156 L 140.0625 215.320312 L 140.472656 215.230469 L 140.886719 215.144531 L 141.296875 215.054688 L 141.710938 214.964844 L 142.121094 214.878906 L 142.535156 214.792969 L 142.945312 214.703125 L 143.359375 214.617188 L 143.769531 214.53125 L 144.183594 214.449219 L 144.59375 214.363281 L 145.007812 214.277344 L 145.417969 214.195312 L 145.832031 214.109375 L 146.242188 214.027344 L 146.65625 213.945312 L 147.066406 213.863281 L 147.480469 213.78125 L 147.890625 213.699219 L 148.300781 213.621094 L 148.714844 213.539062 L 149.125 213.460938 L 149.539062 213.382812 L 149.949219 213.300781 L 150.363281 213.222656 L 150.773438 213.144531 L 151.1875 213.070312 L 151.597656 212.992188 L 152.011719 212.914062 L 152.421875 212.839844 L 152.835938 212.761719 L 153.246094 212.6875 L 153.660156 212.613281 L 154.070312 212.539062 L 154.484375 212.464844 L 154.894531 212.390625 L 155.308594 212.320312 L 155.71875 212.246094 L 156.132812 212.175781 L 156.542969 212.105469 L 156.957031 212.035156 L 157.367188 211.960938 L 157.78125 211.894531 L 158.191406 211.824219 L 158.605469 211.753906 L 159.015625 211.6875 L 159.429688 211.617188 L 159.839844 211.550781 L 160.253906 211.484375 L 160.664062 211.414062 L 161.078125 211.347656 L 161.488281 211.285156 L 161.902344 211.21875 L 162.3125 211.152344 L 162.726562 211.089844 L 163.136719 211.023438 L 163.550781 210.960938 L 163.960938 210.898438 L 164.375 210.835938 L 164.785156 210.773438 L 165.199219 210.710938 L 165.609375 210.652344 L 166.023438 210.589844 L 166.433594 210.53125 L 166.847656 210.46875 L 167.257812 210.410156 L 167.671875 210.351562 L 168.492188 210.234375 L 168.90625 210.179688 L 169.316406 210.121094 L 169.730469 210.066406 L 170.140625 210.007812 L 170.554688 209.953125 L 170.964844 209.898438 L 171.378906 209.84375 L 171.789062 209.789062 L 172.203125 209.734375 L 172.613281 209.683594 L 173.027344 209.628906 L 173.4375 209.578125 L 173.851562 209.523438 L 174.261719 209.472656 L 174.675781 209.421875 L 175.085938 209.371094 L 175.5 209.320312 L 175.910156 209.273438 L 176.324219 209.222656 L 176.734375 209.175781 L 177.148438 209.125 L 177.558594 209.078125 L 177.972656 209.03125 L 178.382812 208.984375 L 178.796875 208.9375 L 179.207031 208.894531 L 179.621094 208.847656 L 180.03125 208.800781 L 180.445312 208.757812 L 180.855469 208.714844 L 181.269531 208.671875 L 181.679688 208.628906 L 182.09375 208.585938 L 182.503906 208.542969 L 182.917969 208.5 L 183.328125 208.460938 L 183.742188 208.417969 L 184.152344 208.378906 L 184.566406 208.339844 L 184.976562 208.300781 L 185.390625 208.261719 L 185.800781 208.222656 L 186.214844 208.183594 L 186.625 208.144531 L 187.039062 208.109375 L 187.449219 208.074219 L 187.863281 208.035156 L 188.683594 207.964844 L 189.097656 207.929688 L 189.507812 207.898438 L 189.921875 207.863281 L 190.332031 207.828125 L 190.746094 207.796875 L 191.15625 207.765625 L 191.570312 207.734375 L 191.980469 207.699219 L 192.394531 207.671875 L 192.804688 207.640625 L 193.21875 207.609375 L 193.628906 207.578125 L 194.042969 207.550781 L 194.453125 207.523438 L 194.867188 207.492188 L 195.277344 207.464844 L 195.691406 207.4375 L 196.101562 207.410156 L 196.515625 207.386719 L 196.925781 207.359375 L 197.339844 207.335938 L 197.75 207.308594 L 198.164062 207.285156 L 198.574219 207.261719 L 198.988281 207.238281 L 199.398438 207.214844 L 199.8125 207.191406 L 200.222656 207.167969 L 200.636719 207.148438 L 201.046875 207.125 L 201.460938 207.105469 L 201.871094 207.085938 L 202.285156 207.066406 L 202.695312 207.046875 L 203.109375 207.027344 L 203.519531 207.007812 L 203.933594 206.988281 L 204.34375 206.972656 L 204.757812 206.957031 L 205.167969 206.9375 L 205.582031 206.921875 L 205.992188 206.90625 L 206.40625 206.890625 L 206.816406 206.878906 L 207.230469 206.863281 L 207.640625 206.847656 L 208.054688 206.835938 L 208.464844 206.824219 L 208.875 206.808594 L 209.289062 206.796875 L 209.699219 206.785156 L 210.113281 206.777344 L 210.523438 206.765625 L 210.9375 206.753906 L 211.347656 206.746094 L 211.761719 206.734375 L 212.171875 206.726562 L 212.585938 206.71875 L 212.996094 206.710938 L 213.410156 206.703125 L 213.820312 206.695312 L 214.234375 206.691406 L 214.644531 206.683594 L 215.058594 206.679688 L 215.46875 206.675781 L 215.882812 206.667969 L 216.292969 206.664062 L 216.707031 206.660156 L 217.117188 206.660156 L 217.53125 206.65625 L 217.941406 206.652344 L 218.765625 206.652344 L 219.179688 206.648438 L 220.414062 206.648438 L 220.828125 206.652344 L 221.238281 206.652344 L 221.652344 206.65625 L 222.0625 206.65625 L 222.476562 206.660156 L 222.886719 206.664062 L 223.300781 206.667969 L 223.710938 206.671875 L 224.125 206.675781 L 224.535156 206.679688 L 224.949219 206.6875 L 225.359375 206.691406 L 225.773438 206.699219 L 226.183594 206.707031 L 226.597656 206.714844 L 227.007812 206.722656 L 227.421875 206.730469 L 227.832031 206.738281 L 228.246094 206.75 L 228.65625 206.757812 L 229.066406 206.769531 L 229.480469 206.78125 L 229.890625 206.789062 L 230.304688 206.800781 L 230.714844 206.816406 L 231.128906 206.828125 L 231.539062 206.839844 L 231.953125 206.855469 L 232.363281 206.867188 L 232.777344 206.882812 L 233.1875 206.898438 L 233.601562 206.914062 L 234.011719 206.929688 L 234.425781 206.945312 L 234.835938 206.960938 L 235.25 206.980469 L 235.660156 206.996094 L 236.074219 207.015625 L 236.484375 207.035156 L 236.898438 207.050781 L 237.308594 207.070312 L 237.722656 207.09375 L 238.132812 207.113281 L 238.546875 207.132812 L 238.957031 207.15625 L 239.371094 207.175781 L 239.78125 207.199219 L 240.195312 207.222656 L 240.605469 207.246094 L 241.019531 207.269531 L 241.429688 207.292969 L 241.84375 207.316406 L 242.253906 207.34375 L 242.667969 207.367188 L 243.078125 207.394531 L 243.492188 207.421875 L 243.902344 207.449219 L 244.316406 207.476562 L 244.726562 207.503906 L 245.140625 207.53125 L 245.550781 207.5625 L 245.964844 207.589844 L 246.375 207.621094 L 246.789062 207.652344 L 247.199219 207.679688 L 247.613281 207.710938 L 248.023438 207.742188 L 248.4375 207.777344 L 249.257812 207.839844 L 249.671875 207.875 L 250.082031 207.910156 L 250.496094 207.945312 L 250.90625 207.976562 L 251.320312 208.015625 L 251.730469 208.050781 L 252.144531 208.085938 L 252.554688 208.121094 L 252.96875 208.160156 L 253.378906 208.199219 L 253.792969 208.234375 L 254.203125 208.273438 L 254.617188 208.3125 L 255.027344 208.351562 L 255.441406 208.394531 L 255.851562 208.433594 L 256.265625 208.472656 L 256.675781 208.515625 L 257.089844 208.558594 L 257.5 208.601562 L 257.914062 208.644531 L 258.324219 208.6875 L 258.738281 208.730469 L 259.148438 208.773438 L 259.5625 208.820312 L 259.972656 208.863281 L 260.386719 208.910156 L 260.796875 208.953125 L 261.210938 209 L 261.621094 209.046875 L 262.035156 209.097656 L 262.445312 209.144531 L 262.859375 209.191406 L 263.269531 209.242188 L 263.683594 209.289062 L 264.09375 209.339844 L 264.507812 209.390625 L 264.917969 209.441406 L 265.332031 209.492188 L 265.742188 209.542969 L 266.15625 209.59375 L 266.566406 209.648438 L 266.980469 209.703125 L 267.390625 209.753906 L 267.804688 209.808594 L 268.214844 209.863281 L 268.628906 209.917969 L 269.449219 210.027344 L 269.863281 210.085938 L 270.273438 210.140625 L 270.6875 210.199219 L 271.097656 210.257812 L 271.511719 210.316406 L 271.921875 210.375 L 272.335938 210.433594 "/>
<path fill="none" stroke-width="1.066978" stroke-linecap="butt" stroke-linejoin="round" stroke="rgb(100%, 0%, 0%)" stroke-opacity="1" stroke-miterlimit="10" d="M 272.335938 34.453125 L 272.746094 34.941406 L 273.160156 35.429688 L 273.570312 35.914062 L 273.984375 36.398438 L 274.394531 36.882812 L 274.808594 37.363281 L 275.21875 37.84375 L 275.632812 38.324219 L 276.042969 38.804688 L 276.457031 39.28125 L 276.867188 39.757812 L 277.28125 40.234375 L 277.691406 40.707031 L 278.105469 41.179688 L 278.515625 41.652344 L 278.929688 42.125 L 279.339844 42.59375 L 279.753906 43.0625 L 280.164062 43.53125 L 280.578125 43.996094 L 280.988281 44.460938 L 281.402344 44.925781 L 281.8125 45.386719 L 282.226562 45.851562 L 282.636719 46.3125 L 283.050781 46.769531 L 283.460938 47.230469 L 283.875 47.6875 L 284.285156 48.140625 L 284.699219 48.597656 L 285.109375 49.050781 L 285.523438 49.503906 L 285.933594 49.953125 L 286.347656 50.40625 L 286.757812 50.855469 L 287.171875 51.300781 L 287.582031 51.75 L 287.996094 52.195312 L 288.40625 52.640625 L 288.820312 53.082031 L 289.230469 53.527344 L 289.640625 53.964844 L 290.054688 54.40625 L 290.464844 54.847656 L 290.878906 55.285156 L 291.289062 55.71875 L 291.703125 56.15625 L 292.113281 56.589844 L 292.527344 57.023438 L 292.9375 57.457031 L 293.351562 57.886719 L 293.761719 58.316406 L 294.175781 58.746094 L 294.585938 59.171875 L 295 59.597656 L 295.410156 60.023438 L 295.824219 60.449219 L 296.234375 60.871094 L 296.648438 61.292969 L 297.058594 61.714844 L 297.472656 62.132812 L 297.882812 62.550781 L 298.296875 62.96875 L 298.707031 63.386719 L 299.121094 63.800781 L 299.53125 64.214844 L 299.945312 64.625 L 300.355469 65.039062 L 300.769531 65.449219 L 301.179688 65.859375 L 301.59375 66.265625 L 302.003906 66.671875 L 302.417969 67.078125 L 302.828125 67.484375 L 303.242188 67.886719 L 303.652344 68.289062 L 304.066406 68.691406 L 304.476562 69.089844 L 304.890625 69.492188 L 305.300781 69.886719 L 305.714844 70.285156 L 306.125 70.679688 L 306.539062 71.074219 L 306.949219 71.46875 L 307.363281 71.859375 L 307.773438 72.253906 L 308.1875 72.640625 L 308.597656 73.03125 L 309.011719 73.417969 L 309.832031 74.191406 L 310.246094 74.574219 L 310.65625 74.957031 L 311.070312 75.339844 L 311.480469 75.71875 L 311.894531 76.101562 L 312.304688 76.480469 L 312.71875 76.855469 L 313.128906 77.230469 L 313.542969 77.605469 L 313.953125 77.980469 L 314.367188 78.355469 L 314.777344 78.726562 L 315.191406 79.097656 L 315.601562 79.464844 L 316.015625 79.835938 L 316.425781 80.203125 L 316.839844 80.566406 L 317.25 80.933594 L 317.664062 81.296875 L 318.074219 81.660156 L 318.488281 82.019531 L 318.898438 82.378906 L 319.3125 82.738281 L 319.722656 83.097656 L 320.136719 83.453125 L 320.546875 83.808594 L 320.960938 84.164062 L 321.371094 84.519531 L 321.785156 84.871094 L 322.195312 85.222656 L 322.609375 85.570312 L 323.019531 85.921875 L 323.433594 86.269531 L 323.84375 86.613281 L 324.257812 86.960938 L 324.667969 87.304688 L 325.082031 87.648438 L 325.492188 87.988281 L 325.90625 88.332031 L 326.316406 88.671875 L 326.730469 89.007812 L 327.140625 89.347656 L 327.554688 89.683594 L 327.964844 90.019531 L 328.378906 90.351562 L 328.789062 90.683594 L 329.203125 91.015625 L 329.613281 91.347656 L 330.023438 91.675781 L 330.4375 92.003906 L 330.847656 92.332031 L 331.261719 92.660156 L 331.671875 92.984375 L 332.085938 93.308594 L 332.496094 93.628906 L 332.910156 93.953125 L 333.320312 94.273438 L 333.734375 94.589844 L 334.144531 94.910156 L 334.558594 95.226562 L 334.96875 95.542969 L 335.382812 95.855469 L 335.792969 96.171875 L 336.207031 96.484375 L 336.617188 96.792969 L 337.03125 97.105469 L 337.441406 97.414062 L 337.855469 97.722656 L 338.265625 98.027344 L 338.679688 98.332031 L 339.089844 98.636719 L 339.503906 98.941406 L 339.914062 99.242188 L 340.328125 99.542969 L 340.738281 99.84375 L 341.152344 100.144531 L 341.5625 100.441406 L 341.976562 100.738281 L 342.386719 101.03125 L 342.800781 101.328125 L 343.210938 101.621094 L 343.625 101.910156 L 344.035156 102.203125 L 344.449219 102.492188 L 344.859375 102.78125 L 345.273438 103.066406 L 345.683594 103.355469 L 346.097656 103.640625 L 346.507812 103.921875 L 346.921875 104.207031 L 347.332031 104.488281 L 347.746094 104.769531 L 348.15625 105.046875 L 348.570312 105.324219 L 348.980469 105.601562 L 349.394531 105.878906 L 350.214844 106.425781 L 350.628906 106.699219 L 351.039062 106.972656 L 351.453125 107.242188 L 351.863281 107.511719 L 352.277344 107.777344 L 352.6875 108.042969 L 353.101562 108.3125 L 353.511719 108.574219 L 353.925781 108.839844 L 354.335938 109.101562 L 354.75 109.363281 L 355.160156 109.621094 L 355.574219 109.878906 L 355.984375 110.136719 L 356.398438 110.394531 L 356.808594 110.652344 L 357.222656 110.90625 L 357.632812 111.15625 L 358.046875 111.410156 L 358.457031 111.660156 L 358.871094 111.910156 L 359.28125 112.160156 L 359.695312 112.40625 L 360.105469 112.652344 L 360.519531 112.898438 L 360.929688 113.140625 L 361.34375 113.386719 L 361.753906 113.625 L 362.167969 113.867188 L 362.578125 114.105469 L 362.992188 114.34375 L 363.402344 114.582031 L 363.816406 114.816406 L 364.226562 115.054688 L 364.640625 115.285156 L 365.050781 115.519531 L 365.464844 115.75 L 365.875 115.980469 L 366.289062 116.210938 L 366.699219 116.4375 L 367.113281 116.664062 L 367.523438 116.890625 L 367.9375 117.117188 L 368.347656 117.339844 L 368.761719 117.5625 L 369.171875 117.78125 L 369.585938 118.003906 L 370.40625 118.441406 L 370.820312 118.65625 L 371.230469 118.871094 L 371.644531 119.085938 L 372.054688 119.300781 L 372.46875 119.511719 L 372.878906 119.722656 L 373.292969 119.933594 L 373.703125 120.140625 L 374.117188 120.347656 L 374.527344 120.554688 L 374.941406 120.761719 L 375.351562 120.964844 L 375.765625 121.167969 L 376.175781 121.371094 L 376.589844 121.570312 L 377 121.769531 L 377.414062 121.96875 L 377.824219 122.164062 L 378.238281 122.363281 L 378.648438 122.554688 L 379.0625 122.75 L 379.472656 122.941406 L 379.886719 123.132812 L 380.296875 123.324219 L 380.710938 123.515625 L 381.121094 123.703125 L 381.535156 123.890625 L 381.945312 124.074219 L 382.359375 124.261719 L 382.769531 124.445312 L 383.183594 124.625 L 383.59375 124.808594 L 384.007812 124.988281 L 384.417969 125.167969 L 384.832031 125.34375 L 385.242188 125.523438 L 385.65625 125.695312 L 386.066406 125.871094 L 386.480469 126.046875 L 386.890625 126.21875 L 387.304688 126.386719 L 387.714844 126.558594 L 388.128906 126.726562 L 388.539062 126.894531 L 388.953125 127.0625 L 389.363281 127.226562 L 389.777344 127.390625 L 390.1875 127.554688 L 390.597656 127.714844 L 391.011719 127.875 L 391.421875 128.035156 L 391.835938 128.195312 L 392.246094 128.351562 L 392.660156 128.507812 L 393.070312 128.664062 L 393.484375 128.816406 L 393.894531 128.96875 L 394.308594 129.121094 L 394.71875 129.273438 L 395.132812 129.421875 L 395.542969 129.570312 L 395.957031 129.71875 L 396.367188 129.863281 L 396.78125 130.007812 L 397.191406 130.152344 L 397.605469 130.292969 L 398.015625 130.4375 L 398.429688 130.578125 L 398.839844 130.714844 L 399.253906 130.851562 L 399.664062 130.992188 L 400.078125 131.125 L 400.488281 131.261719 L 400.902344 131.394531 L 401.3125 131.527344 L 401.726562 131.65625 L 402.136719 131.789062 L 402.550781 131.917969 L 402.960938 132.042969 L 403.375 132.171875 L 403.785156 132.296875 L 404.199219 132.421875 L 404.609375 132.542969 L 405.023438 132.664062 L 405.433594 132.785156 L 405.847656 132.90625 L 406.257812 133.023438 L 406.671875 133.144531 L 407.082031 133.257812 L 407.496094 133.375 L 407.90625 133.488281 L 408.320312 133.601562 L 408.730469 133.714844 L 409.144531 133.824219 L 409.554688 133.933594 L 409.96875 134.042969 L 410.789062 134.253906 L 411.203125 134.359375 L 411.613281 134.464844 L 412.027344 134.566406 L 412.4375 134.667969 L 412.851562 134.769531 L 413.261719 134.867188 L 413.675781 134.964844 L 414.085938 135.0625 L 414.5 135.160156 L 414.910156 135.253906 L 415.324219 135.347656 L 415.734375 135.4375 L 416.148438 135.53125 L 416.558594 135.621094 L 416.972656 135.710938 L 417.382812 135.796875 L 417.796875 135.882812 L 418.207031 135.96875 L 418.621094 136.054688 L 419.03125 136.136719 L 419.445312 136.21875 L 419.855469 136.300781 L 420.269531 136.378906 L 420.679688 136.460938 L 421.09375 136.535156 L 421.503906 136.613281 L 421.917969 136.6875 L 422.328125 136.761719 L 422.742188 136.835938 L 423.152344 136.90625 L 423.566406 136.980469 L 423.976562 137.046875 L 424.390625 137.117188 L 424.800781 137.183594 L 425.214844 137.25 L 425.625 137.316406 L 426.039062 137.378906 L 426.449219 137.441406 L 426.863281 137.503906 L 427.273438 137.5625 L 427.6875 137.625 L 428.097656 137.683594 L 428.511719 137.738281 L 428.921875 137.792969 L 429.335938 137.847656 L 429.746094 137.902344 L 430.160156 137.957031 L 430.980469 138.058594 L 431.394531 138.105469 L 431.804688 138.15625 L 432.21875 138.199219 L 432.628906 138.246094 L 433.042969 138.292969 L 433.453125 138.335938 L 433.867188 138.378906 L 434.277344 138.417969 L 434.691406 138.457031 L 435.101562 138.496094 L 435.515625 138.535156 L 435.925781 138.570312 L 436.339844 138.605469 L 436.75 138.640625 L 437.164062 138.675781 L 437.574219 138.707031 L 437.988281 138.738281 L 438.398438 138.765625 L 438.8125 138.796875 L 439.222656 138.824219 L 439.636719 138.847656 L 440.046875 138.875 L 440.460938 138.898438 L 440.871094 138.921875 L 441.285156 138.941406 L 441.695312 138.964844 L 442.109375 138.984375 L 442.519531 139 L 442.933594 139.019531 L 443.34375 139.035156 L 443.757812 139.050781 L 444.167969 139.0625 L 444.582031 139.074219 L 444.992188 139.085938 L 445.40625 139.097656 L 445.816406 139.105469 L 446.230469 139.113281 L 446.640625 139.121094 L 447.054688 139.128906 L 447.464844 139.132812 L 447.878906 139.136719 L 448.289062 139.136719 L 448.703125 139.140625 L 449.113281 139.140625 L 449.527344 139.136719 L 449.9375 139.136719 L 450.351562 139.132812 L 450.761719 139.128906 L 451.171875 139.121094 L 451.585938 139.117188 L 451.996094 139.109375 L 452.410156 139.097656 L 452.820312 139.089844 L 453.234375 139.078125 L 453.644531 139.066406 L 454.058594 139.050781 L 454.46875 139.035156 L 454.882812 139.019531 L 455.292969 139.003906 L 455.707031 138.984375 L 456.117188 138.964844 L 456.53125 138.945312 L 456.941406 138.925781 L 457.355469 138.902344 L 457.765625 138.878906 L 458.179688 138.851562 L 458.589844 138.828125 L 459.003906 138.800781 L 459.414062 138.769531 L 459.828125 138.742188 L 460.238281 138.710938 L 460.652344 138.679688 L 461.0625 138.644531 L 461.476562 138.613281 L 461.886719 138.578125 L 462.300781 138.539062 L 462.710938 138.503906 L 463.125 138.464844 L 463.535156 138.425781 L 463.949219 138.382812 L 464.359375 138.339844 L 464.773438 138.296875 L 465.183594 138.253906 L 465.597656 138.207031 L 466.007812 138.160156 L 466.421875 138.113281 L 466.832031 138.066406 L 467.246094 138.015625 L 467.65625 137.964844 L 468.070312 137.910156 L 468.480469 137.859375 L 468.894531 137.804688 L 469.304688 137.746094 L 469.71875 137.691406 L 470.128906 137.632812 L 470.542969 137.574219 L 470.953125 137.511719 L 471.363281 137.453125 L 471.777344 137.386719 L 472.1875 137.324219 L 472.601562 137.261719 L 473.011719 137.195312 L 473.425781 137.125 L 473.835938 137.058594 L 474.25 136.988281 L 474.660156 136.917969 L 475.074219 136.847656 L 475.484375 136.773438 L 475.898438 136.699219 L 476.308594 136.625 L 476.722656 136.546875 L 477.132812 136.472656 L 477.546875 136.390625 L 477.957031 136.3125 "/>
<g clip-path="url(#clip-20)">
<path fill="none" stroke-width="1.066978" stroke-linecap="butt" stroke-linejoin="round" stroke="rgb(0%, 0%, 0%)" stroke-opacity="1" stroke-miterlimit="10" d="M 272.335938 254.847656 L 272.335938 23.957031 "/>
</g>
<g clip-path="url(#clip-21)">
<path fill="none" stroke-width="1.066978" stroke-linecap="round" stroke-linejoin="round" stroke="rgb(20%, 20%, 20%)" stroke-opacity="1" stroke-miterlimit="10" d="M 46.152344 254.847656 L 498.523438 254.847656 L 498.523438 23.957031 L 46.152344 23.957031 Z M 46.152344 254.847656 "/>
</g>
<g fill="rgb(30.196078%, 30.196078%, 30.196078%)" fill-opacity="1">
<use xlink:href="#glyph-0-1" x="24.21875" y="224.268555"/>
<use xlink:href="#glyph-0-2" x="29.21875" y="224.268555"/>
<use xlink:href="#glyph-0-3" x="34.21875" y="224.268555"/>
<use xlink:href="#glyph-0-4" x="36.21875" y="224.268555"/>
</g>
<g fill="rgb(30.196078%, 30.196078%, 30.196078%)" fill-opacity="1">
<use xlink:href="#glyph-0-1" x="24.21875" y="178.19043"/>
<use xlink:href="#glyph-0-4" x="29.21875" y="178.19043"/>
<use xlink:href="#glyph-0-3" x="34.21875" y="178.19043"/>
<use xlink:href="#glyph-0-5" x="36.21875" y="178.19043"/>
</g>
<g fill="rgb(30.196078%, 30.196078%, 30.196078%)" fill-opacity="1">
<use xlink:href="#glyph-0-1" x="24.21875" y="132.112305"/>
<use xlink:href="#glyph-0-6" x="29.21875" y="132.112305"/>
<use xlink:href="#glyph-0-3" x="34.21875" y="132.112305"/>
<use xlink:href="#glyph-0-4" x="36.21875" y="132.112305"/>
</g>
<g fill="rgb(30.196078%, 30.196078%, 30.196078%)" fill-opacity="1">
<use xlink:href="#glyph-0-7" x="19.21875" y="86.03418"/>
<use xlink:href="#glyph-0-5" x="24.21875" y="86.03418"/>
<use xlink:href="#glyph-0-5" x="29.21875" y="86.03418"/>
<use xlink:href="#glyph-0-3" x="34.21875" y="86.03418"/>
<use xlink:href="#glyph-0-5" x="36.21875" y="86.03418"/>
</g>
<g fill="rgb(30.196078%, 30.196078%, 30.196078%)" fill-opacity="1">
<use xlink:href="#glyph-0-7" x="19.21875" y="39.956055"/>
<use xlink:href="#glyph-0-5" x="24.21875" y="39.956055"/>
<use xlink:href="#glyph-0-2" x="29.21875" y="39.956055"/>
<use xlink:href="#glyph-0-3" x="34.21875" y="39.956055"/>
<use xlink:href="#glyph-0-4" x="36.21875" y="39.956055"/>
</g>
<path fill="none" stroke-width="1.066978" stroke-linecap="butt" stroke-linejoin="round" stroke="rgb(20%, 20%, 20%)" stroke-opacity="1" stroke-miterlimit="10" d="M 43.410156 220.992188 L 46.152344 220.992188 "/>
<path fill="none" stroke-width="1.066978" stroke-linecap="butt" stroke-linejoin="round" stroke="rgb(20%, 20%, 20%)" stroke-opacity="1" stroke-miterlimit="10" d="M 43.410156 174.914062 L 46.152344 174.914062 "/>
<path fill="none" stroke-width="1.066978" stroke-linecap="butt" stroke-linejoin="round" stroke="rgb(20%, 20%, 20%)" stroke-opacity="1" stroke-miterlimit="10" d="M 43.410156 128.835938 L 46.152344 128.835938 "/>
<path fill="none" stroke-width="1.066978" stroke-linecap="butt" stroke-linejoin="round" stroke="rgb(20%, 20%, 20%)" stroke-opacity="1" stroke-miterlimit="10" d="M 43.410156 82.757812 L 46.152344 82.757812 "/>
<path fill="none" stroke-width="1.066978" stroke-linecap="butt" stroke-linejoin="round" stroke="rgb(20%, 20%, 20%)" stroke-opacity="1" stroke-miterlimit="10" d="M 43.410156 36.679688 L 46.152344 36.679688 "/>
<path fill="none" stroke-width="1.066978" stroke-linecap="butt" stroke-linejoin="round" stroke="rgb(20%, 20%, 20%)" stroke-opacity="1" stroke-miterlimit="10" d="M 59.421875 257.589844 L 59.421875 254.847656 "/>
<path fill="none" stroke-width="1.066978" stroke-linecap="butt" stroke-linejoin="round" stroke="rgb(20%, 20%, 20%)" stroke-opacity="1" stroke-miterlimit="10" d="M 165.878906 257.589844 L 165.878906 254.847656 "/>
<path fill="none" stroke-width="1.066978" stroke-linecap="butt" stroke-linejoin="round" stroke="rgb(20%, 20%, 20%)" stroke-opacity="1" stroke-miterlimit="10" d="M 272.335938 257.589844 L 272.335938 254.847656 "/>
<path fill="none" stroke-width="1.066978" stroke-linecap="butt" stroke-linejoin="round" stroke="rgb(20%, 20%, 20%)" stroke-opacity="1" stroke-miterlimit="10" d="M 378.792969 257.589844 L 378.792969 254.847656 "/>
<path fill="none" stroke-width="1.066978" stroke-linecap="butt" stroke-linejoin="round" stroke="rgb(20%, 20%, 20%)" stroke-opacity="1" stroke-miterlimit="10" d="M 485.25 257.589844 L 485.25 254.847656 "/>
<g fill="rgb(30.196078%, 30.196078%, 30.196078%)" fill-opacity="1">
<use xlink:href="#glyph-0-7" x="54.421875" y="266.557617"/>
<use xlink:href="#glyph-0-1" x="59.421875" y="266.557617"/>
</g>
<g fill="rgb(30.196078%, 30.196078%, 30.196078%)" fill-opacity="1">
<use xlink:href="#glyph-0-2" x="160.878906" y="266.557617"/>
<use xlink:href="#glyph-0-5" x="165.878906" y="266.557617"/>
</g>
<g fill="rgb(30.196078%, 30.196078%, 30.196078%)" fill-opacity="1">
<use xlink:href="#glyph-0-2" x="267.335938" y="266.557617"/>
<use xlink:href="#glyph-0-7" x="272.335938" y="266.557617"/>
</g>
<g fill="rgb(30.196078%, 30.196078%, 30.196078%)" fill-opacity="1">
<use xlink:href="#glyph-0-2" x="373.792969" y="266.557617"/>
<use xlink:href="#glyph-0-2" x="378.792969" y="266.557617"/>
</g>
<g fill="rgb(30.196078%, 30.196078%, 30.196078%)" fill-opacity="1">
<use xlink:href="#glyph-0-2" x="480.25" y="266.557617"/>
<use xlink:href="#glyph-0-8" x="485.25" y="266.557617"/>
</g>
<g fill="rgb(0%, 0%, 0%)" fill-opacity="1">
<use xlink:href="#glyph-1-1" x="262.835938" y="278.990234"/>
<use xlink:href="#glyph-1-2" x="269.835938" y="278.990234"/>
<use xlink:href="#glyph-1-3" x="275.835938" y="278.990234"/>
</g>
<g fill="rgb(0%, 0%, 0%)" fill-opacity="1">
<use xlink:href="#glyph-2-1" x="12.951172" y="215.402344"/>
<use xlink:href="#glyph-2-2" x="12.951172" y="210.402344"/>
<use xlink:href="#glyph-2-3" x="12.951172" y="203.402344"/>
<use xlink:href="#glyph-2-4" x="12.951172" y="197.402344"/>
<use xlink:href="#glyph-2-5" x="12.951172" y="191.402344"/>
<use xlink:href="#glyph-2-6" x="12.951172" y="188.402344"/>
<use xlink:href="#glyph-2-7" x="12.951172" y="182.402344"/>
<use xlink:href="#glyph-2-5" x="12.951172" y="176.402344"/>
<use xlink:href="#glyph-2-8" x="12.951172" y="173.402344"/>
<use xlink:href="#glyph-2-9" x="12.951172" y="164.402344"/>
<use xlink:href="#glyph-2-10" x="12.951172" y="158.402344"/>
<use xlink:href="#glyph-2-11" x="12.951172" y="154.402344"/>
<use xlink:href="#glyph-2-2" x="12.951172" y="151.402344"/>
<use xlink:href="#glyph-2-12" x="12.951172" y="145.402344"/>
<use xlink:href="#glyph-2-13" x="12.951172" y="143.402344"/>
<use xlink:href="#glyph-2-11" x="12.951172" y="141.402344"/>
<use xlink:href="#glyph-2-14" x="12.951172" y="138.402344"/>
<use xlink:href="#glyph-2-5" x="12.951172" y="132.402344"/>
<use xlink:href="#glyph-2-15" x="12.951172" y="129.402344"/>
<use xlink:href="#glyph-2-16" x="12.951172" y="125.402344"/>
<use xlink:href="#glyph-2-2" x="12.951172" y="119.402344"/>
<use xlink:href="#glyph-2-10" x="12.951172" y="113.402344"/>
<use xlink:href="#glyph-2-5" x="12.951172" y="109.402344"/>
<use xlink:href="#glyph-2-17" x="12.951172" y="106.402344"/>
<use xlink:href="#glyph-2-18" x="12.951172" y="100.402344"/>
<use xlink:href="#glyph-2-18" x="12.951172" y="94.402344"/>
<use xlink:href="#glyph-2-5" x="12.951172" y="88.402344"/>
<use xlink:href="#glyph-2-18" x="12.951172" y="85.402344"/>
<use xlink:href="#glyph-2-18" x="12.951172" y="79.402344"/>
<use xlink:href="#glyph-2-18" x="12.951172" y="73.402344"/>
<use xlink:href="#glyph-2-19" x="12.951172" y="67.402344"/>
</g>
<g fill="rgb(0%, 0%, 0%)" fill-opacity="1">
<use xlink:href="#glyph-3-1" x="46.152344" y="14.644531"/>
<use xlink:href="#glyph-3-2" x="56.152344" y="14.644531"/>
<use xlink:href="#glyph-3-3" x="63.152344" y="14.644531"/>
<use xlink:href="#glyph-3-4" x="70.152344" y="14.644531"/>
<use xlink:href="#glyph-3-5" x="77.152344" y="14.644531"/>
<use xlink:href="#glyph-3-3" x="81.152344" y="14.644531"/>
<use xlink:href="#glyph-3-6" x="88.152344" y="14.644531"/>
<use xlink:href="#glyph-3-7" x="92.152344" y="14.644531"/>
<use xlink:href="#glyph-3-8" x="95.152344" y="14.644531"/>
<use xlink:href="#glyph-3-2" x="102.152344" y="14.644531"/>
<use xlink:href="#glyph-3-9" x="109.152344" y="14.644531"/>
</g>
</svg>
