<?xml version="1.0" encoding="UTF-8"?>
<svg xmlns="http://www.w3.org/2000/svg" xmlns:xlink="http://www.w3.org/1999/xlink" width="864pt" height="288pt" viewBox="0 0 864 288" version="1.1">
<defs>
<clipPath id="clip1">
  <path d="M 0 0 L 288 0 L 288 288 L 0 288 Z M 0 0 "/>
</clipPath>
<clipPath id="clip2">
  <path d="M 22.613281 5.480469 L 282.519531 5.480469 L 282.519531 265.386719 L 22.613281 265.386719 Z M 22.613281 5.480469 "/>
</clipPath>
<clipPath id="clip3">
  <path d="M 288 0 L 576 0 L 576 288 L 288 288 Z M 288 0 "/>
</clipPath>
<clipPath id="clip4">
  <path d="M 310.613281 5.480469 L 570.519531 5.480469 L 570.519531 265.386719 L 310.613281 265.386719 Z M 310.613281 5.480469 "/>
</clipPath>
<clipPath id="clip5">
  <path d="M 576 0 L 864 0 L 864 288 L 576 288 Z M 576 0 "/>
</clipPath>
<clipPath id="clip6">
  <path d="M 598.613281 5.480469 L 858.519531 5.480469 L 858.519531 265.386719 L 598.613281 265.386719 Z M 598.613281 5.480469 "/>
</clipPath>
</defs>
<g id="surface4">
<rect x="0" y="0" width="864" height="288" style="fill:rgb(100%,100%,100%);fill-opacity:1;stroke:none;"/>
<path style=" stroke:none;fill-rule:nonzero;fill:rgb(98.039216%,98.039216%,98.039216%);fill-opacity:1;" d="M 0 288 L 288 288 L 288 0 L 0 0 Z M 0 288 "/>
<g clip-path="url(#clip1)" clip-rule="nonzero">
<path style="fill:none;stroke-width:0.75;stroke-linecap:round;stroke-linejoin:round;stroke:rgb(98.039216%,98.039216%,98.039216%);stroke-opacity:1;stroke-miterlimit:10;" d="M 0 288 L 288 288 L 288 0 L 0 0 Z M 0 288 "/>
</g>
<g clip-path="url(#clip2)" clip-rule="nonzero">
<path style="fill-rule:nonzero;fill:rgb(98.039216%,98.039216%,98.039216%);fill-opacity:1;stroke-width:0.75;stroke-linecap:round;stroke-linejoin:round;stroke:rgb(98.039216%,98.039216%,98.039216%);stroke-opacity:1;stroke-miterlimit:10;" d="M 22.613281 265.386719 L 282.519531 265.386719 L 282.519531 5.480469 L 22.613281 5.480469 Z M 22.613281 265.386719 "/>
</g>
<path style="fill-rule:nonzero;fill:rgb(0%,0%,0%);fill-opacity:1;stroke-width:0.708661;stroke-linecap:round;stroke-linejoin:round;stroke:rgb(0%,0%,0%);stroke-opacity:1;stroke-miterlimit:10;" d="M 154.523438 136.0625 C 154.523438 138.667969 150.613281 138.667969 150.613281 136.0625 C 150.613281 133.457031 154.523438 133.457031 154.523438 136.0625 "/>
<path style="fill-rule:nonzero;fill:rgb(0%,0%,0%);fill-opacity:1;stroke-width:0.708661;stroke-linecap:round;stroke-linejoin:round;stroke:rgb(0%,0%,0%);stroke-opacity:1;stroke-miterlimit:10;" d="M 130.894531 146.933594 C 130.894531 149.539062 126.984375 149.539062 126.984375 146.933594 C 126.984375 144.324219 130.894531 144.324219 130.894531 146.933594 "/>
<path style="fill-rule:nonzero;fill:rgb(0%,0%,0%);fill-opacity:1;stroke-width:0.708661;stroke-linecap:round;stroke-linejoin:round;stroke:rgb(0%,0%,0%);stroke-opacity:1;stroke-miterlimit:10;" d="M 189.964844 52.894531 C 189.964844 55.5 186.054688 55.5 186.054688 52.894531 C 186.054688 50.285156 189.964844 50.285156 189.964844 52.894531 "/>
<path style="fill-rule:nonzero;fill:rgb(0%,0%,0%);fill-opacity:1;stroke-width:0.708661;stroke-linecap:round;stroke-linejoin:round;stroke:rgb(0%,0%,0%);stroke-opacity:1;stroke-miterlimit:10;" d="M 142.707031 141.578125 C 142.707031 144.183594 138.796875 144.183594 138.796875 141.578125 C 138.796875 138.96875 142.707031 138.96875 142.707031 141.578125 "/>
<path style="fill-rule:nonzero;fill:rgb(0%,0%,0%);fill-opacity:1;stroke-width:0.708661;stroke-linecap:round;stroke-linejoin:round;stroke:rgb(0%,0%,0%);stroke-opacity:1;stroke-miterlimit:10;" d="M 166.335938 130.550781 C 166.335938 133.15625 162.425781 133.15625 162.425781 130.550781 C 162.425781 127.945312 166.335938 127.945312 166.335938 130.550781 "/>
<path style="fill-rule:nonzero;fill:rgb(0%,0%,0%);fill-opacity:1;stroke-width:0.708661;stroke-linecap:round;stroke-linejoin:round;stroke:rgb(0%,0%,0%);stroke-opacity:1;stroke-miterlimit:10;" d="M 201.777344 114.324219 C 201.777344 116.933594 197.867188 116.933594 197.867188 114.324219 C 197.867188 111.71875 201.777344 111.71875 201.777344 114.324219 "/>
<path style="fill-rule:nonzero;fill:rgb(0%,0%,0%);fill-opacity:1;stroke-width:0.708661;stroke-linecap:round;stroke-linejoin:round;stroke:rgb(0%,0%,0%);stroke-opacity:1;stroke-miterlimit:10;" d="M 107.265625 157.800781 C 107.265625 160.40625 103.355469 160.40625 103.355469 157.800781 C 103.355469 155.195312 107.265625 155.195312 107.265625 157.800781 "/>
<path style="fill-rule:nonzero;fill:rgb(0%,0%,0%);fill-opacity:1;stroke-width:0.708661;stroke-linecap:round;stroke-linejoin:round;stroke:rgb(0%,0%,0%);stroke-opacity:1;stroke-miterlimit:10;" d="M 83.636719 168.667969 C 83.636719 171.277344 79.726562 171.277344 79.726562 168.667969 C 79.726562 166.0625 83.636719 166.0625 83.636719 168.667969 "/>
<path style="fill-rule:nonzero;fill:rgb(0%,0%,0%);fill-opacity:1;stroke-width:0.708661;stroke-linecap:round;stroke-linejoin:round;stroke:rgb(0%,0%,0%);stroke-opacity:1;stroke-miterlimit:10;" d="M 178.148438 125.195312 C 178.148438 127.800781 174.238281 127.800781 174.238281 125.195312 C 174.238281 122.589844 178.148438 122.589844 178.148438 125.195312 "/>
<path style="fill-rule:nonzero;fill:rgb(0%,0%,0%);fill-opacity:1;stroke-width:0.708661;stroke-linecap:round;stroke-linejoin:round;stroke:rgb(0%,0%,0%);stroke-opacity:1;stroke-miterlimit:10;" d="M 119.078125 152.445312 C 119.078125 155.050781 115.171875 155.050781 115.171875 152.445312 C 115.171875 149.839844 119.078125 149.839844 119.078125 152.445312 "/>
<path style="fill-rule:nonzero;fill:rgb(0%,0%,0%);fill-opacity:1;stroke-width:0.708661;stroke-linecap:round;stroke-linejoin:round;stroke:rgb(0%,0%,0%);stroke-opacity:1;stroke-miterlimit:10;" d="M 95.453125 163.3125 C 95.453125 165.921875 91.542969 165.921875 91.542969 163.3125 C 91.542969 160.707031 95.453125 160.707031 95.453125 163.3125 "/>
<path style="fill:none;stroke-width:1.066978;stroke-linecap:butt;stroke-linejoin:round;stroke:rgb(86.666667%,2.745098%,27.843137%);stroke-opacity:1;stroke-miterlimit:10;" d="M 34.425781 206.277344 L 40.410156 202.292969 L 43.398438 200.300781 L 46.390625 198.308594 L 49.382812 196.3125 L 52.371094 194.320312 L 58.355469 190.335938 L 61.34375 188.34375 L 64.335938 186.351562 L 67.328125 184.355469 L 70.316406 182.363281 L 76.300781 178.378906 L 79.289062 176.386719 L 82.28125 174.394531 L 85.273438 172.398438 L 88.261719 170.40625 L 94.246094 166.421875 L 97.234375 164.429688 L 100.226562 162.4375 L 103.21875 160.441406 L 106.207031 158.449219 L 112.191406 154.464844 L 115.179688 152.472656 L 118.171875 150.480469 L 121.164062 148.484375 L 124.152344 146.492188 L 130.136719 142.507812 L 133.125 140.515625 L 136.117188 138.523438 L 139.109375 136.527344 L 142.097656 134.535156 L 148.082031 130.550781 L 151.070312 128.558594 L 154.0625 126.566406 L 157.054688 124.570312 L 160.042969 122.578125 L 166.027344 118.59375 L 169.015625 116.601562 L 172.007812 114.609375 L 175 112.613281 L 177.988281 110.621094 L 183.972656 106.636719 L 186.960938 104.644531 L 192.945312 100.660156 L 195.933594 98.664062 L 201.917969 94.679688 L 204.90625 92.6875 L 210.890625 88.703125 L 213.878906 86.707031 L 219.863281 82.722656 L 222.851562 80.730469 L 228.835938 76.746094 L 231.824219 74.75 L 237.808594 70.765625 L 240.796875 68.773438 L 246.78125 64.789062 L 249.769531 62.792969 L 255.753906 58.808594 L 258.742188 56.816406 L 264.726562 52.832031 L 267.714844 50.835938 L 270.707031 48.84375 "/>
<path style="fill:none;stroke-width:0.75;stroke-linecap:round;stroke-linejoin:round;stroke:rgb(0%,0%,0%);stroke-opacity:1;stroke-miterlimit:10;" d="M 22.613281 265.386719 L 22.613281 5.480469 "/>
<path style="fill:none;stroke-width:0.75;stroke-linecap:round;stroke-linejoin:round;stroke:rgb(0%,0%,0%);stroke-opacity:1;stroke-miterlimit:10;" d="M 22.613281 265.386719 L 282.519531 265.386719 "/>
<path style=" stroke:none;fill-rule:nonzero;fill:rgb(98.039216%,98.039216%,98.039216%);fill-opacity:1;" d="M 288 288 L 576 288 L 576 0 L 288 0 Z M 288 288 "/>
<g clip-path="url(#clip3)" clip-rule="nonzero">
<path style="fill:none;stroke-width:0.75;stroke-linecap:round;stroke-linejoin:round;stroke:rgb(98.039216%,98.039216%,98.039216%);stroke-opacity:1;stroke-miterlimit:10;" d="M 288 288 L 576 288 L 576 0 L 288 0 Z M 288 288 "/>
</g>
<g clip-path="url(#clip4)" clip-rule="nonzero">
<path style="fill-rule:nonzero;fill:rgb(98.039216%,98.039216%,98.039216%);fill-opacity:1;stroke-width:0.75;stroke-linecap:round;stroke-linejoin:round;stroke:rgb(98.039216%,98.039216%,98.039216%);stroke-opacity:1;stroke-miterlimit:10;" d="M 310.613281 265.386719 L 570.519531 265.386719 L 570.519531 5.480469 L 310.613281 5.480469 Z M 310.613281 265.386719 "/>
</g>
<path style="fill-rule:nonzero;fill:rgb(0%,0%,0%);fill-opacity:1;stroke-width:0.708661;stroke-linecap:round;stroke-linejoin:round;stroke:rgb(0%,0%,0%);stroke-opacity:1;stroke-miterlimit:10;" d="M 418.894531 149.925781 C 418.894531 152.53125 414.984375 152.53125 414.984375 149.925781 C 414.984375 147.320312 418.894531 147.320312 418.894531 149.925781 "/>
<path style="fill-rule:nonzero;fill:rgb(0%,0%,0%);fill-opacity:1;stroke-width:0.708661;stroke-linecap:round;stroke-linejoin:round;stroke:rgb(0%,0%,0%);stroke-opacity:1;stroke-miterlimit:10;" d="M 418.894531 162.839844 C 418.894531 165.449219 414.984375 165.449219 414.984375 162.839844 C 414.984375 160.234375 418.894531 160.234375 418.894531 162.839844 "/>
<path style="fill-rule:nonzero;fill:rgb(0%,0%,0%);fill-opacity:1;stroke-width:0.708661;stroke-linecap:round;stroke-linejoin:round;stroke:rgb(0%,0%,0%);stroke-opacity:1;stroke-miterlimit:10;" d="M 418.894531 132.125 C 418.894531 134.730469 414.984375 134.730469 414.984375 132.125 C 414.984375 129.519531 418.894531 129.519531 418.894531 132.125 "/>
<path style="fill-rule:nonzero;fill:rgb(0%,0%,0%);fill-opacity:1;stroke-width:0.708661;stroke-linecap:round;stroke-linejoin:round;stroke:rgb(0%,0%,0%);stroke-opacity:1;stroke-miterlimit:10;" d="M 418.894531 114.324219 C 418.894531 116.933594 414.984375 116.933594 414.984375 114.324219 C 414.984375 111.71875 418.894531 111.71875 418.894531 114.324219 "/>
<path style="fill-rule:nonzero;fill:rgb(0%,0%,0%);fill-opacity:1;stroke-width:0.708661;stroke-linecap:round;stroke-linejoin:round;stroke:rgb(0%,0%,0%);stroke-opacity:1;stroke-miterlimit:10;" d="M 418.894531 120.152344 C 418.894531 122.761719 414.984375 122.761719 414.984375 120.152344 C 414.984375 117.546875 418.894531 117.546875 418.894531 120.152344 "/>
<path style="fill-rule:nonzero;fill:rgb(0%,0%,0%);fill-opacity:1;stroke-width:0.708661;stroke-linecap:round;stroke-linejoin:round;stroke:rgb(0%,0%,0%);stroke-opacity:1;stroke-miterlimit:10;" d="M 418.894531 142.679688 C 418.894531 145.285156 414.984375 145.285156 414.984375 142.679688 C 414.984375 140.074219 418.894531 140.074219 418.894531 142.679688 "/>
<path style="fill-rule:nonzero;fill:rgb(0%,0%,0%);fill-opacity:1;stroke-width:0.708661;stroke-linecap:round;stroke-linejoin:round;stroke:rgb(0%,0%,0%);stroke-opacity:1;stroke-miterlimit:10;" d="M 418.894531 170.875 C 418.894531 173.480469 414.984375 173.480469 414.984375 170.875 C 414.984375 168.269531 418.894531 168.269531 418.894531 170.875 "/>
<path style="fill-rule:nonzero;fill:rgb(0%,0%,0%);fill-opacity:1;stroke-width:0.708661;stroke-linecap:round;stroke-linejoin:round;stroke:rgb(0%,0%,0%);stroke-opacity:1;stroke-miterlimit:10;" d="M 548.847656 56.671875 C 548.847656 59.28125 544.9375 59.28125 544.9375 56.671875 C 544.9375 54.066406 548.847656 54.066406 548.847656 56.671875 "/>
<path style="fill-rule:nonzero;fill:rgb(0%,0%,0%);fill-opacity:1;stroke-width:0.708661;stroke-linecap:round;stroke-linejoin:round;stroke:rgb(0%,0%,0%);stroke-opacity:1;stroke-miterlimit:10;" d="M 418.894531 165.992188 C 418.894531 168.597656 414.984375 168.597656 414.984375 165.992188 C 414.984375 163.386719 418.894531 163.386719 418.894531 165.992188 "/>
<path style="fill-rule:nonzero;fill:rgb(0%,0%,0%);fill-opacity:1;stroke-width:0.708661;stroke-linecap:round;stroke-linejoin:round;stroke:rgb(0%,0%,0%);stroke-opacity:1;stroke-miterlimit:10;" d="M 418.894531 128.976562 C 418.894531 131.582031 414.984375 131.582031 414.984375 128.976562 C 414.984375 126.367188 418.894531 126.367188 418.894531 128.976562 "/>
<path style="fill-rule:nonzero;fill:rgb(0%,0%,0%);fill-opacity:1;stroke-width:0.708661;stroke-linecap:round;stroke-linejoin:round;stroke:rgb(0%,0%,0%);stroke-opacity:1;stroke-miterlimit:10;" d="M 418.894531 145.042969 C 418.894531 147.648438 414.984375 147.648438 414.984375 145.042969 C 414.984375 142.433594 418.894531 142.433594 418.894531 145.042969 "/>
<path style="fill:none;stroke-width:1.066978;stroke-linecap:butt;stroke-linejoin:round;stroke:rgb(86.666667%,2.745098%,27.843137%);stroke-opacity:1;stroke-miterlimit:10;" d="M 322.425781 206.289062 L 325.417969 204.296875 L 328.410156 202.300781 L 331.398438 200.308594 L 334.390625 198.316406 L 337.382812 196.320312 L 340.371094 194.328125 L 343.363281 192.335938 L 346.355469 190.339844 L 349.34375 188.347656 L 352.335938 186.355469 L 355.328125 184.359375 L 358.316406 182.367188 L 361.308594 180.375 L 364.300781 178.378906 L 367.289062 176.386719 L 370.28125 174.394531 L 373.273438 172.398438 L 376.261719 170.40625 L 379.253906 168.414062 L 382.246094 166.417969 L 385.234375 164.425781 L 388.226562 162.429688 L 391.21875 160.4375 L 394.207031 158.445312 L 397.199219 156.449219 L 400.191406 154.457031 L 403.179688 152.464844 L 406.171875 150.46875 L 409.164062 148.476562 L 412.152344 146.484375 L 415.144531 144.488281 L 418.136719 142.496094 L 421.125 140.503906 L 424.117188 138.507812 L 427.109375 136.515625 L 430.097656 134.523438 L 433.089844 132.527344 L 436.082031 130.535156 L 439.070312 128.542969 L 442.0625 126.546875 L 445.054688 124.554688 L 448.042969 122.558594 L 454.027344 118.574219 L 457.015625 116.578125 L 463 112.59375 L 465.988281 110.597656 L 471.972656 106.613281 L 474.960938 104.617188 L 480.945312 100.632812 L 483.933594 98.636719 L 489.917969 94.652344 L 492.90625 92.65625 L 495.898438 90.664062 L 498.890625 88.667969 L 501.878906 86.675781 L 504.871094 84.683594 L 507.863281 82.6875 L 510.851562 80.695312 L 513.84375 78.703125 L 516.835938 76.707031 L 519.824219 74.714844 L 522.816406 72.722656 L 525.808594 70.726562 L 528.796875 68.734375 L 531.789062 66.742188 L 534.78125 64.746094 L 537.769531 62.753906 L 540.761719 60.761719 L 543.753906 58.765625 L 546.742188 56.773438 L 549.734375 54.78125 L 552.726562 52.785156 L 555.714844 50.792969 L 558.707031 48.796875 "/>
<path style="fill:none;stroke-width:0.75;stroke-linecap:round;stroke-linejoin:round;stroke:rgb(0%,0%,0%);stroke-opacity:1;stroke-miterlimit:10;" d="M 310.613281 265.386719 L 310.613281 5.480469 "/>
<path style="fill:none;stroke-width:0.75;stroke-linecap:round;stroke-linejoin:round;stroke:rgb(0%,0%,0%);stroke-opacity:1;stroke-miterlimit:10;" d="M 310.613281 265.386719 L 570.519531 265.386719 "/>
<path style=" stroke:none;fill-rule:nonzero;fill:rgb(98.039216%,98.039216%,98.039216%);fill-opacity:1;" d="M 576 288 L 864 288 L 864 0 L 576 0 Z M 576 288 "/>
<g clip-path="url(#clip5)" clip-rule="nonzero">
<path style="fill:none;stroke-width:0.75;stroke-linecap:round;stroke-linejoin:round;stroke:rgb(98.039216%,98.039216%,98.039216%);stroke-opacity:1;stroke-miterlimit:10;" d="M 576 288 L 864 288 L 864 0 L 576 0 Z M 576 288 "/>
</g>
<g clip-path="url(#clip6)" clip-rule="nonzero">
<path style="fill-rule:nonzero;fill:rgb(98.039216%,98.039216%,98.039216%);fill-opacity:1;stroke-width:0.75;stroke-linecap:round;stroke-linejoin:round;stroke:rgb(98.039216%,98.039216%,98.039216%);stroke-opacity:1;stroke-miterlimit:10;" d="M 598.613281 265.386719 L 858.519531 265.386719 L 858.519531 5.480469 L 598.613281 5.480469 Z M 598.613281 265.386719 "/>
</g>
<path style="fill-rule:nonzero;fill:rgb(0%,0%,0%);fill-opacity:0.8;stroke-width:0.708661;stroke-linecap:round;stroke-linejoin:round;stroke:rgb(0%,0%,0%);stroke-opacity:0.8;stroke-miterlimit:10;" d="M 673.210938 229.832031 C 673.210938 234.570312 666.101562 234.570312 666.101562 229.832031 C 666.101562 225.089844 673.210938 225.089844 673.210938 229.832031 "/>
<path style="fill-rule:nonzero;fill:rgb(0%,0%,0%);fill-opacity:0.8;stroke-width:0.708661;stroke-linecap:round;stroke-linejoin:round;stroke:rgb(0%,0%,0%);stroke-opacity:0.8;stroke-miterlimit:10;" d="M 684.398438 222.402344 C 684.398438 227.144531 677.289062 227.144531 677.289062 222.402344 C 677.289062 217.664062 684.398438 217.664062 684.398438 222.402344 "/>
<path style="fill-rule:nonzero;fill:rgb(0%,0%,0%);fill-opacity:0.8;stroke-width:0.708661;stroke-linecap:round;stroke-linejoin:round;stroke:rgb(0%,0%,0%);stroke-opacity:0.8;stroke-miterlimit:10;" d="M 744.992188 214.632812 C 744.992188 219.371094 737.882812 219.371094 737.882812 214.632812 C 737.882812 209.890625 744.992188 209.890625 744.992188 214.632812 "/>
<path style="fill-rule:nonzero;fill:rgb(0%,0%,0%);fill-opacity:0.8;stroke-width:0.708661;stroke-linecap:round;stroke-linejoin:round;stroke:rgb(0%,0%,0%);stroke-opacity:0.8;stroke-miterlimit:10;" d="M 694.585938 224.035156 C 694.585938 228.773438 687.472656 228.773438 687.472656 224.035156 C 687.472656 219.292969 694.585938 219.292969 694.585938 224.035156 "/>
<path style="fill-rule:nonzero;fill:rgb(0%,0%,0%);fill-opacity:0.8;stroke-width:0.708661;stroke-linecap:round;stroke-linejoin:round;stroke:rgb(0%,0%,0%);stroke-opacity:0.8;stroke-miterlimit:10;" d="M 696.574219 227.101562 C 696.574219 231.839844 689.464844 231.839844 689.464844 227.101562 C 689.464844 222.359375 696.574219 222.359375 696.574219 227.101562 "/>
<path style="fill-rule:nonzero;fill:rgb(0%,0%,0%);fill-opacity:0.8;stroke-width:0.708661;stroke-linecap:round;stroke-linejoin:round;stroke:rgb(0%,0%,0%);stroke-opacity:0.8;stroke-miterlimit:10;" d="M 750.289062 212.5625 C 750.289062 217.304688 743.175781 217.304688 743.175781 212.5625 C 743.175781 207.824219 750.289062 207.824219 750.289062 212.5625 "/>
<path style="fill-rule:nonzero;fill:rgb(0%,0%,0%);fill-opacity:0.8;stroke-width:0.708661;stroke-linecap:round;stroke-linejoin:round;stroke:rgb(0%,0%,0%);stroke-opacity:0.8;stroke-miterlimit:10;" d="M 707.808594 224.191406 C 707.808594 228.929688 700.699219 228.929688 700.699219 224.191406 C 700.699219 219.449219 707.808594 219.449219 707.808594 224.191406 "/>
<path style="fill-rule:nonzero;fill:rgb(0%,0%,0%);fill-opacity:0.8;stroke-width:0.708661;stroke-linecap:round;stroke-linejoin:round;stroke:rgb(0%,0%,0%);stroke-opacity:0.8;stroke-miterlimit:10;" d="M 649.347656 239.425781 C 649.347656 244.167969 642.238281 244.167969 642.238281 239.425781 C 642.238281 234.683594 649.347656 234.683594 649.347656 239.425781 "/>
<path style="fill-rule:nonzero;fill:rgb(0%,0%,0%);fill-opacity:0.8;stroke-width:0.708661;stroke-linecap:round;stroke-linejoin:round;stroke:rgb(0%,0%,0%);stroke-opacity:0.8;stroke-miterlimit:10;" d="M 668.933594 228.714844 C 668.933594 233.453125 661.820312 233.453125 661.820312 228.714844 C 661.820312 223.972656 668.933594 223.972656 668.933594 228.714844 "/>
<path style="fill-rule:nonzero;fill:rgb(0%,0%,0%);fill-opacity:0.8;stroke-width:0.708661;stroke-linecap:round;stroke-linejoin:round;stroke:rgb(0%,0%,0%);stroke-opacity:0.8;stroke-miterlimit:10;" d="M 677.101562 219.9375 C 677.101562 224.679688 669.992188 224.679688 669.992188 219.9375 C 669.992188 215.199219 677.101562 215.199219 677.101562 219.9375 "/>
<path style="fill-rule:nonzero;fill:rgb(0%,0%,0%);fill-opacity:0.8;stroke-width:0.708661;stroke-linecap:round;stroke-linejoin:round;stroke:rgb(0%,0%,0%);stroke-opacity:0.8;stroke-miterlimit:10;" d="M 733.65625 218.476562 C 733.65625 223.214844 726.546875 223.214844 726.546875 218.476562 C 726.546875 213.734375 733.65625 213.734375 733.65625 218.476562 "/>
<path style="fill-rule:nonzero;fill:rgb(0%,0%,0%);fill-opacity:0.8;stroke-width:0.708661;stroke-linecap:round;stroke-linejoin:round;stroke:rgb(0%,0%,0%);stroke-opacity:0.8;stroke-miterlimit:10;" d="M 704.382812 216.917969 C 704.382812 221.65625 697.273438 221.65625 697.273438 216.917969 C 697.273438 212.175781 704.382812 212.175781 704.382812 216.917969 "/>
<path style="fill-rule:nonzero;fill:rgb(0%,0%,0%);fill-opacity:0.8;stroke-width:0.708661;stroke-linecap:round;stroke-linejoin:round;stroke:rgb(0%,0%,0%);stroke-opacity:0.8;stroke-miterlimit:10;" d="M 705.769531 229.253906 C 705.769531 233.996094 698.660156 233.996094 698.660156 229.253906 C 698.660156 224.515625 705.769531 224.515625 705.769531 229.253906 "/>
<path style="fill-rule:nonzero;fill:rgb(0%,0%,0%);fill-opacity:0.8;stroke-width:0.708661;stroke-linecap:round;stroke-linejoin:round;stroke:rgb(0%,0%,0%);stroke-opacity:0.8;stroke-miterlimit:10;" d="M 695.945312 222.144531 C 695.945312 226.886719 688.835938 226.886719 688.835938 222.144531 C 688.835938 217.40625 695.945312 217.40625 695.945312 222.144531 "/>
<path style="fill-rule:nonzero;fill:rgb(0%,0%,0%);fill-opacity:0.8;stroke-width:0.708661;stroke-linecap:round;stroke-linejoin:round;stroke:rgb(0%,0%,0%);stroke-opacity:0.8;stroke-miterlimit:10;" d="M 673.371094 222.851562 C 673.371094 227.59375 666.257812 227.59375 666.257812 222.851562 C 666.257812 218.109375 673.371094 218.109375 673.371094 222.851562 "/>
<path style="fill-rule:nonzero;fill:rgb(0%,0%,0%);fill-opacity:0.8;stroke-width:0.708661;stroke-linecap:round;stroke-linejoin:round;stroke:rgb(0%,0%,0%);stroke-opacity:0.8;stroke-miterlimit:10;" d="M 752.722656 210.179688 C 752.722656 214.921875 745.609375 214.921875 745.609375 210.179688 C 745.609375 205.441406 752.722656 205.441406 752.722656 210.179688 "/>
<path style="fill-rule:nonzero;fill:rgb(0%,0%,0%);fill-opacity:0.8;stroke-width:0.708661;stroke-linecap:round;stroke-linejoin:round;stroke:rgb(0%,0%,0%);stroke-opacity:0.8;stroke-miterlimit:10;" d="M 709.058594 218.9375 C 709.058594 223.675781 701.949219 223.675781 701.949219 218.9375 C 701.949219 214.195312 709.058594 214.195312 709.058594 218.9375 "/>
<path style="fill-rule:nonzero;fill:rgb(0%,0%,0%);fill-opacity:0.8;stroke-width:0.708661;stroke-linecap:round;stroke-linejoin:round;stroke:rgb(0%,0%,0%);stroke-opacity:0.8;stroke-miterlimit:10;" d="M 625.585938 237.78125 C 625.585938 242.523438 618.472656 242.523438 618.472656 237.78125 C 618.472656 233.042969 625.585938 233.042969 625.585938 237.78125 "/>
<path style="fill-rule:nonzero;fill:rgb(0%,0%,0%);fill-opacity:0.8;stroke-width:0.708661;stroke-linecap:round;stroke-linejoin:round;stroke:rgb(0%,0%,0%);stroke-opacity:0.8;stroke-miterlimit:10;" d="M 715.953125 223.128906 C 715.953125 227.871094 708.839844 227.871094 708.839844 223.128906 C 708.839844 218.386719 715.953125 218.386719 715.953125 223.128906 "/>
<path style="fill-rule:nonzero;fill:rgb(0%,0%,0%);fill-opacity:0.8;stroke-width:0.708661;stroke-linecap:round;stroke-linejoin:round;stroke:rgb(0%,0%,0%);stroke-opacity:0.8;stroke-miterlimit:10;" d="M 676.183594 231.082031 C 676.183594 235.824219 669.070312 235.824219 669.070312 231.082031 C 669.070312 226.34375 676.183594 226.34375 676.183594 231.082031 "/>
<path style="fill-rule:nonzero;fill:rgb(0%,0%,0%);fill-opacity:0.8;stroke-width:0.708661;stroke-linecap:round;stroke-linejoin:round;stroke:rgb(0%,0%,0%);stroke-opacity:0.8;stroke-miterlimit:10;" d="M 656.027344 228.160156 C 656.027344 232.902344 648.917969 232.902344 648.917969 228.160156 C 648.917969 223.421875 656.027344 223.421875 656.027344 228.160156 "/>
<path style="fill-rule:nonzero;fill:rgb(0%,0%,0%);fill-opacity:0.8;stroke-width:0.708661;stroke-linecap:round;stroke-linejoin:round;stroke:rgb(0%,0%,0%);stroke-opacity:0.8;stroke-miterlimit:10;" d="M 684.8125 229.136719 C 684.8125 233.878906 677.703125 233.878906 677.703125 229.136719 C 677.703125 224.398438 684.8125 224.398438 684.8125 229.136719 "/>
<path style="fill-rule:nonzero;fill:rgb(0%,0%,0%);fill-opacity:0.8;stroke-width:0.708661;stroke-linecap:round;stroke-linejoin:round;stroke:rgb(0%,0%,0%);stroke-opacity:0.8;stroke-miterlimit:10;" d="M 657.445312 231.351562 C 657.445312 236.089844 650.335938 236.089844 650.335938 231.351562 C 650.335938 226.609375 657.445312 226.609375 657.445312 231.351562 "/>
<path style="fill-rule:nonzero;fill:rgb(0%,0%,0%);fill-opacity:0.8;stroke-width:0.708661;stroke-linecap:round;stroke-linejoin:round;stroke:rgb(0%,0%,0%);stroke-opacity:0.8;stroke-miterlimit:10;" d="M 667.507812 228.261719 C 667.507812 233.003906 660.398438 233.003906 660.398438 228.261719 C 660.398438 223.523438 667.507812 223.523438 667.507812 228.261719 "/>
<path style="fill-rule:nonzero;fill:rgb(0%,0%,0%);fill-opacity:0.8;stroke-width:0.708661;stroke-linecap:round;stroke-linejoin:round;stroke:rgb(0%,0%,0%);stroke-opacity:0.8;stroke-miterlimit:10;" d="M 671.027344 215.777344 C 671.027344 220.515625 663.914062 220.515625 663.914062 215.777344 C 663.914062 211.035156 671.027344 211.035156 671.027344 215.777344 "/>
<path style="fill-rule:nonzero;fill:rgb(0%,0%,0%);fill-opacity:0.8;stroke-width:0.708661;stroke-linecap:round;stroke-linejoin:round;stroke:rgb(0%,0%,0%);stroke-opacity:0.8;stroke-miterlimit:10;" d="M 635.066406 236.183594 C 635.066406 240.925781 627.957031 240.925781 627.957031 236.183594 C 627.957031 231.445312 635.066406 231.445312 635.066406 236.183594 "/>
<path style="fill-rule:nonzero;fill:rgb(0%,0%,0%);fill-opacity:0.8;stroke-width:0.708661;stroke-linecap:round;stroke-linejoin:round;stroke:rgb(0%,0%,0%);stroke-opacity:0.8;stroke-miterlimit:10;" d="M 720.574219 216.183594 C 720.574219 220.925781 713.460938 220.925781 713.460938 216.183594 C 713.460938 211.445312 720.574219 211.445312 720.574219 216.183594 "/>
<path style="fill-rule:nonzero;fill:rgb(0%,0%,0%);fill-opacity:0.8;stroke-width:0.708661;stroke-linecap:round;stroke-linejoin:round;stroke:rgb(0%,0%,0%);stroke-opacity:0.8;stroke-miterlimit:10;" d="M 697.390625 221.136719 C 697.390625 225.878906 690.28125 225.878906 690.28125 221.136719 C 690.28125 216.398438 697.390625 216.398438 697.390625 221.136719 "/>
<path style="fill-rule:nonzero;fill:rgb(0%,0%,0%);fill-opacity:0.8;stroke-width:0.708661;stroke-linecap:round;stroke-linejoin:round;stroke:rgb(0%,0%,0%);stroke-opacity:0.8;stroke-miterlimit:10;" d="M 653.648438 234.679688 C 653.648438 239.421875 646.535156 239.421875 646.535156 234.679688 C 646.535156 229.941406 653.648438 229.941406 653.648438 234.679688 "/>
<path style="fill-rule:nonzero;fill:rgb(0%,0%,0%);fill-opacity:0.8;stroke-width:0.708661;stroke-linecap:round;stroke-linejoin:round;stroke:rgb(0%,0%,0%);stroke-opacity:0.8;stroke-miterlimit:10;" d="M 734.664062 215.449219 C 734.664062 220.191406 727.554688 220.191406 727.554688 215.449219 C 727.554688 210.710938 734.664062 210.710938 734.664062 215.449219 "/>
<path style="fill-rule:nonzero;fill:rgb(0%,0%,0%);fill-opacity:0.8;stroke-width:0.708661;stroke-linecap:round;stroke-linejoin:round;stroke:rgb(0%,0%,0%);stroke-opacity:0.8;stroke-miterlimit:10;" d="M 706.640625 211.792969 C 706.640625 216.53125 699.53125 216.53125 699.53125 211.792969 C 699.53125 207.050781 706.640625 207.050781 706.640625 211.792969 "/>
<path style="fill-rule:nonzero;fill:rgb(0%,0%,0%);fill-opacity:0.8;stroke-width:0.708661;stroke-linecap:round;stroke-linejoin:round;stroke:rgb(0%,0%,0%);stroke-opacity:0.8;stroke-miterlimit:10;" d="M 682.203125 221.6875 C 682.203125 226.429688 675.089844 226.429688 675.089844 221.6875 C 675.089844 216.949219 682.203125 216.949219 682.203125 221.6875 "/>
<path style="fill-rule:nonzero;fill:rgb(0%,0%,0%);fill-opacity:0.8;stroke-width:0.708661;stroke-linecap:round;stroke-linejoin:round;stroke:rgb(0%,0%,0%);stroke-opacity:0.8;stroke-miterlimit:10;" d="M 722.515625 216.941406 C 722.515625 221.683594 715.40625 221.683594 715.40625 216.941406 C 715.40625 212.203125 722.515625 212.203125 722.515625 216.941406 "/>
<path style="fill-rule:nonzero;fill:rgb(0%,0%,0%);fill-opacity:0.8;stroke-width:0.708661;stroke-linecap:round;stroke-linejoin:round;stroke:rgb(0%,0%,0%);stroke-opacity:0.8;stroke-miterlimit:10;" d="M 721.941406 219.664062 C 721.941406 224.40625 714.828125 224.40625 714.828125 219.664062 C 714.828125 214.925781 721.941406 214.925781 721.941406 219.664062 "/>
<path style="fill-rule:nonzero;fill:rgb(0%,0%,0%);fill-opacity:0.8;stroke-width:0.708661;stroke-linecap:round;stroke-linejoin:round;stroke:rgb(0%,0%,0%);stroke-opacity:0.8;stroke-miterlimit:10;" d="M 720.023438 229.21875 C 720.023438 233.960938 712.914062 233.960938 712.914062 229.21875 C 712.914062 224.476562 720.023438 224.476562 720.023438 229.21875 "/>
<path style="fill-rule:nonzero;fill:rgb(0%,0%,0%);fill-opacity:0.8;stroke-width:0.708661;stroke-linecap:round;stroke-linejoin:round;stroke:rgb(0%,0%,0%);stroke-opacity:0.8;stroke-miterlimit:10;" d="M 715.523438 212.007812 C 715.523438 216.746094 708.410156 216.746094 708.410156 212.007812 C 708.410156 207.265625 715.523438 207.265625 715.523438 212.007812 "/>
<path style="fill-rule:nonzero;fill:rgb(0%,0%,0%);fill-opacity:0.8;stroke-width:0.708661;stroke-linecap:round;stroke-linejoin:round;stroke:rgb(0%,0%,0%);stroke-opacity:0.8;stroke-miterlimit:10;" d="M 710.957031 227.457031 C 710.957031 232.199219 703.847656 232.199219 703.847656 227.457031 C 703.847656 222.71875 710.957031 222.71875 710.957031 227.457031 "/>
<path style="fill-rule:nonzero;fill:rgb(0%,0%,0%);fill-opacity:0.8;stroke-width:0.708661;stroke-linecap:round;stroke-linejoin:round;stroke:rgb(0%,0%,0%);stroke-opacity:0.8;stroke-miterlimit:10;" d="M 690.097656 218.671875 C 690.097656 223.414062 682.988281 223.414062 682.988281 218.671875 C 682.988281 213.933594 690.097656 213.933594 690.097656 218.671875 "/>
<path style="fill-rule:nonzero;fill:rgb(0%,0%,0%);fill-opacity:0.8;stroke-width:0.708661;stroke-linecap:round;stroke-linejoin:round;stroke:rgb(0%,0%,0%);stroke-opacity:0.8;stroke-miterlimit:10;" d="M 681.832031 213.511719 C 681.832031 218.253906 674.722656 218.253906 674.722656 213.511719 C 674.722656 208.773438 681.832031 208.773438 681.832031 213.511719 "/>
<path style="fill-rule:nonzero;fill:rgb(0%,0%,0%);fill-opacity:0.8;stroke-width:0.708661;stroke-linecap:round;stroke-linejoin:round;stroke:rgb(0%,0%,0%);stroke-opacity:0.8;stroke-miterlimit:10;" d="M 679.308594 232.910156 C 679.308594 237.648438 672.199219 237.648438 672.199219 232.910156 C 672.199219 228.167969 679.308594 228.167969 679.308594 232.910156 "/>
<path style="fill-rule:nonzero;fill:rgb(0%,0%,0%);fill-opacity:0.8;stroke-width:0.708661;stroke-linecap:round;stroke-linejoin:round;stroke:rgb(0%,0%,0%);stroke-opacity:0.8;stroke-miterlimit:10;" d="M 668.667969 222.644531 C 668.667969 227.386719 661.554688 227.386719 661.554688 222.644531 C 661.554688 217.90625 668.667969 217.90625 668.667969 222.644531 "/>
<path style="fill-rule:nonzero;fill:rgb(0%,0%,0%);fill-opacity:0.8;stroke-width:0.708661;stroke-linecap:round;stroke-linejoin:round;stroke:rgb(0%,0%,0%);stroke-opacity:0.8;stroke-miterlimit:10;" d="M 685.152344 225.203125 C 685.152344 229.945312 678.042969 229.945312 678.042969 225.203125 C 678.042969 220.464844 685.152344 220.464844 685.152344 225.203125 "/>
<path style="fill-rule:nonzero;fill:rgb(0%,0%,0%);fill-opacity:0.8;stroke-width:0.708661;stroke-linecap:round;stroke-linejoin:round;stroke:rgb(0%,0%,0%);stroke-opacity:0.8;stroke-miterlimit:10;" d="M 649.335938 238.886719 C 649.335938 243.625 642.226562 243.625 642.226562 238.886719 C 642.226562 234.144531 649.335938 234.144531 649.335938 238.886719 "/>
<path style="fill-rule:nonzero;fill:rgb(0%,0%,0%);fill-opacity:0.8;stroke-width:0.708661;stroke-linecap:round;stroke-linejoin:round;stroke:rgb(0%,0%,0%);stroke-opacity:0.8;stroke-miterlimit:10;" d="M 765.660156 218.175781 C 765.660156 222.917969 758.550781 222.917969 758.550781 218.175781 C 758.550781 213.4375 765.660156 213.4375 765.660156 218.175781 "/>
<path style="fill-rule:nonzero;fill:rgb(0%,0%,0%);fill-opacity:0.8;stroke-width:0.708661;stroke-linecap:round;stroke-linejoin:round;stroke:rgb(0%,0%,0%);stroke-opacity:0.8;stroke-miterlimit:10;" d="M 733.113281 224.371094 C 733.113281 229.113281 726 229.113281 726 224.371094 C 726 219.632812 733.113281 219.632812 733.113281 224.371094 "/>
<path style="fill-rule:nonzero;fill:rgb(0%,0%,0%);fill-opacity:0.8;stroke-width:0.708661;stroke-linecap:round;stroke-linejoin:round;stroke:rgb(0%,0%,0%);stroke-opacity:0.8;stroke-miterlimit:10;" d="M 654.15625 232.15625 C 654.15625 236.894531 647.046875 236.894531 647.046875 232.15625 C 647.046875 227.414062 654.15625 227.414062 654.15625 232.15625 "/>
<path style="fill-rule:nonzero;fill:rgb(0%,0%,0%);fill-opacity:0.8;stroke-width:0.708661;stroke-linecap:round;stroke-linejoin:round;stroke:rgb(0%,0%,0%);stroke-opacity:0.8;stroke-miterlimit:10;" d="M 678.550781 233.144531 C 678.550781 237.882812 671.441406 237.882812 671.441406 233.144531 C 671.441406 228.402344 678.550781 228.402344 678.550781 233.144531 "/>
<path style="fill-rule:nonzero;fill:rgb(0%,0%,0%);fill-opacity:0.8;stroke-width:0.708661;stroke-linecap:round;stroke-linejoin:round;stroke:rgb(0%,0%,0%);stroke-opacity:0.8;stroke-miterlimit:10;" d="M 676.390625 221.371094 C 676.390625 226.109375 669.28125 226.109375 669.28125 221.371094 C 669.28125 216.628906 676.390625 216.628906 676.390625 221.371094 "/>
<path style="fill-rule:nonzero;fill:rgb(0%,0%,0%);fill-opacity:0.8;stroke-width:0.708661;stroke-linecap:round;stroke-linejoin:round;stroke:rgb(0%,0%,0%);stroke-opacity:0.8;stroke-miterlimit:10;" d="M 718.613281 205.988281 C 718.613281 210.726562 711.503906 210.726562 711.503906 205.988281 C 711.503906 201.246094 718.613281 201.246094 718.613281 205.988281 "/>
<path style="fill-rule:nonzero;fill:rgb(0%,0%,0%);fill-opacity:0.8;stroke-width:0.708661;stroke-linecap:round;stroke-linejoin:round;stroke:rgb(0%,0%,0%);stroke-opacity:0.8;stroke-miterlimit:10;" d="M 689.371094 230.257812 C 689.371094 235 682.261719 235 682.261719 230.257812 C 682.261719 225.519531 689.371094 225.519531 689.371094 230.257812 "/>
<path style="fill-rule:nonzero;fill:rgb(0%,0%,0%);fill-opacity:0.8;stroke-width:0.708661;stroke-linecap:round;stroke-linejoin:round;stroke:rgb(0%,0%,0%);stroke-opacity:0.8;stroke-miterlimit:10;" d="M 700.777344 216.53125 C 700.777344 221.273438 693.667969 221.273438 693.667969 216.53125 C 693.667969 211.792969 700.777344 211.792969 700.777344 216.53125 "/>
<path style="fill-rule:nonzero;fill:rgb(0%,0%,0%);fill-opacity:0.8;stroke-width:0.708661;stroke-linecap:round;stroke-linejoin:round;stroke:rgb(0%,0%,0%);stroke-opacity:0.8;stroke-miterlimit:10;" d="M 691.230469 218.3125 C 691.230469 223.050781 684.121094 223.050781 684.121094 218.3125 C 684.121094 213.570312 691.230469 213.570312 691.230469 218.3125 "/>
<path style="fill-rule:nonzero;fill:rgb(0%,0%,0%);fill-opacity:0.8;stroke-width:0.708661;stroke-linecap:round;stroke-linejoin:round;stroke:rgb(0%,0%,0%);stroke-opacity:0.8;stroke-miterlimit:10;" d="M 690.746094 220.863281 C 690.746094 225.605469 683.632812 225.605469 683.632812 220.863281 C 683.632812 216.125 690.746094 216.125 690.746094 220.863281 "/>
<path style="fill-rule:nonzero;fill:rgb(0%,0%,0%);fill-opacity:0.8;stroke-width:0.708661;stroke-linecap:round;stroke-linejoin:round;stroke:rgb(0%,0%,0%);stroke-opacity:0.8;stroke-miterlimit:10;" d="M 738.550781 220.066406 C 738.550781 224.804688 731.441406 224.804688 731.441406 220.066406 C 731.441406 215.324219 738.550781 215.324219 738.550781 220.066406 "/>
<path style="fill-rule:nonzero;fill:rgb(0%,0%,0%);fill-opacity:0.8;stroke-width:0.708661;stroke-linecap:round;stroke-linejoin:round;stroke:rgb(0%,0%,0%);stroke-opacity:0.8;stroke-miterlimit:10;" d="M 684.550781 224.503906 C 684.550781 229.246094 677.4375 229.246094 677.4375 224.503906 C 677.4375 219.761719 684.550781 219.761719 684.550781 224.503906 "/>
<path style="fill-rule:nonzero;fill:rgb(0%,0%,0%);fill-opacity:0.8;stroke-width:0.708661;stroke-linecap:round;stroke-linejoin:round;stroke:rgb(0%,0%,0%);stroke-opacity:0.8;stroke-miterlimit:10;" d="M 743.5625 215.074219 C 743.5625 219.8125 736.449219 219.8125 736.449219 215.074219 C 736.449219 210.332031 743.5625 210.332031 743.5625 215.074219 "/>
<path style="fill-rule:nonzero;fill:rgb(0%,0%,0%);fill-opacity:0.8;stroke-width:0.708661;stroke-linecap:round;stroke-linejoin:round;stroke:rgb(0%,0%,0%);stroke-opacity:0.8;stroke-miterlimit:10;" d="M 639.738281 228.5 C 639.738281 233.238281 632.628906 233.238281 632.628906 228.5 C 632.628906 223.757812 639.738281 223.757812 639.738281 228.5 "/>
<path style="fill-rule:nonzero;fill:rgb(0%,0%,0%);fill-opacity:0.8;stroke-width:0.708661;stroke-linecap:round;stroke-linejoin:round;stroke:rgb(0%,0%,0%);stroke-opacity:0.8;stroke-miterlimit:10;" d="M 712 221.125 C 712 225.863281 704.886719 225.863281 704.886719 221.125 C 704.886719 216.382812 712 216.382812 712 221.125 "/>
<path style="fill-rule:nonzero;fill:rgb(0%,0%,0%);fill-opacity:0.8;stroke-width:0.708661;stroke-linecap:round;stroke-linejoin:round;stroke:rgb(0%,0%,0%);stroke-opacity:0.8;stroke-miterlimit:10;" d="M 696.390625 216.230469 C 696.390625 220.972656 689.28125 220.972656 689.28125 216.230469 C 689.28125 211.492188 696.390625 211.492188 696.390625 216.230469 "/>
<path style="fill-rule:nonzero;fill:rgb(0%,0%,0%);fill-opacity:0.8;stroke-width:0.708661;stroke-linecap:round;stroke-linejoin:round;stroke:rgb(0%,0%,0%);stroke-opacity:0.8;stroke-miterlimit:10;" d="M 699.511719 223.324219 C 699.511719 228.066406 692.398438 228.066406 692.398438 223.324219 C 692.398438 218.582031 699.511719 218.582031 699.511719 223.324219 "/>
<path style="fill-rule:nonzero;fill:rgb(0%,0%,0%);fill-opacity:0.8;stroke-width:0.708661;stroke-linecap:round;stroke-linejoin:round;stroke:rgb(0%,0%,0%);stroke-opacity:0.8;stroke-miterlimit:10;" d="M 705.054688 214.285156 C 705.054688 219.023438 697.945312 219.023438 697.945312 214.285156 C 697.945312 209.542969 705.054688 209.542969 705.054688 214.285156 "/>
<path style="fill-rule:nonzero;fill:rgb(0%,0%,0%);fill-opacity:0.8;stroke-width:0.708661;stroke-linecap:round;stroke-linejoin:round;stroke:rgb(0%,0%,0%);stroke-opacity:0.8;stroke-miterlimit:10;" d="M 675.183594 231.402344 C 675.183594 236.140625 668.070312 236.140625 668.070312 231.402344 C 668.070312 226.660156 675.183594 226.660156 675.183594 231.402344 "/>
<path style="fill-rule:nonzero;fill:rgb(0%,0%,0%);fill-opacity:0.8;stroke-width:0.708661;stroke-linecap:round;stroke-linejoin:round;stroke:rgb(0%,0%,0%);stroke-opacity:0.8;stroke-miterlimit:10;" d="M 680.910156 231.589844 C 680.910156 236.328125 673.800781 236.328125 673.800781 231.589844 C 673.800781 226.847656 680.910156 226.847656 680.910156 231.589844 "/>
<path style="fill-rule:nonzero;fill:rgb(0%,0%,0%);fill-opacity:0.8;stroke-width:0.708661;stroke-linecap:round;stroke-linejoin:round;stroke:rgb(0%,0%,0%);stroke-opacity:0.8;stroke-miterlimit:10;" d="M 657.695312 210.214844 C 657.695312 214.953125 650.585938 214.953125 650.585938 210.214844 C 650.585938 205.472656 657.695312 205.472656 657.695312 210.214844 "/>
<path style="fill-rule:nonzero;fill:rgb(0%,0%,0%);fill-opacity:0.8;stroke-width:0.708661;stroke-linecap:round;stroke-linejoin:round;stroke:rgb(0%,0%,0%);stroke-opacity:0.8;stroke-miterlimit:10;" d="M 655.894531 231.207031 C 655.894531 235.945312 648.785156 235.945312 648.785156 231.207031 C 648.785156 226.464844 655.894531 226.464844 655.894531 231.207031 "/>
<path style="fill-rule:nonzero;fill:rgb(0%,0%,0%);fill-opacity:0.8;stroke-width:0.708661;stroke-linecap:round;stroke-linejoin:round;stroke:rgb(0%,0%,0%);stroke-opacity:0.8;stroke-miterlimit:10;" d="M 702.476562 219 C 702.476562 223.742188 695.367188 223.742188 695.367188 219 C 695.367188 214.261719 702.476562 214.261719 702.476562 219 "/>
<path style="fill-rule:nonzero;fill:rgb(0%,0%,0%);fill-opacity:0.8;stroke-width:0.708661;stroke-linecap:round;stroke-linejoin:round;stroke:rgb(0%,0%,0%);stroke-opacity:0.8;stroke-miterlimit:10;" d="M 707.378906 216.230469 C 707.378906 220.96875 700.265625 220.96875 700.265625 216.230469 C 700.265625 211.488281 707.378906 211.488281 707.378906 216.230469 "/>
<path style="fill-rule:nonzero;fill:rgb(0%,0%,0%);fill-opacity:0.8;stroke-width:0.708661;stroke-linecap:round;stroke-linejoin:round;stroke:rgb(0%,0%,0%);stroke-opacity:0.8;stroke-miterlimit:10;" d="M 693.992188 224.910156 C 693.992188 229.648438 686.882812 229.648438 686.882812 224.910156 C 686.882812 220.167969 693.992188 220.167969 693.992188 224.910156 "/>
<path style="fill-rule:nonzero;fill:rgb(0%,0%,0%);fill-opacity:0.8;stroke-width:0.708661;stroke-linecap:round;stroke-linejoin:round;stroke:rgb(0%,0%,0%);stroke-opacity:0.8;stroke-miterlimit:10;" d="M 723.433594 214.09375 C 723.433594 218.832031 716.324219 218.832031 716.324219 214.09375 C 716.324219 209.351562 723.433594 209.351562 723.433594 214.09375 "/>
<path style="fill-rule:nonzero;fill:rgb(0%,0%,0%);fill-opacity:0.8;stroke-width:0.708661;stroke-linecap:round;stroke-linejoin:round;stroke:rgb(0%,0%,0%);stroke-opacity:0.8;stroke-miterlimit:10;" d="M 761.636719 208.234375 C 761.636719 212.976562 754.523438 212.976562 754.523438 208.234375 C 754.523438 203.496094 761.636719 203.496094 761.636719 208.234375 "/>
<path style="fill-rule:nonzero;fill:rgb(0%,0%,0%);fill-opacity:0.8;stroke-width:0.708661;stroke-linecap:round;stroke-linejoin:round;stroke:rgb(0%,0%,0%);stroke-opacity:0.8;stroke-miterlimit:10;" d="M 675.566406 226.621094 C 675.566406 231.359375 668.453125 231.359375 668.453125 226.621094 C 668.453125 221.878906 675.566406 221.878906 675.566406 226.621094 "/>
<path style="fill-rule:nonzero;fill:rgb(0%,0%,0%);fill-opacity:0.8;stroke-width:0.708661;stroke-linecap:round;stroke-linejoin:round;stroke:rgb(0%,0%,0%);stroke-opacity:0.8;stroke-miterlimit:10;" d="M 613.984375 235.824219 C 613.984375 240.566406 606.871094 240.566406 606.871094 235.824219 C 606.871094 231.085938 613.984375 231.085938 613.984375 235.824219 "/>
<path style="fill-rule:nonzero;fill:rgb(0%,0%,0%);fill-opacity:0.8;stroke-width:0.708661;stroke-linecap:round;stroke-linejoin:round;stroke:rgb(0%,0%,0%);stroke-opacity:0.8;stroke-miterlimit:10;" d="M 726.261719 216.710938 C 726.261719 221.453125 719.152344 221.453125 719.152344 216.710938 C 719.152344 211.972656 726.261719 211.972656 726.261719 216.710938 "/>
<path style="fill-rule:nonzero;fill:rgb(0%,0%,0%);fill-opacity:0.8;stroke-width:0.708661;stroke-linecap:round;stroke-linejoin:round;stroke:rgb(0%,0%,0%);stroke-opacity:0.8;stroke-miterlimit:10;" d="M 668.175781 214.667969 C 668.175781 219.40625 661.066406 219.40625 661.066406 214.667969 C 661.066406 209.925781 668.175781 209.925781 668.175781 214.667969 "/>
<path style="fill-rule:nonzero;fill:rgb(0%,0%,0%);fill-opacity:0.8;stroke-width:0.708661;stroke-linecap:round;stroke-linejoin:round;stroke:rgb(0%,0%,0%);stroke-opacity:0.8;stroke-miterlimit:10;" d="M 668.894531 230.761719 C 668.894531 235.503906 661.78125 235.503906 661.78125 230.761719 C 661.78125 226.023438 668.894531 226.023438 668.894531 230.761719 "/>
<path style="fill-rule:nonzero;fill:rgb(0%,0%,0%);fill-opacity:0.8;stroke-width:0.708661;stroke-linecap:round;stroke-linejoin:round;stroke:rgb(0%,0%,0%);stroke-opacity:0.8;stroke-miterlimit:10;" d="M 726.933594 222.597656 C 726.933594 227.335938 719.824219 227.335938 719.824219 222.597656 C 719.824219 217.855469 726.933594 217.855469 726.933594 222.597656 "/>
<path style="fill-rule:nonzero;fill:rgb(0%,0%,0%);fill-opacity:0.8;stroke-width:0.708661;stroke-linecap:round;stroke-linejoin:round;stroke:rgb(0%,0%,0%);stroke-opacity:0.8;stroke-miterlimit:10;" d="M 682.550781 223.964844 C 682.550781 228.707031 675.441406 228.707031 675.441406 223.964844 C 675.441406 219.226562 682.550781 219.226562 682.550781 223.964844 "/>
<path style="fill-rule:nonzero;fill:rgb(0%,0%,0%);fill-opacity:0.8;stroke-width:0.708661;stroke-linecap:round;stroke-linejoin:round;stroke:rgb(0%,0%,0%);stroke-opacity:0.8;stroke-miterlimit:10;" d="M 650.847656 227.980469 C 650.847656 232.71875 643.738281 232.71875 643.738281 227.980469 C 643.738281 223.238281 650.847656 223.238281 650.847656 227.980469 "/>
<path style="fill-rule:nonzero;fill:rgb(0%,0%,0%);fill-opacity:0.8;stroke-width:0.708661;stroke-linecap:round;stroke-linejoin:round;stroke:rgb(0%,0%,0%);stroke-opacity:0.8;stroke-miterlimit:10;" d="M 698.335938 218.945312 C 698.335938 223.683594 691.226562 223.683594 691.226562 218.945312 C 691.226562 214.203125 698.335938 214.203125 698.335938 218.945312 "/>
<path style="fill-rule:nonzero;fill:rgb(0%,0%,0%);fill-opacity:0.8;stroke-width:0.708661;stroke-linecap:round;stroke-linejoin:round;stroke:rgb(0%,0%,0%);stroke-opacity:0.8;stroke-miterlimit:10;" d="M 687.492188 225.902344 C 687.492188 230.644531 680.382812 230.644531 680.382812 225.902344 C 680.382812 221.164062 687.492188 221.164062 687.492188 225.902344 "/>
<path style="fill-rule:nonzero;fill:rgb(0%,0%,0%);fill-opacity:0.8;stroke-width:0.708661;stroke-linecap:round;stroke-linejoin:round;stroke:rgb(0%,0%,0%);stroke-opacity:0.8;stroke-miterlimit:10;" d="M 692.390625 228.464844 C 692.390625 233.207031 685.28125 233.207031 685.28125 228.464844 C 685.28125 223.726562 692.390625 223.726562 692.390625 228.464844 "/>
<path style="fill-rule:nonzero;fill:rgb(0%,0%,0%);fill-opacity:0.8;stroke-width:0.708661;stroke-linecap:round;stroke-linejoin:round;stroke:rgb(0%,0%,0%);stroke-opacity:0.8;stroke-miterlimit:10;" d="M 705.246094 213.0625 C 705.246094 217.800781 698.136719 217.800781 698.136719 213.0625 C 698.136719 208.320312 705.246094 208.320312 705.246094 213.0625 "/>
<path style="fill-rule:nonzero;fill:rgb(0%,0%,0%);fill-opacity:0.8;stroke-width:0.708661;stroke-linecap:round;stroke-linejoin:round;stroke:rgb(0%,0%,0%);stroke-opacity:0.8;stroke-miterlimit:10;" d="M 679.640625 226.664062 C 679.640625 231.40625 672.53125 231.40625 672.53125 226.664062 C 672.53125 221.925781 679.640625 221.925781 679.640625 226.664062 "/>
<path style="fill-rule:nonzero;fill:rgb(0%,0%,0%);fill-opacity:0.8;stroke-width:0.708661;stroke-linecap:round;stroke-linejoin:round;stroke:rgb(0%,0%,0%);stroke-opacity:0.8;stroke-miterlimit:10;" d="M 714.023438 223.554688 C 714.023438 228.296875 706.910156 228.296875 706.910156 223.554688 C 706.910156 218.816406 714.023438 218.816406 714.023438 223.554688 "/>
<path style="fill-rule:nonzero;fill:rgb(0%,0%,0%);fill-opacity:0.8;stroke-width:0.708661;stroke-linecap:round;stroke-linejoin:round;stroke:rgb(0%,0%,0%);stroke-opacity:0.8;stroke-miterlimit:10;" d="M 684.726562 225.132812 C 684.726562 229.875 677.617188 229.875 677.617188 225.132812 C 677.617188 220.390625 684.726562 220.390625 684.726562 225.132812 "/>
<path style="fill-rule:nonzero;fill:rgb(0%,0%,0%);fill-opacity:0.8;stroke-width:0.708661;stroke-linecap:round;stroke-linejoin:round;stroke:rgb(0%,0%,0%);stroke-opacity:0.8;stroke-miterlimit:10;" d="M 703.433594 221.632812 C 703.433594 226.375 696.324219 226.375 696.324219 221.632812 C 696.324219 216.894531 703.433594 216.894531 703.433594 221.632812 "/>
<path style="fill-rule:nonzero;fill:rgb(0%,0%,0%);fill-opacity:0.8;stroke-width:0.708661;stroke-linecap:round;stroke-linejoin:round;stroke:rgb(0%,0%,0%);stroke-opacity:0.8;stroke-miterlimit:10;" d="M 729.347656 209.703125 C 729.347656 214.445312 722.238281 214.445312 722.238281 209.703125 C 722.238281 204.964844 729.347656 204.964844 729.347656 209.703125 "/>
<path style="fill-rule:nonzero;fill:rgb(0%,0%,0%);fill-opacity:0.8;stroke-width:0.708661;stroke-linecap:round;stroke-linejoin:round;stroke:rgb(0%,0%,0%);stroke-opacity:0.8;stroke-miterlimit:10;" d="M 706.9375 219.425781 C 706.9375 224.167969 699.824219 224.167969 699.824219 219.425781 C 699.824219 214.6875 706.9375 214.6875 706.9375 219.425781 "/>
<path style="fill-rule:nonzero;fill:rgb(0%,0%,0%);fill-opacity:0.8;stroke-width:0.708661;stroke-linecap:round;stroke-linejoin:round;stroke:rgb(0%,0%,0%);stroke-opacity:0.8;stroke-miterlimit:10;" d="M 681.15625 220.160156 C 681.15625 224.902344 674.046875 224.902344 674.046875 220.160156 C 674.046875 215.421875 681.15625 215.421875 681.15625 220.160156 "/>
<path style="fill-rule:nonzero;fill:rgb(0%,0%,0%);fill-opacity:0.8;stroke-width:0.708661;stroke-linecap:round;stroke-linejoin:round;stroke:rgb(0%,0%,0%);stroke-opacity:0.8;stroke-miterlimit:10;" d="M 731.109375 218.492188 C 731.109375 223.234375 723.996094 223.234375 723.996094 218.492188 C 723.996094 213.753906 731.109375 213.753906 731.109375 218.492188 "/>
<path style="fill-rule:nonzero;fill:rgb(0%,0%,0%);fill-opacity:0.8;stroke-width:0.708661;stroke-linecap:round;stroke-linejoin:round;stroke:rgb(0%,0%,0%);stroke-opacity:0.8;stroke-miterlimit:10;" d="M 725.847656 215.378906 C 725.847656 220.121094 718.738281 220.121094 718.738281 215.378906 C 718.738281 210.640625 725.847656 210.640625 725.847656 215.378906 "/>
<path style="fill-rule:nonzero;fill:rgb(0%,0%,0%);fill-opacity:0.8;stroke-width:0.708661;stroke-linecap:round;stroke-linejoin:round;stroke:rgb(0%,0%,0%);stroke-opacity:0.8;stroke-miterlimit:10;" d="M 710.769531 221.070312 C 710.769531 225.808594 703.660156 225.808594 703.660156 221.070312 C 703.660156 216.328125 710.769531 216.328125 710.769531 221.070312 "/>
<path style="fill-rule:nonzero;fill:rgb(0%,0%,0%);fill-opacity:0.8;stroke-width:0.708661;stroke-linecap:round;stroke-linejoin:round;stroke:rgb(0%,0%,0%);stroke-opacity:0.8;stroke-miterlimit:10;" d="M 700.28125 220.535156 C 700.28125 225.277344 693.171875 225.277344 693.171875 220.535156 C 693.171875 215.796875 700.28125 215.796875 700.28125 220.535156 "/>
<path style="fill-rule:nonzero;fill:rgb(0%,0%,0%);fill-opacity:0.8;stroke-width:0.708661;stroke-linecap:round;stroke-linejoin:round;stroke:rgb(0%,0%,0%);stroke-opacity:0.8;stroke-miterlimit:10;" d="M 670.929688 231.277344 C 670.929688 236.015625 663.816406 236.015625 663.816406 231.277344 C 663.816406 226.535156 670.929688 226.535156 670.929688 231.277344 "/>
<path style="fill-rule:nonzero;fill:rgb(0%,0%,0%);fill-opacity:0.8;stroke-width:0.708661;stroke-linecap:round;stroke-linejoin:round;stroke:rgb(0%,0%,0%);stroke-opacity:0.8;stroke-miterlimit:10;" d="M 738.285156 221.820312 C 738.285156 226.5625 731.171875 226.5625 731.171875 221.820312 C 731.171875 217.082031 738.285156 217.082031 738.285156 221.820312 "/>
<path style="fill-rule:nonzero;fill:rgb(0%,0%,0%);fill-opacity:0.8;stroke-width:0.708661;stroke-linecap:round;stroke-linejoin:round;stroke:rgb(0%,0%,0%);stroke-opacity:0.8;stroke-miterlimit:10;" d="M 671.863281 214.761719 C 671.863281 219.5 664.753906 219.5 664.753906 214.761719 C 664.753906 210.019531 671.863281 210.019531 671.863281 214.761719 "/>
<path style="fill-rule:nonzero;fill:rgb(0%,0%,0%);fill-opacity:0.8;stroke-width:0.708661;stroke-linecap:round;stroke-linejoin:round;stroke:rgb(0%,0%,0%);stroke-opacity:0.8;stroke-miterlimit:10;" d="M 766.285156 206.109375 C 766.285156 210.851562 759.171875 210.851562 759.171875 206.109375 C 759.171875 201.371094 766.285156 201.371094 766.285156 206.109375 "/>
<path style="fill-rule:nonzero;fill:rgb(0%,0%,0%);fill-opacity:0.8;stroke-width:0.708661;stroke-linecap:round;stroke-linejoin:round;stroke:rgb(0%,0%,0%);stroke-opacity:0.8;stroke-miterlimit:10;" d="M 744.109375 220.464844 C 744.109375 225.207031 736.996094 225.207031 736.996094 220.464844 C 736.996094 215.726562 744.109375 215.726562 744.109375 220.464844 "/>
<path style="fill-rule:nonzero;fill:rgb(0%,0%,0%);fill-opacity:0.8;stroke-width:0.708661;stroke-linecap:round;stroke-linejoin:round;stroke:rgb(0%,0%,0%);stroke-opacity:0.8;stroke-miterlimit:10;" d="M 684.214844 227.34375 C 684.214844 232.082031 677.101562 232.082031 677.101562 227.34375 C 677.101562 222.601562 684.214844 222.601562 684.214844 227.34375 "/>
<path style="fill-rule:nonzero;fill:rgb(0%,0%,0%);fill-opacity:0.8;stroke-width:0.708661;stroke-linecap:round;stroke-linejoin:round;stroke:rgb(0%,0%,0%);stroke-opacity:0.8;stroke-miterlimit:10;" d="M 657.429688 235.28125 C 657.429688 240.023438 650.320312 240.023438 650.320312 235.28125 C 650.320312 230.542969 657.429688 230.542969 657.429688 235.28125 "/>
<path style="fill-rule:nonzero;fill:rgb(0%,0%,0%);fill-opacity:0.8;stroke-width:0.708661;stroke-linecap:round;stroke-linejoin:round;stroke:rgb(0%,0%,0%);stroke-opacity:0.8;stroke-miterlimit:10;" d="M 850.261719 17.292969 C 850.261719 22.035156 843.152344 22.035156 843.152344 17.292969 C 843.152344 12.554688 850.261719 12.554688 850.261719 17.292969 "/>
<path style="fill:none;stroke-width:2.133957;stroke-linecap:butt;stroke-linejoin:round;stroke:rgb(57.254902%,8.235294%,22.352941%);stroke-opacity:1;stroke-miterlimit:10;" d="M 610.425781 253.574219 L 613.417969 252.378906 L 616.410156 251.1875 L 619.398438 249.992188 L 622.390625 248.800781 L 625.382812 247.605469 L 628.371094 246.410156 L 631.363281 245.21875 L 634.355469 244.023438 L 637.34375 242.832031 L 640.335938 241.636719 L 643.328125 240.445312 L 646.316406 239.25 L 649.308594 238.058594 L 652.300781 236.863281 L 655.289062 235.671875 L 658.28125 234.476562 L 661.273438 233.285156 L 664.261719 232.089844 L 667.253906 230.894531 L 670.246094 229.703125 L 673.234375 228.507812 L 676.226562 227.316406 L 679.21875 226.121094 L 682.207031 224.929688 L 685.199219 223.734375 L 688.191406 222.542969 L 691.179688 221.347656 L 694.171875 220.15625 L 697.164062 218.960938 L 700.152344 217.769531 L 703.144531 216.574219 L 706.136719 215.382812 L 709.125 214.1875 L 712.117188 212.992188 L 715.109375 211.800781 L 718.097656 210.605469 L 721.089844 209.414062 L 724.082031 208.21875 L 727.070312 207.027344 L 730.0625 205.832031 L 733.054688 204.640625 L 736.042969 203.445312 L 739.035156 202.253906 L 742.027344 201.058594 L 745.015625 199.867188 L 748.007812 198.671875 L 751 197.480469 L 753.988281 196.285156 L 756.980469 195.089844 L 759.972656 193.898438 L 762.960938 192.703125 L 765.953125 191.511719 L 768.945312 190.316406 L 771.933594 189.125 L 774.925781 187.929688 L 777.917969 186.738281 L 780.90625 185.542969 L 783.898438 184.351562 L 786.890625 183.15625 L 789.878906 181.964844 L 792.871094 180.769531 L 795.863281 179.578125 L 798.851562 178.382812 L 801.84375 177.1875 L 804.835938 175.996094 L 807.824219 174.800781 L 810.816406 173.609375 L 813.808594 172.414062 L 816.796875 171.222656 L 819.789062 170.027344 L 822.78125 168.835938 L 825.769531 167.640625 L 828.761719 166.449219 L 831.753906 165.253906 L 834.742188 164.0625 L 840.726562 161.671875 L 843.714844 160.480469 L 846.707031 159.285156 "/>
<path style="fill:none;stroke-width:2.133957;stroke-linecap:butt;stroke-linejoin:round;stroke:rgb(86.666667%,2.745098%,27.843137%);stroke-opacity:1;stroke-miterlimit:10;" d="M 610.425781 236.089844 L 612.355469 235.769531 L 614.28125 235.449219 L 616.210938 235.128906 L 618.136719 234.808594 L 620.066406 234.484375 L 621.996094 234.164062 L 623.921875 233.84375 L 625.851562 233.523438 L 627.777344 233.203125 L 629.707031 232.882812 L 631.632812 232.558594 L 633.5625 232.238281 L 635.488281 231.917969 L 637.417969 231.597656 L 639.34375 231.277344 L 641.273438 230.957031 L 643.199219 230.632812 L 647.058594 229.992188 L 648.984375 229.671875 L 650.914062 229.351562 L 652.839844 229.03125 L 654.769531 228.707031 L 656.695312 228.386719 L 658.625 228.066406 L 660.550781 227.746094 L 662.480469 227.425781 L 664.40625 227.105469 L 666.335938 226.78125 L 668.261719 226.460938 L 670.191406 226.140625 L 672.117188 225.820312 L 675.976562 225.179688 L 677.902344 224.859375 L 679.832031 224.535156 L 681.757812 224.214844 L 683.6875 223.894531 L 685.613281 223.574219 L 687.542969 223.253906 L 689.46875 222.933594 L 691.398438 222.609375 L 693.324219 222.289062 L 695.253906 221.96875 L 697.179688 221.648438 L 699.109375 221.328125 L 701.035156 221.007812 L 702.964844 220.683594 L 704.894531 220.363281 L 706.820312 220.042969 L 708.75 219.722656 L 710.675781 219.402344 L 712.605469 219.082031 L 714.53125 218.757812 L 716.460938 218.4375 L 718.386719 218.117188 L 720.316406 217.796875 L 722.242188 217.476562 L 724.171875 217.15625 L 726.097656 216.832031 L 728.027344 216.511719 L 729.953125 216.191406 L 733.8125 215.550781 L 735.738281 215.230469 L 737.667969 214.90625 L 739.59375 214.585938 L 741.523438 214.265625 L 743.449219 213.945312 L 745.378906 213.625 L 747.304688 213.304688 L 749.234375 212.980469 L 751.160156 212.660156 L 753.089844 212.339844 L 755.015625 212.019531 L 756.945312 211.699219 L 758.871094 211.378906 L 760.800781 211.058594 L 762.730469 210.734375 "/>
<path style="fill:none;stroke-width:0.75;stroke-linecap:round;stroke-linejoin:round;stroke:rgb(0%,0%,0%);stroke-opacity:1;stroke-miterlimit:10;" d="M 598.613281 265.386719 L 598.613281 5.480469 "/>
<path style="fill:none;stroke-width:0.75;stroke-linecap:round;stroke-linejoin:round;stroke:rgb(0%,0%,0%);stroke-opacity:1;stroke-miterlimit:10;" d="M 598.613281 265.386719 L 858.519531 265.386719 "/>
</g>
</svg>
