<?xml version="1.0" encoding="UTF-8"?>
<svg xmlns="http://www.w3.org/2000/svg" xmlns:xlink="http://www.w3.org/1999/xlink" width="864pt" height="288pt" viewBox="0 0 864 288" version="1.1">
<defs>
<clipPath id="clip1">
  <path d="M 22.613281 5.480469 L 858.519531 5.480469 L 858.519531 265.386719 L 22.613281 265.386719 Z M 22.613281 5.480469 "/>
</clipPath>
</defs>
<g id="surface4">
<rect x="0" y="0" width="864" height="288" style="fill:rgb(100%,100%,100%);fill-opacity:1;stroke:none;"/>
<rect x="0" y="0" width="864" height="288" style="fill:rgb(98.039216%,98.039216%,98.039216%);fill-opacity:1;stroke:none;"/>
<path style="fill:none;stroke-width:0.75;stroke-linecap:round;stroke-linejoin:round;stroke:rgb(98.039216%,98.039216%,98.039216%);stroke-opacity:1;stroke-miterlimit:10;" d="M 0 288 L 864 288 L 864 0 L 0 0 Z M 0 288 "/>
<g clip-path="url(#clip1)" clip-rule="nonzero">
<path style="fill-rule:nonzero;fill:rgb(98.039216%,98.039216%,98.039216%);fill-opacity:1;stroke-width:0.75;stroke-linecap:round;stroke-linejoin:round;stroke:rgb(98.039216%,98.039216%,98.039216%);stroke-opacity:1;stroke-miterlimit:10;" d="M 22.613281 265.386719 L 858.519531 265.386719 L 858.519531 5.480469 L 22.613281 5.480469 Z M 22.613281 265.386719 "/>
</g>
<path style="fill-rule:nonzero;fill:rgb(0%,0%,0%);fill-opacity:0.8;stroke-width:0.708661;stroke-linecap:round;stroke-linejoin:round;stroke:rgb(0%,0%,0%);stroke-opacity:0.8;stroke-miterlimit:10;" d="M 254.660156 229.832031 C 254.660156 234.570312 247.546875 234.570312 247.546875 229.832031 C 247.546875 225.089844 254.660156 225.089844 254.660156 229.832031 "/>
<path style="fill-rule:nonzero;fill:rgb(0%,0%,0%);fill-opacity:0.8;stroke-width:0.708661;stroke-linecap:round;stroke-linejoin:round;stroke:rgb(0%,0%,0%);stroke-opacity:0.8;stroke-miterlimit:10;" d="M 290.640625 222.402344 C 290.640625 227.144531 283.53125 227.144531 283.53125 222.402344 C 283.53125 217.664062 290.640625 217.664062 290.640625 222.402344 "/>
<path style="fill-rule:nonzero;fill:rgb(0%,0%,0%);fill-opacity:0.8;stroke-width:0.708661;stroke-linecap:round;stroke-linejoin:round;stroke:rgb(0%,0%,0%);stroke-opacity:0.8;stroke-miterlimit:10;" d="M 485.511719 214.632812 C 485.511719 219.371094 478.402344 219.371094 478.402344 214.632812 C 478.402344 209.890625 485.511719 209.890625 485.511719 214.632812 "/>
<path style="fill-rule:nonzero;fill:rgb(0%,0%,0%);fill-opacity:0.8;stroke-width:0.708661;stroke-linecap:round;stroke-linejoin:round;stroke:rgb(0%,0%,0%);stroke-opacity:0.8;stroke-miterlimit:10;" d="M 323.394531 224.035156 C 323.394531 228.773438 316.285156 228.773438 316.285156 224.035156 C 316.285156 219.292969 323.394531 219.292969 323.394531 224.035156 "/>
<path style="fill-rule:nonzero;fill:rgb(0%,0%,0%);fill-opacity:0.8;stroke-width:0.708661;stroke-linecap:round;stroke-linejoin:round;stroke:rgb(0%,0%,0%);stroke-opacity:0.8;stroke-miterlimit:10;" d="M 329.796875 227.101562 C 329.796875 231.839844 322.6875 231.839844 322.6875 227.101562 C 322.6875 222.359375 329.796875 222.359375 329.796875 227.101562 "/>
<path style="fill-rule:nonzero;fill:rgb(0%,0%,0%);fill-opacity:0.8;stroke-width:0.708661;stroke-linecap:round;stroke-linejoin:round;stroke:rgb(0%,0%,0%);stroke-opacity:0.8;stroke-miterlimit:10;" d="M 502.546875 212.5625 C 502.546875 217.304688 495.433594 217.304688 495.433594 212.5625 C 495.433594 207.824219 502.546875 207.824219 502.546875 212.5625 "/>
<path style="fill-rule:nonzero;fill:rgb(0%,0%,0%);fill-opacity:0.8;stroke-width:0.708661;stroke-linecap:round;stroke-linejoin:round;stroke:rgb(0%,0%,0%);stroke-opacity:0.8;stroke-miterlimit:10;" d="M 365.925781 224.191406 C 365.925781 228.929688 358.8125 228.929688 358.8125 224.191406 C 358.8125 219.449219 365.925781 219.449219 365.925781 224.191406 "/>
<path style="fill-rule:nonzero;fill:rgb(0%,0%,0%);fill-opacity:0.8;stroke-width:0.708661;stroke-linecap:round;stroke-linejoin:round;stroke:rgb(0%,0%,0%);stroke-opacity:0.8;stroke-miterlimit:10;" d="M 177.90625 239.425781 C 177.90625 244.167969 170.792969 244.167969 170.792969 239.425781 C 170.792969 234.683594 177.90625 234.683594 177.90625 239.425781 "/>
<path style="fill-rule:nonzero;fill:rgb(0%,0%,0%);fill-opacity:0.8;stroke-width:0.708661;stroke-linecap:round;stroke-linejoin:round;stroke:rgb(0%,0%,0%);stroke-opacity:0.8;stroke-miterlimit:10;" d="M 240.890625 228.714844 C 240.890625 233.453125 233.78125 233.453125 233.78125 228.714844 C 233.78125 223.972656 240.890625 223.972656 240.890625 228.714844 "/>
<path style="fill-rule:nonzero;fill:rgb(0%,0%,0%);fill-opacity:0.8;stroke-width:0.708661;stroke-linecap:round;stroke-linejoin:round;stroke:rgb(0%,0%,0%);stroke-opacity:0.8;stroke-miterlimit:10;" d="M 267.167969 219.9375 C 267.167969 224.679688 260.054688 224.679688 260.054688 219.9375 C 260.054688 215.199219 267.167969 215.199219 267.167969 219.9375 "/>
<path style="fill-rule:nonzero;fill:rgb(0%,0%,0%);fill-opacity:0.8;stroke-width:0.708661;stroke-linecap:round;stroke-linejoin:round;stroke:rgb(0%,0%,0%);stroke-opacity:0.8;stroke-miterlimit:10;" d="M 449.058594 218.476562 C 449.058594 223.214844 441.949219 223.214844 441.949219 218.476562 C 441.949219 213.734375 449.058594 213.734375 449.058594 218.476562 "/>
<path style="fill-rule:nonzero;fill:rgb(0%,0%,0%);fill-opacity:0.8;stroke-width:0.708661;stroke-linecap:round;stroke-linejoin:round;stroke:rgb(0%,0%,0%);stroke-opacity:0.8;stroke-miterlimit:10;" d="M 354.910156 216.917969 C 354.910156 221.65625 347.800781 221.65625 347.800781 216.917969 C 347.800781 212.175781 354.910156 212.175781 354.910156 216.917969 "/>
<path style="fill-rule:nonzero;fill:rgb(0%,0%,0%);fill-opacity:0.8;stroke-width:0.708661;stroke-linecap:round;stroke-linejoin:round;stroke:rgb(0%,0%,0%);stroke-opacity:0.8;stroke-miterlimit:10;" d="M 359.371094 229.253906 C 359.371094 233.996094 352.261719 233.996094 352.261719 229.253906 C 352.261719 224.515625 359.371094 224.515625 359.371094 229.253906 "/>
<path style="fill-rule:nonzero;fill:rgb(0%,0%,0%);fill-opacity:0.8;stroke-width:0.708661;stroke-linecap:round;stroke-linejoin:round;stroke:rgb(0%,0%,0%);stroke-opacity:0.8;stroke-miterlimit:10;" d="M 327.773438 222.144531 C 327.773438 226.886719 320.660156 226.886719 320.660156 222.144531 C 320.660156 217.40625 327.773438 217.40625 327.773438 222.144531 "/>
<path style="fill-rule:nonzero;fill:rgb(0%,0%,0%);fill-opacity:0.8;stroke-width:0.708661;stroke-linecap:round;stroke-linejoin:round;stroke:rgb(0%,0%,0%);stroke-opacity:0.8;stroke-miterlimit:10;" d="M 255.164062 222.851562 C 255.164062 227.59375 248.054688 227.59375 248.054688 222.851562 C 248.054688 218.109375 255.164062 218.109375 255.164062 222.851562 "/>
<path style="fill-rule:nonzero;fill:rgb(0%,0%,0%);fill-opacity:0.8;stroke-width:0.708661;stroke-linecap:round;stroke-linejoin:round;stroke:rgb(0%,0%,0%);stroke-opacity:0.8;stroke-miterlimit:10;" d="M 510.371094 210.179688 C 510.371094 214.921875 503.261719 214.921875 503.261719 210.179688 C 503.261719 205.441406 510.371094 205.441406 510.371094 210.179688 "/>
<path style="fill-rule:nonzero;fill:rgb(0%,0%,0%);fill-opacity:0.8;stroke-width:0.708661;stroke-linecap:round;stroke-linejoin:round;stroke:rgb(0%,0%,0%);stroke-opacity:0.8;stroke-miterlimit:10;" d="M 369.949219 218.9375 C 369.949219 223.675781 362.835938 223.675781 362.835938 218.9375 C 362.835938 214.195312 369.949219 214.195312 369.949219 218.9375 "/>
<path style="fill-rule:nonzero;fill:rgb(0%,0%,0%);fill-opacity:0.8;stroke-width:0.708661;stroke-linecap:round;stroke-linejoin:round;stroke:rgb(0%,0%,0%);stroke-opacity:0.8;stroke-miterlimit:10;" d="M 101.480469 237.78125 C 101.480469 242.523438 94.371094 242.523438 94.371094 237.78125 C 94.371094 233.042969 101.480469 233.042969 101.480469 237.78125 "/>
<path style="fill-rule:nonzero;fill:rgb(0%,0%,0%);fill-opacity:0.8;stroke-width:0.708661;stroke-linecap:round;stroke-linejoin:round;stroke:rgb(0%,0%,0%);stroke-opacity:0.8;stroke-miterlimit:10;" d="M 392.117188 223.128906 C 392.117188 227.871094 385.007812 227.871094 385.007812 223.128906 C 385.007812 218.386719 392.117188 218.386719 392.117188 223.128906 "/>
<path style="fill-rule:nonzero;fill:rgb(0%,0%,0%);fill-opacity:0.8;stroke-width:0.708661;stroke-linecap:round;stroke-linejoin:round;stroke:rgb(0%,0%,0%);stroke-opacity:0.8;stroke-miterlimit:10;" d="M 264.210938 231.082031 C 264.210938 235.824219 257.101562 235.824219 257.101562 231.082031 C 257.101562 226.34375 264.210938 226.34375 264.210938 231.082031 "/>
<path style="fill-rule:nonzero;fill:rgb(0%,0%,0%);fill-opacity:0.8;stroke-width:0.708661;stroke-linecap:round;stroke-linejoin:round;stroke:rgb(0%,0%,0%);stroke-opacity:0.8;stroke-miterlimit:10;" d="M 199.390625 228.160156 C 199.390625 232.902344 192.28125 232.902344 192.28125 228.160156 C 192.28125 223.421875 199.390625 223.421875 199.390625 228.160156 "/>
<path style="fill-rule:nonzero;fill:rgb(0%,0%,0%);fill-opacity:0.8;stroke-width:0.708661;stroke-linecap:round;stroke-linejoin:round;stroke:rgb(0%,0%,0%);stroke-opacity:0.8;stroke-miterlimit:10;" d="M 291.96875 229.136719 C 291.96875 233.878906 284.859375 233.878906 284.859375 229.136719 C 284.859375 224.398438 291.96875 224.398438 291.96875 229.136719 "/>
<path style="fill-rule:nonzero;fill:rgb(0%,0%,0%);fill-opacity:0.8;stroke-width:0.708661;stroke-linecap:round;stroke-linejoin:round;stroke:rgb(0%,0%,0%);stroke-opacity:0.8;stroke-miterlimit:10;" d="M 203.945312 231.351562 C 203.945312 236.089844 196.835938 236.089844 196.835938 231.351562 C 196.835938 226.609375 203.945312 226.609375 203.945312 231.351562 "/>
<path style="fill-rule:nonzero;fill:rgb(0%,0%,0%);fill-opacity:0.8;stroke-width:0.708661;stroke-linecap:round;stroke-linejoin:round;stroke:rgb(0%,0%,0%);stroke-opacity:0.8;stroke-miterlimit:10;" d="M 236.3125 228.261719 C 236.3125 233.003906 229.203125 233.003906 229.203125 228.261719 C 229.203125 223.523438 236.3125 223.523438 236.3125 228.261719 "/>
<path style="fill-rule:nonzero;fill:rgb(0%,0%,0%);fill-opacity:0.8;stroke-width:0.708661;stroke-linecap:round;stroke-linejoin:round;stroke:rgb(0%,0%,0%);stroke-opacity:0.8;stroke-miterlimit:10;" d="M 247.625 215.777344 C 247.625 220.515625 240.515625 220.515625 240.515625 215.777344 C 240.515625 211.035156 247.625 211.035156 247.625 215.777344 "/>
<path style="fill-rule:nonzero;fill:rgb(0%,0%,0%);fill-opacity:0.8;stroke-width:0.708661;stroke-linecap:round;stroke-linejoin:round;stroke:rgb(0%,0%,0%);stroke-opacity:0.8;stroke-miterlimit:10;" d="M 131.972656 236.183594 C 131.972656 240.925781 124.863281 240.925781 124.863281 236.183594 C 124.863281 231.445312 131.972656 231.445312 131.972656 236.183594 "/>
<path style="fill-rule:nonzero;fill:rgb(0%,0%,0%);fill-opacity:0.8;stroke-width:0.708661;stroke-linecap:round;stroke-linejoin:round;stroke:rgb(0%,0%,0%);stroke-opacity:0.8;stroke-miterlimit:10;" d="M 406.980469 216.183594 C 406.980469 220.925781 399.867188 220.925781 399.867188 216.183594 C 399.867188 211.445312 406.980469 211.445312 406.980469 216.183594 "/>
<path style="fill-rule:nonzero;fill:rgb(0%,0%,0%);fill-opacity:0.8;stroke-width:0.708661;stroke-linecap:round;stroke-linejoin:round;stroke:rgb(0%,0%,0%);stroke-opacity:0.8;stroke-miterlimit:10;" d="M 332.421875 221.136719 C 332.421875 225.878906 325.3125 225.878906 325.3125 221.136719 C 325.3125 216.398438 332.421875 216.398438 332.421875 221.136719 "/>
<path style="fill-rule:nonzero;fill:rgb(0%,0%,0%);fill-opacity:0.8;stroke-width:0.708661;stroke-linecap:round;stroke-linejoin:round;stroke:rgb(0%,0%,0%);stroke-opacity:0.8;stroke-miterlimit:10;" d="M 191.730469 234.679688 C 191.730469 239.421875 184.621094 239.421875 184.621094 234.679688 C 184.621094 229.941406 191.730469 229.941406 191.730469 234.679688 "/>
<path style="fill-rule:nonzero;fill:rgb(0%,0%,0%);fill-opacity:0.8;stroke-width:0.708661;stroke-linecap:round;stroke-linejoin:round;stroke:rgb(0%,0%,0%);stroke-opacity:0.8;stroke-miterlimit:10;" d="M 452.300781 215.449219 C 452.300781 220.191406 445.1875 220.191406 445.1875 215.449219 C 445.1875 210.710938 452.300781 210.710938 452.300781 215.449219 "/>
<path style="fill-rule:nonzero;fill:rgb(0%,0%,0%);fill-opacity:0.8;stroke-width:0.708661;stroke-linecap:round;stroke-linejoin:round;stroke:rgb(0%,0%,0%);stroke-opacity:0.8;stroke-miterlimit:10;" d="M 362.171875 211.792969 C 362.171875 216.53125 355.0625 216.53125 355.0625 211.792969 C 355.0625 207.050781 362.171875 207.050781 362.171875 211.792969 "/>
<path style="fill-rule:nonzero;fill:rgb(0%,0%,0%);fill-opacity:0.8;stroke-width:0.708661;stroke-linecap:round;stroke-linejoin:round;stroke:rgb(0%,0%,0%);stroke-opacity:0.8;stroke-miterlimit:10;" d="M 283.570312 221.6875 C 283.570312 226.429688 276.460938 226.429688 276.460938 221.6875 C 276.460938 216.949219 283.570312 216.949219 283.570312 221.6875 "/>
<path style="fill-rule:nonzero;fill:rgb(0%,0%,0%);fill-opacity:0.8;stroke-width:0.708661;stroke-linecap:round;stroke-linejoin:round;stroke:rgb(0%,0%,0%);stroke-opacity:0.8;stroke-miterlimit:10;" d="M 413.226562 216.941406 C 413.226562 221.683594 406.113281 221.683594 406.113281 216.941406 C 406.113281 212.203125 413.226562 212.203125 413.226562 216.941406 "/>
<path style="fill-rule:nonzero;fill:rgb(0%,0%,0%);fill-opacity:0.8;stroke-width:0.708661;stroke-linecap:round;stroke-linejoin:round;stroke:rgb(0%,0%,0%);stroke-opacity:0.8;stroke-miterlimit:10;" d="M 411.375 219.664062 C 411.375 224.40625 404.265625 224.40625 404.265625 219.664062 C 404.265625 214.925781 411.375 214.925781 411.375 219.664062 "/>
<path style="fill-rule:nonzero;fill:rgb(0%,0%,0%);fill-opacity:0.8;stroke-width:0.708661;stroke-linecap:round;stroke-linejoin:round;stroke:rgb(0%,0%,0%);stroke-opacity:0.8;stroke-miterlimit:10;" d="M 405.214844 229.21875 C 405.214844 233.960938 398.101562 233.960938 398.101562 229.21875 C 398.101562 224.476562 405.214844 224.476562 405.214844 229.21875 "/>
<path style="fill-rule:nonzero;fill:rgb(0%,0%,0%);fill-opacity:0.8;stroke-width:0.708661;stroke-linecap:round;stroke-linejoin:round;stroke:rgb(0%,0%,0%);stroke-opacity:0.8;stroke-miterlimit:10;" d="M 390.730469 212.007812 C 390.730469 216.746094 383.621094 216.746094 383.621094 212.007812 C 383.621094 207.265625 390.730469 207.265625 390.730469 212.007812 "/>
<path style="fill-rule:nonzero;fill:rgb(0%,0%,0%);fill-opacity:0.8;stroke-width:0.708661;stroke-linecap:round;stroke-linejoin:round;stroke:rgb(0%,0%,0%);stroke-opacity:0.8;stroke-miterlimit:10;" d="M 376.054688 227.457031 C 376.054688 232.199219 368.945312 232.199219 368.945312 227.457031 C 368.945312 222.71875 376.054688 222.71875 376.054688 227.457031 "/>
<path style="fill-rule:nonzero;fill:rgb(0%,0%,0%);fill-opacity:0.8;stroke-width:0.708661;stroke-linecap:round;stroke-linejoin:round;stroke:rgb(0%,0%,0%);stroke-opacity:0.8;stroke-miterlimit:10;" d="M 308.96875 218.671875 C 308.96875 223.414062 301.859375 223.414062 301.859375 218.671875 C 301.859375 213.933594 308.96875 213.933594 308.96875 218.671875 "/>
<path style="fill-rule:nonzero;fill:rgb(0%,0%,0%);fill-opacity:0.8;stroke-width:0.708661;stroke-linecap:round;stroke-linejoin:round;stroke:rgb(0%,0%,0%);stroke-opacity:0.8;stroke-miterlimit:10;" d="M 282.382812 213.511719 C 282.382812 218.253906 275.273438 218.253906 275.273438 213.511719 C 275.273438 208.773438 282.382812 208.773438 282.382812 213.511719 "/>
<path style="fill-rule:nonzero;fill:rgb(0%,0%,0%);fill-opacity:0.8;stroke-width:0.708661;stroke-linecap:round;stroke-linejoin:round;stroke:rgb(0%,0%,0%);stroke-opacity:0.8;stroke-miterlimit:10;" d="M 274.269531 232.910156 C 274.269531 237.648438 267.15625 237.648438 267.15625 232.910156 C 267.15625 228.167969 274.269531 228.167969 274.269531 232.910156 "/>
<path style="fill-rule:nonzero;fill:rgb(0%,0%,0%);fill-opacity:0.8;stroke-width:0.708661;stroke-linecap:round;stroke-linejoin:round;stroke:rgb(0%,0%,0%);stroke-opacity:0.8;stroke-miterlimit:10;" d="M 240.035156 222.644531 C 240.035156 227.386719 232.925781 227.386719 232.925781 222.644531 C 232.925781 217.90625 240.035156 217.90625 240.035156 222.644531 "/>
<path style="fill-rule:nonzero;fill:rgb(0%,0%,0%);fill-opacity:0.8;stroke-width:0.708661;stroke-linecap:round;stroke-linejoin:round;stroke:rgb(0%,0%,0%);stroke-opacity:0.8;stroke-miterlimit:10;" d="M 293.066406 225.203125 C 293.066406 229.945312 285.953125 229.945312 285.953125 225.203125 C 285.953125 220.464844 293.066406 220.464844 293.066406 225.203125 "/>
<path style="fill-rule:nonzero;fill:rgb(0%,0%,0%);fill-opacity:0.8;stroke-width:0.708661;stroke-linecap:round;stroke-linejoin:round;stroke:rgb(0%,0%,0%);stroke-opacity:0.8;stroke-miterlimit:10;" d="M 177.867188 238.886719 C 177.867188 243.625 170.757812 243.625 170.757812 238.886719 C 170.757812 234.144531 177.867188 234.144531 177.867188 238.886719 "/>
<path style="fill-rule:nonzero;fill:rgb(0%,0%,0%);fill-opacity:0.8;stroke-width:0.708661;stroke-linecap:round;stroke-linejoin:round;stroke:rgb(0%,0%,0%);stroke-opacity:0.8;stroke-miterlimit:10;" d="M 551.992188 218.175781 C 551.992188 222.917969 544.878906 222.917969 544.878906 218.175781 C 544.878906 213.4375 551.992188 213.4375 551.992188 218.175781 "/>
<path style="fill-rule:nonzero;fill:rgb(0%,0%,0%);fill-opacity:0.8;stroke-width:0.708661;stroke-linecap:round;stroke-linejoin:round;stroke:rgb(0%,0%,0%);stroke-opacity:0.8;stroke-miterlimit:10;" d="M 447.304688 224.371094 C 447.304688 229.113281 440.195312 229.113281 440.195312 224.371094 C 440.195312 219.632812 447.304688 219.632812 447.304688 224.371094 "/>
<path style="fill-rule:nonzero;fill:rgb(0%,0%,0%);fill-opacity:0.8;stroke-width:0.708661;stroke-linecap:round;stroke-linejoin:round;stroke:rgb(0%,0%,0%);stroke-opacity:0.8;stroke-miterlimit:10;" d="M 193.367188 232.15625 C 193.367188 236.894531 186.257812 236.894531 186.257812 232.15625 C 186.257812 227.414062 193.367188 227.414062 193.367188 232.15625 "/>
<path style="fill-rule:nonzero;fill:rgb(0%,0%,0%);fill-opacity:0.8;stroke-width:0.708661;stroke-linecap:round;stroke-linejoin:round;stroke:rgb(0%,0%,0%);stroke-opacity:0.8;stroke-miterlimit:10;" d="M 271.824219 233.144531 C 271.824219 237.882812 264.714844 237.882812 264.714844 233.144531 C 264.714844 228.402344 271.824219 228.402344 271.824219 233.144531 "/>
<path style="fill-rule:nonzero;fill:rgb(0%,0%,0%);fill-opacity:0.8;stroke-width:0.708661;stroke-linecap:round;stroke-linejoin:round;stroke:rgb(0%,0%,0%);stroke-opacity:0.8;stroke-miterlimit:10;" d="M 264.878906 221.371094 C 264.878906 226.109375 257.769531 226.109375 257.769531 221.371094 C 257.769531 216.628906 264.878906 216.628906 264.878906 221.371094 "/>
<path style="fill-rule:nonzero;fill:rgb(0%,0%,0%);fill-opacity:0.8;stroke-width:0.708661;stroke-linecap:round;stroke-linejoin:round;stroke:rgb(0%,0%,0%);stroke-opacity:0.8;stroke-miterlimit:10;" d="M 400.679688 205.988281 C 400.679688 210.726562 393.570312 210.726562 393.570312 205.988281 C 393.570312 201.246094 400.679688 201.246094 400.679688 205.988281 "/>
<path style="fill-rule:nonzero;fill:rgb(0%,0%,0%);fill-opacity:0.8;stroke-width:0.708661;stroke-linecap:round;stroke-linejoin:round;stroke:rgb(0%,0%,0%);stroke-opacity:0.8;stroke-miterlimit:10;" d="M 306.632812 230.257812 C 306.632812 235 299.523438 235 299.523438 230.257812 C 299.523438 225.519531 306.632812 225.519531 306.632812 230.257812 "/>
<path style="fill-rule:nonzero;fill:rgb(0%,0%,0%);fill-opacity:0.8;stroke-width:0.708661;stroke-linecap:round;stroke-linejoin:round;stroke:rgb(0%,0%,0%);stroke-opacity:0.8;stroke-miterlimit:10;" d="M 343.308594 216.53125 C 343.308594 221.273438 336.199219 221.273438 336.199219 216.53125 C 336.199219 211.792969 343.308594 211.792969 343.308594 216.53125 "/>
<path style="fill-rule:nonzero;fill:rgb(0%,0%,0%);fill-opacity:0.8;stroke-width:0.708661;stroke-linecap:round;stroke-linejoin:round;stroke:rgb(0%,0%,0%);stroke-opacity:0.8;stroke-miterlimit:10;" d="M 312.605469 218.3125 C 312.605469 223.050781 305.496094 223.050781 305.496094 218.3125 C 305.496094 213.570312 312.605469 213.570312 312.605469 218.3125 "/>
<path style="fill-rule:nonzero;fill:rgb(0%,0%,0%);fill-opacity:0.8;stroke-width:0.708661;stroke-linecap:round;stroke-linejoin:round;stroke:rgb(0%,0%,0%);stroke-opacity:0.8;stroke-miterlimit:10;" d="M 311.042969 220.863281 C 311.042969 225.605469 303.933594 225.605469 303.933594 220.863281 C 303.933594 216.125 311.042969 216.125 311.042969 220.863281 "/>
<path style="fill-rule:nonzero;fill:rgb(0%,0%,0%);fill-opacity:0.8;stroke-width:0.708661;stroke-linecap:round;stroke-linejoin:round;stroke:rgb(0%,0%,0%);stroke-opacity:0.8;stroke-miterlimit:10;" d="M 464.804688 220.066406 C 464.804688 224.804688 457.695312 224.804688 457.695312 220.066406 C 457.695312 215.324219 464.804688 215.324219 464.804688 220.066406 "/>
<path style="fill-rule:nonzero;fill:rgb(0%,0%,0%);fill-opacity:0.8;stroke-width:0.708661;stroke-linecap:round;stroke-linejoin:round;stroke:rgb(0%,0%,0%);stroke-opacity:0.8;stroke-miterlimit:10;" d="M 291.121094 224.503906 C 291.121094 229.246094 284.007812 229.246094 284.007812 224.503906 C 284.007812 219.761719 291.121094 219.761719 291.121094 224.503906 "/>
<path style="fill-rule:nonzero;fill:rgb(0%,0%,0%);fill-opacity:0.8;stroke-width:0.708661;stroke-linecap:round;stroke-linejoin:round;stroke:rgb(0%,0%,0%);stroke-opacity:0.8;stroke-miterlimit:10;" d="M 480.910156 215.074219 C 480.910156 219.8125 473.800781 219.8125 473.800781 215.074219 C 473.800781 210.332031 480.910156 210.332031 480.910156 215.074219 "/>
<path style="fill-rule:nonzero;fill:rgb(0%,0%,0%);fill-opacity:0.8;stroke-width:0.708661;stroke-linecap:round;stroke-linejoin:round;stroke:rgb(0%,0%,0%);stroke-opacity:0.8;stroke-miterlimit:10;" d="M 147 228.5 C 147 233.238281 139.890625 233.238281 139.890625 228.5 C 139.890625 223.757812 147 223.757812 147 228.5 "/>
<path style="fill-rule:nonzero;fill:rgb(0%,0%,0%);fill-opacity:0.8;stroke-width:0.708661;stroke-linecap:round;stroke-linejoin:round;stroke:rgb(0%,0%,0%);stroke-opacity:0.8;stroke-miterlimit:10;" d="M 379.398438 221.125 C 379.398438 225.863281 372.289062 225.863281 372.289062 221.125 C 372.289062 216.382812 379.398438 216.382812 379.398438 221.125 "/>
<path style="fill-rule:nonzero;fill:rgb(0%,0%,0%);fill-opacity:0.8;stroke-width:0.708661;stroke-linecap:round;stroke-linejoin:round;stroke:rgb(0%,0%,0%);stroke-opacity:0.8;stroke-miterlimit:10;" d="M 329.207031 216.230469 C 329.207031 220.972656 322.097656 220.972656 322.097656 216.230469 C 322.097656 211.492188 329.207031 211.492188 329.207031 216.230469 "/>
<path style="fill-rule:nonzero;fill:rgb(0%,0%,0%);fill-opacity:0.8;stroke-width:0.708661;stroke-linecap:round;stroke-linejoin:round;stroke:rgb(0%,0%,0%);stroke-opacity:0.8;stroke-miterlimit:10;" d="M 339.238281 223.324219 C 339.238281 228.066406 332.128906 228.066406 332.128906 223.324219 C 332.128906 218.582031 339.238281 218.582031 339.238281 223.324219 "/>
<path style="fill-rule:nonzero;fill:rgb(0%,0%,0%);fill-opacity:0.8;stroke-width:0.708661;stroke-linecap:round;stroke-linejoin:round;stroke:rgb(0%,0%,0%);stroke-opacity:0.8;stroke-miterlimit:10;" d="M 357.070312 214.285156 C 357.070312 219.023438 349.960938 219.023438 349.960938 214.285156 C 349.960938 209.542969 357.070312 209.542969 357.070312 214.285156 "/>
<path style="fill-rule:nonzero;fill:rgb(0%,0%,0%);fill-opacity:0.8;stroke-width:0.708661;stroke-linecap:round;stroke-linejoin:round;stroke:rgb(0%,0%,0%);stroke-opacity:0.8;stroke-miterlimit:10;" d="M 260.992188 231.402344 C 260.992188 236.140625 253.882812 236.140625 253.882812 231.402344 C 253.882812 226.660156 260.992188 226.660156 260.992188 231.402344 "/>
<path style="fill-rule:nonzero;fill:rgb(0%,0%,0%);fill-opacity:0.8;stroke-width:0.708661;stroke-linecap:round;stroke-linejoin:round;stroke:rgb(0%,0%,0%);stroke-opacity:0.8;stroke-miterlimit:10;" d="M 279.417969 231.589844 C 279.417969 236.328125 272.304688 236.328125 272.304688 231.589844 C 272.304688 226.847656 279.417969 226.847656 279.417969 231.589844 "/>
<path style="fill-rule:nonzero;fill:rgb(0%,0%,0%);fill-opacity:0.8;stroke-width:0.708661;stroke-linecap:round;stroke-linejoin:round;stroke:rgb(0%,0%,0%);stroke-opacity:0.8;stroke-miterlimit:10;" d="M 204.753906 210.214844 C 204.753906 214.953125 197.644531 214.953125 197.644531 210.214844 C 197.644531 205.472656 204.753906 205.472656 204.753906 210.214844 "/>
<path style="fill-rule:nonzero;fill:rgb(0%,0%,0%);fill-opacity:0.8;stroke-width:0.708661;stroke-linecap:round;stroke-linejoin:round;stroke:rgb(0%,0%,0%);stroke-opacity:0.8;stroke-miterlimit:10;" d="M 198.957031 231.207031 C 198.957031 235.945312 191.847656 235.945312 191.847656 231.207031 C 191.847656 226.464844 198.957031 226.464844 198.957031 231.207031 "/>
<path style="fill-rule:nonzero;fill:rgb(0%,0%,0%);fill-opacity:0.8;stroke-width:0.708661;stroke-linecap:round;stroke-linejoin:round;stroke:rgb(0%,0%,0%);stroke-opacity:0.8;stroke-miterlimit:10;" d="M 348.78125 219 C 348.78125 223.742188 341.667969 223.742188 341.667969 219 C 341.667969 214.261719 348.78125 214.261719 348.78125 219 "/>
<path style="fill-rule:nonzero;fill:rgb(0%,0%,0%);fill-opacity:0.8;stroke-width:0.708661;stroke-linecap:round;stroke-linejoin:round;stroke:rgb(0%,0%,0%);stroke-opacity:0.8;stroke-miterlimit:10;" d="M 364.539062 216.230469 C 364.539062 220.96875 357.429688 220.96875 357.429688 216.230469 C 357.429688 211.488281 364.539062 211.488281 364.539062 216.230469 "/>
<path style="fill-rule:nonzero;fill:rgb(0%,0%,0%);fill-opacity:0.8;stroke-width:0.708661;stroke-linecap:round;stroke-linejoin:round;stroke:rgb(0%,0%,0%);stroke-opacity:0.8;stroke-miterlimit:10;" d="M 321.488281 224.910156 C 321.488281 229.648438 314.378906 229.648438 314.378906 224.910156 C 314.378906 220.167969 321.488281 220.167969 321.488281 224.910156 "/>
<path style="fill-rule:nonzero;fill:rgb(0%,0%,0%);fill-opacity:0.8;stroke-width:0.708661;stroke-linecap:round;stroke-linejoin:round;stroke:rgb(0%,0%,0%);stroke-opacity:0.8;stroke-miterlimit:10;" d="M 416.183594 214.09375 C 416.183594 218.832031 409.070312 218.832031 409.070312 214.09375 C 409.070312 209.351562 416.183594 209.351562 416.183594 214.09375 "/>
<path style="fill-rule:nonzero;fill:rgb(0%,0%,0%);fill-opacity:0.8;stroke-width:0.708661;stroke-linecap:round;stroke-linejoin:round;stroke:rgb(0%,0%,0%);stroke-opacity:0.8;stroke-miterlimit:10;" d="M 539.042969 208.234375 C 539.042969 212.976562 531.929688 212.976562 531.929688 208.234375 C 531.929688 203.496094 539.042969 203.496094 539.042969 208.234375 "/>
<path style="fill-rule:nonzero;fill:rgb(0%,0%,0%);fill-opacity:0.8;stroke-width:0.708661;stroke-linecap:round;stroke-linejoin:round;stroke:rgb(0%,0%,0%);stroke-opacity:0.8;stroke-miterlimit:10;" d="M 262.222656 226.621094 C 262.222656 231.359375 255.113281 231.359375 255.113281 226.621094 C 255.113281 221.878906 262.222656 221.878906 262.222656 226.621094 "/>
<path style="fill-rule:nonzero;fill:rgb(0%,0%,0%);fill-opacity:0.8;stroke-width:0.708661;stroke-linecap:round;stroke-linejoin:round;stroke:rgb(0%,0%,0%);stroke-opacity:0.8;stroke-miterlimit:10;" d="M 64.164062 235.824219 C 64.164062 240.566406 57.054688 240.566406 57.054688 235.824219 C 57.054688 231.085938 64.164062 231.085938 64.164062 235.824219 "/>
<path style="fill-rule:nonzero;fill:rgb(0%,0%,0%);fill-opacity:0.8;stroke-width:0.708661;stroke-linecap:round;stroke-linejoin:round;stroke:rgb(0%,0%,0%);stroke-opacity:0.8;stroke-miterlimit:10;" d="M 425.273438 216.710938 C 425.273438 221.453125 418.164062 221.453125 418.164062 216.710938 C 418.164062 211.972656 425.273438 211.972656 425.273438 216.710938 "/>
<path style="fill-rule:nonzero;fill:rgb(0%,0%,0%);fill-opacity:0.8;stroke-width:0.708661;stroke-linecap:round;stroke-linejoin:round;stroke:rgb(0%,0%,0%);stroke-opacity:0.8;stroke-miterlimit:10;" d="M 238.457031 214.667969 C 238.457031 219.40625 231.347656 219.40625 231.347656 214.667969 C 231.347656 209.925781 238.457031 209.925781 238.457031 214.667969 "/>
<path style="fill-rule:nonzero;fill:rgb(0%,0%,0%);fill-opacity:0.8;stroke-width:0.708661;stroke-linecap:round;stroke-linejoin:round;stroke:rgb(0%,0%,0%);stroke-opacity:0.8;stroke-miterlimit:10;" d="M 240.765625 230.761719 C 240.765625 235.503906 233.65625 235.503906 233.65625 230.761719 C 233.65625 226.023438 240.765625 226.023438 240.765625 230.761719 "/>
<path style="fill-rule:nonzero;fill:rgb(0%,0%,0%);fill-opacity:0.8;stroke-width:0.708661;stroke-linecap:round;stroke-linejoin:round;stroke:rgb(0%,0%,0%);stroke-opacity:0.8;stroke-miterlimit:10;" d="M 427.4375 222.597656 C 427.4375 227.335938 420.324219 227.335938 420.324219 222.597656 C 420.324219 217.855469 427.4375 217.855469 427.4375 222.597656 "/>
<path style="fill-rule:nonzero;fill:rgb(0%,0%,0%);fill-opacity:0.8;stroke-width:0.708661;stroke-linecap:round;stroke-linejoin:round;stroke:rgb(0%,0%,0%);stroke-opacity:0.8;stroke-miterlimit:10;" d="M 284.691406 223.964844 C 284.691406 228.707031 277.582031 228.707031 277.582031 223.964844 C 277.582031 219.226562 284.691406 219.226562 284.691406 223.964844 "/>
<path style="fill-rule:nonzero;fill:rgb(0%,0%,0%);fill-opacity:0.8;stroke-width:0.708661;stroke-linecap:round;stroke-linejoin:round;stroke:rgb(0%,0%,0%);stroke-opacity:0.8;stroke-miterlimit:10;" d="M 182.734375 227.980469 C 182.734375 232.71875 175.625 232.71875 175.625 227.980469 C 175.625 223.238281 182.734375 223.238281 182.734375 227.980469 "/>
<path style="fill-rule:nonzero;fill:rgb(0%,0%,0%);fill-opacity:0.8;stroke-width:0.708661;stroke-linecap:round;stroke-linejoin:round;stroke:rgb(0%,0%,0%);stroke-opacity:0.8;stroke-miterlimit:10;" d="M 335.464844 218.945312 C 335.464844 223.683594 328.355469 223.683594 328.355469 218.945312 C 328.355469 214.203125 335.464844 214.203125 335.464844 218.945312 "/>
<path style="fill-rule:nonzero;fill:rgb(0%,0%,0%);fill-opacity:0.8;stroke-width:0.708661;stroke-linecap:round;stroke-linejoin:round;stroke:rgb(0%,0%,0%);stroke-opacity:0.8;stroke-miterlimit:10;" d="M 300.585938 225.902344 C 300.585938 230.644531 293.472656 230.644531 293.472656 225.902344 C 293.472656 221.164062 300.585938 221.164062 300.585938 225.902344 "/>
<path style="fill-rule:nonzero;fill:rgb(0%,0%,0%);fill-opacity:0.8;stroke-width:0.708661;stroke-linecap:round;stroke-linejoin:round;stroke:rgb(0%,0%,0%);stroke-opacity:0.8;stroke-miterlimit:10;" d="M 316.34375 228.464844 C 316.34375 233.207031 309.230469 233.207031 309.230469 228.464844 C 309.230469 223.726562 316.34375 223.726562 316.34375 228.464844 "/>
<path style="fill-rule:nonzero;fill:rgb(0%,0%,0%);fill-opacity:0.8;stroke-width:0.708661;stroke-linecap:round;stroke-linejoin:round;stroke:rgb(0%,0%,0%);stroke-opacity:0.8;stroke-miterlimit:10;" d="M 357.683594 213.0625 C 357.683594 217.800781 350.574219 217.800781 350.574219 213.0625 C 350.574219 208.320312 357.683594 208.320312 357.683594 213.0625 "/>
<path style="fill-rule:nonzero;fill:rgb(0%,0%,0%);fill-opacity:0.8;stroke-width:0.708661;stroke-linecap:round;stroke-linejoin:round;stroke:rgb(0%,0%,0%);stroke-opacity:0.8;stroke-miterlimit:10;" d="M 275.335938 226.664062 C 275.335938 231.40625 268.226562 231.40625 268.226562 226.664062 C 268.226562 221.925781 275.335938 221.925781 275.335938 226.664062 "/>
<path style="fill-rule:nonzero;fill:rgb(0%,0%,0%);fill-opacity:0.8;stroke-width:0.708661;stroke-linecap:round;stroke-linejoin:round;stroke:rgb(0%,0%,0%);stroke-opacity:0.8;stroke-miterlimit:10;" d="M 385.910156 223.554688 C 385.910156 228.296875 378.800781 228.296875 378.800781 223.554688 C 378.800781 218.816406 385.910156 218.816406 385.910156 223.554688 "/>
<path style="fill-rule:nonzero;fill:rgb(0%,0%,0%);fill-opacity:0.8;stroke-width:0.708661;stroke-linecap:round;stroke-linejoin:round;stroke:rgb(0%,0%,0%);stroke-opacity:0.8;stroke-miterlimit:10;" d="M 291.695312 225.132812 C 291.695312 229.875 284.585938 229.875 284.585938 225.132812 C 284.585938 220.390625 291.695312 220.390625 291.695312 225.132812 "/>
<path style="fill-rule:nonzero;fill:rgb(0%,0%,0%);fill-opacity:0.8;stroke-width:0.708661;stroke-linecap:round;stroke-linejoin:round;stroke:rgb(0%,0%,0%);stroke-opacity:0.8;stroke-miterlimit:10;" d="M 351.855469 221.632812 C 351.855469 226.375 344.746094 226.375 344.746094 221.632812 C 344.746094 216.894531 351.855469 216.894531 351.855469 221.632812 "/>
<path style="fill-rule:nonzero;fill:rgb(0%,0%,0%);fill-opacity:0.8;stroke-width:0.708661;stroke-linecap:round;stroke-linejoin:round;stroke:rgb(0%,0%,0%);stroke-opacity:0.8;stroke-miterlimit:10;" d="M 435.199219 209.703125 C 435.199219 214.445312 428.089844 214.445312 428.089844 209.703125 C 428.089844 204.964844 435.199219 204.964844 435.199219 209.703125 "/>
<path style="fill-rule:nonzero;fill:rgb(0%,0%,0%);fill-opacity:0.8;stroke-width:0.708661;stroke-linecap:round;stroke-linejoin:round;stroke:rgb(0%,0%,0%);stroke-opacity:0.8;stroke-miterlimit:10;" d="M 363.121094 219.425781 C 363.121094 224.167969 356.011719 224.167969 356.011719 219.425781 C 356.011719 214.6875 363.121094 214.6875 363.121094 219.425781 "/>
<path style="fill-rule:nonzero;fill:rgb(0%,0%,0%);fill-opacity:0.8;stroke-width:0.708661;stroke-linecap:round;stroke-linejoin:round;stroke:rgb(0%,0%,0%);stroke-opacity:0.8;stroke-miterlimit:10;" d="M 280.210938 220.160156 C 280.210938 224.902344 273.097656 224.902344 273.097656 220.160156 C 273.097656 215.421875 280.210938 215.421875 280.210938 220.160156 "/>
<path style="fill-rule:nonzero;fill:rgb(0%,0%,0%);fill-opacity:0.8;stroke-width:0.708661;stroke-linecap:round;stroke-linejoin:round;stroke:rgb(0%,0%,0%);stroke-opacity:0.8;stroke-miterlimit:10;" d="M 440.859375 218.492188 C 440.859375 223.234375 433.75 223.234375 433.75 218.492188 C 433.75 213.753906 440.859375 213.753906 440.859375 218.492188 "/>
<path style="fill-rule:nonzero;fill:rgb(0%,0%,0%);fill-opacity:0.8;stroke-width:0.708661;stroke-linecap:round;stroke-linejoin:round;stroke:rgb(0%,0%,0%);stroke-opacity:0.8;stroke-miterlimit:10;" d="M 423.941406 215.378906 C 423.941406 220.121094 416.832031 220.121094 416.832031 215.378906 C 416.832031 210.640625 423.941406 210.640625 423.941406 215.378906 "/>
<path style="fill-rule:nonzero;fill:rgb(0%,0%,0%);fill-opacity:0.8;stroke-width:0.708661;stroke-linecap:round;stroke-linejoin:round;stroke:rgb(0%,0%,0%);stroke-opacity:0.8;stroke-miterlimit:10;" d="M 375.453125 221.070312 C 375.453125 225.808594 368.34375 225.808594 368.34375 221.070312 C 368.34375 216.328125 375.453125 216.328125 375.453125 221.070312 "/>
<path style="fill-rule:nonzero;fill:rgb(0%,0%,0%);fill-opacity:0.8;stroke-width:0.708661;stroke-linecap:round;stroke-linejoin:round;stroke:rgb(0%,0%,0%);stroke-opacity:0.8;stroke-miterlimit:10;" d="M 341.722656 220.535156 C 341.722656 225.277344 334.609375 225.277344 334.609375 220.535156 C 334.609375 215.796875 341.722656 215.796875 341.722656 220.535156 "/>
<path style="fill-rule:nonzero;fill:rgb(0%,0%,0%);fill-opacity:0.8;stroke-width:0.708661;stroke-linecap:round;stroke-linejoin:round;stroke:rgb(0%,0%,0%);stroke-opacity:0.8;stroke-miterlimit:10;" d="M 247.3125 231.277344 C 247.3125 236.015625 240.203125 236.015625 240.203125 231.277344 C 240.203125 226.535156 247.3125 226.535156 247.3125 231.277344 "/>
<path style="fill-rule:nonzero;fill:rgb(0%,0%,0%);fill-opacity:0.8;stroke-width:0.708661;stroke-linecap:round;stroke-linejoin:round;stroke:rgb(0%,0%,0%);stroke-opacity:0.8;stroke-miterlimit:10;" d="M 463.9375 221.820312 C 463.9375 226.5625 456.828125 226.5625 456.828125 221.820312 C 456.828125 217.082031 463.9375 217.082031 463.9375 221.820312 "/>
<path style="fill-rule:nonzero;fill:rgb(0%,0%,0%);fill-opacity:0.8;stroke-width:0.708661;stroke-linecap:round;stroke-linejoin:round;stroke:rgb(0%,0%,0%);stroke-opacity:0.8;stroke-miterlimit:10;" d="M 250.324219 214.761719 C 250.324219 219.5 243.214844 219.5 243.214844 214.761719 C 243.214844 210.019531 250.324219 210.019531 250.324219 214.761719 "/>
<path style="fill-rule:nonzero;fill:rgb(0%,0%,0%);fill-opacity:0.8;stroke-width:0.708661;stroke-linecap:round;stroke-linejoin:round;stroke:rgb(0%,0%,0%);stroke-opacity:0.8;stroke-miterlimit:10;" d="M 553.992188 206.109375 C 553.992188 210.851562 546.882812 210.851562 546.882812 206.109375 C 546.882812 201.371094 553.992188 201.371094 553.992188 206.109375 "/>
<path style="fill-rule:nonzero;fill:rgb(0%,0%,0%);fill-opacity:0.8;stroke-width:0.708661;stroke-linecap:round;stroke-linejoin:round;stroke:rgb(0%,0%,0%);stroke-opacity:0.8;stroke-miterlimit:10;" d="M 482.671875 220.464844 C 482.671875 225.207031 475.558594 225.207031 475.558594 220.464844 C 475.558594 215.726562 482.671875 215.726562 482.671875 220.464844 "/>
<path style="fill-rule:nonzero;fill:rgb(0%,0%,0%);fill-opacity:0.8;stroke-width:0.708661;stroke-linecap:round;stroke-linejoin:round;stroke:rgb(0%,0%,0%);stroke-opacity:0.8;stroke-miterlimit:10;" d="M 290.039062 227.34375 C 290.039062 232.082031 282.929688 232.082031 282.929688 227.34375 C 282.929688 222.601562 290.039062 222.601562 290.039062 227.34375 "/>
<path style="fill-rule:nonzero;fill:rgb(0%,0%,0%);fill-opacity:0.8;stroke-width:0.708661;stroke-linecap:round;stroke-linejoin:round;stroke:rgb(0%,0%,0%);stroke-opacity:0.8;stroke-miterlimit:10;" d="M 203.902344 235.28125 C 203.902344 240.023438 196.789062 240.023438 196.789062 235.28125 C 196.789062 230.542969 203.902344 230.542969 203.902344 235.28125 "/>
<path style="fill-rule:nonzero;fill:rgb(0%,0%,0%);fill-opacity:0.8;stroke-width:0.708661;stroke-linecap:round;stroke-linejoin:round;stroke:rgb(0%,0%,0%);stroke-opacity:0.8;stroke-miterlimit:10;" d="M 824.078125 17.292969 C 824.078125 22.035156 816.96875 22.035156 816.96875 17.292969 C 816.96875 12.554688 824.078125 12.554688 824.078125 17.292969 "/>
<path style="fill:none;stroke-width:2.133957;stroke-linecap:butt;stroke-linejoin:round;stroke:rgb(57.254902%,8.235294%,22.352941%);stroke-opacity:1;stroke-miterlimit:10;" d="M 60.609375 253.574219 L 70.226562 252.378906 L 79.847656 251.1875 L 89.464844 249.992188 L 99.085938 248.800781 L 108.703125 247.605469 L 118.324219 246.410156 L 127.941406 245.21875 L 137.5625 244.023438 L 147.183594 242.832031 L 156.800781 241.636719 L 166.421875 240.445312 L 176.039062 239.25 L 185.660156 238.058594 L 195.277344 236.863281 L 204.898438 235.671875 L 214.515625 234.476562 L 224.136719 233.285156 L 233.753906 232.089844 L 243.375 230.894531 L 252.992188 229.703125 L 262.613281 228.507812 L 272.230469 227.316406 L 281.851562 226.121094 L 291.46875 224.929688 L 301.089844 223.734375 L 310.707031 222.542969 L 320.328125 221.347656 L 329.945312 220.15625 L 339.566406 218.960938 L 349.183594 217.769531 L 358.804688 216.574219 L 368.421875 215.382812 L 378.042969 214.1875 L 387.660156 212.992188 L 397.28125 211.800781 L 406.898438 210.605469 L 416.519531 209.414062 L 426.136719 208.21875 L 435.757812 207.027344 L 445.375 205.832031 L 454.996094 204.640625 L 464.613281 203.445312 L 474.234375 202.253906 L 483.851562 201.058594 L 493.472656 199.867188 L 503.089844 198.671875 L 512.710938 197.480469 L 522.328125 196.285156 L 531.949219 195.089844 L 541.566406 193.898438 L 551.1875 192.703125 L 560.808594 191.511719 L 570.425781 190.316406 L 580.046875 189.125 L 589.664062 187.929688 L 599.285156 186.738281 L 608.902344 185.542969 L 618.523438 184.351562 L 628.140625 183.15625 L 637.761719 181.964844 L 647.378906 180.769531 L 657 179.578125 L 666.617188 178.382812 L 676.238281 177.1875 L 685.855469 175.996094 L 695.476562 174.800781 L 705.09375 173.609375 L 714.714844 172.414062 L 724.332031 171.222656 L 733.953125 170.027344 L 743.570312 168.835938 L 753.191406 167.640625 L 762.808594 166.449219 L 772.429688 165.253906 L 782.046875 164.0625 L 791.667969 162.867188 L 801.285156 161.671875 L 810.90625 160.480469 L 820.523438 159.285156 "/>
<path style="fill:none;stroke-width:2.133957;stroke-linecap:butt;stroke-linejoin:round;stroke:rgb(86.666667%,2.745098%,27.843137%);stroke-opacity:1;stroke-miterlimit:10;" d="M 60.609375 236.089844 L 73.007812 235.449219 L 79.210938 235.128906 L 85.410156 234.808594 L 91.609375 234.484375 L 97.8125 234.164062 L 110.210938 233.523438 L 116.414062 233.203125 L 122.613281 232.882812 L 128.8125 232.558594 L 135.011719 232.238281 L 141.214844 231.917969 L 153.613281 231.277344 L 159.816406 230.957031 L 166.015625 230.632812 L 178.414062 229.992188 L 184.617188 229.671875 L 197.015625 229.03125 L 203.21875 228.707031 L 221.816406 227.746094 L 228.019531 227.425781 L 234.21875 227.105469 L 240.417969 226.78125 L 246.621094 226.460938 L 259.019531 225.820312 L 265.222656 225.5 L 277.621094 224.859375 L 283.820312 224.535156 L 290.023438 224.214844 L 302.421875 223.574219 L 308.625 223.253906 L 314.824219 222.933594 L 321.023438 222.609375 L 327.222656 222.289062 L 333.425781 221.96875 L 345.824219 221.328125 L 352.027344 221.007812 L 358.226562 220.683594 L 364.425781 220.363281 L 370.628906 220.042969 L 389.226562 219.082031 L 395.429688 218.757812 L 407.828125 218.117188 L 414.03125 217.796875 L 426.429688 217.15625 L 432.628906 216.832031 L 438.832031 216.511719 L 451.230469 215.871094 L 457.433594 215.550781 L 463.632812 215.230469 L 469.832031 214.90625 L 476.03125 214.585938 L 482.234375 214.265625 L 494.632812 213.625 L 500.835938 213.304688 L 507.035156 212.980469 L 513.234375 212.660156 L 519.4375 212.339844 L 538.035156 211.378906 L 544.238281 211.058594 L 550.4375 210.734375 "/>
<path style="fill:none;stroke-width:0.75;stroke-linecap:round;stroke-linejoin:round;stroke:rgb(0%,0%,0%);stroke-opacity:1;stroke-miterlimit:10;" d="M 22.613281 265.386719 L 22.613281 5.480469 "/>
<path style="fill:none;stroke-width:0.75;stroke-linecap:round;stroke-linejoin:round;stroke:rgb(0%,0%,0%);stroke-opacity:1;stroke-miterlimit:10;" d="M 22.613281 265.386719 L 858.519531 265.386719 "/>
</g>
</svg>
